<mxfile host="Electron" modified="2024-07-23T07:12:58.213Z" agent="Mozilla/5.0 (X11; Linux x86_64) AppleWebKit/537.36 (KHTML, like Gecko) draw.io/24.6.4 Chrome/124.0.6367.207 Electron/30.0.6 Safari/537.36" etag="xj1eY_7hzEz-jTVC7A36" version="24.6.4" type="device">
  <diagram id="XLTPmS90cfMGWECsmG49" name="Page-1">
    <mxGraphModel dx="1434" dy="870" grid="1" gridSize="10" guides="1" tooltips="1" connect="1" arrows="1" fold="1" page="1" pageScale="1" pageWidth="1169" pageHeight="827" math="0" shadow="0">
      <root>
        <mxCell id="0" />
        <mxCell id="D95p7JKsQU0srdKd4rBZ-41" value="Couche non nommÃ©e" parent="0" />
        <mxCell id="D95p7JKsQU0srdKd4rBZ-53" value="" style="rounded=0;whiteSpace=wrap;html=1;opacity=50;" parent="D95p7JKsQU0srdKd4rBZ-41" vertex="1">
          <mxGeometry x="10" y="10" width="1150" height="790" as="geometry" />
        </mxCell>
        <mxCell id="D95p7JKsQU0srdKd4rBZ-42" value="" style="rounded=1;whiteSpace=wrap;html=1;strokeWidth=3;" parent="D95p7JKsQU0srdKd4rBZ-41" vertex="1">
          <mxGeometry x="30" y="200" width="370" height="580" as="geometry" />
        </mxCell>
        <mxCell id="j9S2OprrJZgNHprjxA65-9" value="Sublayer" parent="0" />
        <mxCell id="j9S2OprrJZgNHprjxA65-12" value="" style="rounded=1;whiteSpace=wrap;html=1;strokeWidth=3;" vertex="1" parent="j9S2OprrJZgNHprjxA65-9">
          <mxGeometry x="730" y="230" width="370" height="340" as="geometry" />
        </mxCell>
        <mxCell id="j9S2OprrJZgNHprjxA65-11" value="" style="rounded=1;whiteSpace=wrap;html=1;strokeWidth=3;" vertex="1" parent="j9S2OprrJZgNHprjxA65-9">
          <mxGeometry x="720" y="220" width="370" height="340" as="geometry" />
        </mxCell>
        <mxCell id="j9S2OprrJZgNHprjxA65-10" value="" style="rounded=1;whiteSpace=wrap;html=1;strokeWidth=3;" vertex="1" parent="j9S2OprrJZgNHprjxA65-9">
          <mxGeometry x="710" y="210" width="370" height="340" as="geometry" />
        </mxCell>
        <object label="No direct access" id="dSJ8OUNx_WeW59Pk2hs--6">
          <mxCell parent="0" />
        </object>
        <mxCell id="dSJ8OUNx_WeW59Pk2hs--8" value="Admin sys" style="shape=image;verticalLabelPosition=bottom;labelBackgroundColor=default;verticalAlign=top;aspect=fixed;imageAspect=0;image=data:image/png,iVBORw0KGgoAAAANSUhEUgAAAgAAAAIACAYAAAD0eNT6AAAAAXNSR0IArs4c6QAAIABJREFUeAHsfQecFUXyf21ObGLZBOwSFljiEpa85AWWsGSWKCBBkoiSBFQUxAAqggkVxYiiGDAiRlRAzBeMZ0DP807v9DzTnf+7393Vf+vdG308XprpnpmemZrPZz/z9r3pnu5vV9e3uru6GoAvRoARYAQYAUaAEWAEGAFGgBFgBBgBRoARYAQYAUaAEWAEGAFGgBFgBBgBRoARYAQYAUaAEWAEGAFGgBFgBBgBRoARYAQYAUaAEWAEGAFGgBFgBBgBRoARYAQYAUaAEWAEGAFGgBFgBBgBRoARYAQYAUYgMgINAaACAGoBYAEAnA0AlwLAjQCwDwCeBoA3AOBj/9/nAPCN/+9HAMCgP/pO+52e1dK97s+L8rzB/w56F72T3k1loLLwxQgwAowAI8AIMAISEEgEgDYAMB4A1gHALX4ifg8A/h5E3sFkbsf/VKZ3AeApANgNAGsBYBwAtAYAqgtfjAAjwAgwAowAIxCEQBM/WV4IAPcBwNsA8E8FSd6oYUF1ectft03+ujYOwoD/ZQQYAUaAEWAEXI1AIwAYCQDnA8AjAPAnFxG9XgPhjwDwMABsAIARAJDn6pbnyjECjAAjwAh4CoFMABgKAFvq18xpPf0/Hib8WAwE8j0gP4Y6Ngg81U+4sowAI8AIOB6BVP9o9sr6qe5fMeGf5GwYixGgPUPG0psAQFjW1DsgpjheOrgCjAAjwAgwAq5CgKb1acR6BwB8xyN8IdLXyD/UnRwNH61fNlkIAOxD4KouxJVhBBgBRsA5CLQCgHPqR/sv8yjfNMIPZQRo39HswLF6Z8n1AEBtwRcjwAgwAowAI2AaAuSkRqPPI/VOfP/lkb4txK8ZAMH3d/xbD4tNa33OmBFgBBgBRsBTCGQDwDwAeAYA/s2krxTpBxsB9D+1EQVBojajtuOLEWAEGAFGgBHQhUCl3xs9VNS8UMTD350cXdBuTH7yR0WkXRh8MQKMACPACDACYRHI8k/xk/e+3eTF75fbBhSlkKITctjisOLPPzACjAAj4D0EKJ49hdpVMcQuGwJyDQGa0aFQxZ28J+ZcY0aAEWAEGAENgX7+bWXs0CeXZJ1itJAz5xgAiNMEgu+MACPACDAC7kUg3q/0X+Fpfl7m8MvArwFgNgAkuVfsuWaMACPACHgXAYoit6zeO/wzJn4m/jAy8HsAOB0Akr3bTbjmjAAjwAi4BwFS5ovdSPypqanYsGFDbNq0KZaXl2OnThVYWdkD+/SpwkGDBuPw4TVYWzsGx42bgBMmTMS6uqm+v6lTp+PMmbNO+KPvtN/pWUpDaSkPyovyrKzs7nsHvYvemZvbEFNSUp0y3a+nnGQIULwHnhFwjx7gmjACjICHECDlPR8APgkz2tNDCLY9m56ejkVFxT6C79mzF1ZXD8OxY8fjtGkzTiDwYEK38n8qy5gx43xl69GjJ7ZpU45FRUWYlpZmG26S2vy4P55Aoof6DVeVEWAEGAHHIkAOXTMA4CNJJGAJicXFxWFOTi6WlbVCIvqampE4Zco0ZUjeqEFBdaC6UJ3KysowJycHqa5OahsA+BAAprGzoGN1AhecEWAEPIBAb39sfuUJhqbOS0ub+absaZo91LS8UdJVPR3VlepMSwolJaWYkpKifHv5DZaXAKCXB/oRV5ERYAQYAccg0MR/Ep+y2/mSkpJ8U/ldu3bDkSNH4YwZpzh+dC/T0CCfg169evuMIsUNApKxfQDQ3DG9gwvKCDACjIALEcgAgM0A8A8Vp5RpurtDh45YUzOCCT/I6TCS8UDG0fDhI3zYZWfnqDo7QEGjLgQAkkG+GAFGgBFgBCxEgAK4kLe2MgRBa9vFxcXYvXsPnxd9JJLj307chRAJD5odIEzJGVJB/4FPAaDWQrnnVzECjAAj4FkE6LjXO1Qi/oYN83xr+ZMm1fG0vo6RfiTSD/dbXd0U35ZEMgZUkgF/RMkSz/ZKrjgjwAgwAiYiQBH8KJDPdyoofpre79KlK44fP4FJ32TSD2cMEPadO3f17SxQQSYA4FsAWFq/NECyyhcjwAgwAoyABAQ6quDdn5iY6NumR9vawpESfx/71L5MrKhNaJshtZECxsCxekfB9hLknrNgBBgBRsCzCNCeforIZuspfdnZ2Uje+zT9LJO0OC/5xgLFHaDdBBSl0GZD4Cf/8cM8G+BZ9cUVZwQYAaMIlALAc3YpcXI2Ky0t9XmjM1HLJ2orMKVYAyUlJXY7Dj5bf9Q0yTJfjAAjwAgwAjEgUAcA39hB/vHxCdiiRUscM2Ysj/ZtWtuXbRzQLoLy8rZ2Lg+Q3wrNZPHFCDACjAAjEAaBXAC4zw7ip+AzFRWdcfJknuaXTcCq5Ee7NOjApORk2yIPkmznhJF9/poRYAQYAc8i0M2O+P0Uoa99+w6uiLuvCtGqXg4KRUw+HcnJyXb4CVDsCg4n7Fk1xxVnBBiBYARmWx3Nj7zFifjpCFzVCYvLZ44PAjkMkiFARqDFs07/DwDODO4E/D8jwAgwAl5CoAEA3G2l8k1ISPCFmGWPfnNI1YnGCi37kDFIsmGlLALAXQBAfYAvRoARYAQ8hUAHAHjPSoXbrFlzHD9+Io/4XeLcJ9vYoMBCzZo1s9oIeJdjBnhK73FlGQHPI1Djj5pmibLNy8vDYcNqmPiZ+GOSgREjRmJ+fr4lsuk3gH8AgLGe1woMACPACLgegZUA8G8rRv5paWnYt29VTEpf9miS83P2EgOdSNinTxWSDFkhq/4+QX2DL0aAEWAEXIdAIgBca5Ey9e3l53V+Z5OwCkYUOQpSDAELTyG8GQCSXdf7uUKMACPgWQQaAgBFRDN9NEWH9NTUjOBRP0/3S5WB4cNHWHno0BEAKPCstuCKMwKMgGsQaAEAH5hN/uTBTafzTZ8+U6riV2EUymVQYyaDZKtz5y5W7Rb4qP7Y65au0QJcEUaAEfAcAm0B4A9mkz85+Y0ZM46Jn0f9lsgAhYkmmTNbrgHgCwDo5DmtwRVmBBgBxyNQWX82+l/MVJK0Lkv7t3nUr8YI2UszFeQkSEGE4uPjzTYE6EyM3o7XBlwBRoAR8AwC/QGADkAxTTk2aNAA6bQ3L5EO11U9Q4e2DGZlZZkm5/4+RNsEqz2jPbiijAAj4FgERpkd1rd16zZI8dyZENUjRC+2CckiyaSZBq+/T410rFbggjMCjIDrERgEAD+ZpQgpfn9VVX8mfl7rV1IGqqr6mX3k8D8BYJjrtQhXkBFgBByHQOf6A07+Zhb5Z2VlY23tGCUVvxdHvVzn0LMv5IxKW1HN6gf+pTXyr+GLEWAEGAElEGgFAF+apfRatGjJU/486neM8Tdt2gwsK2tlphHwFQDQDhu+GAFGgBGwFYGmAPCpGeRPHtY9e/ZyjOLnUXHoUbFXcenRo6eZuwQ+AYAmtvZ8fjkjwAh4GoFcAHjHDPJPTk7BoUOHMfnzyN/RMlBdPQyTk5PNmg14GwByPK2BuPKMACNgCwLxAPC4GeSfmZmJFGzFqyNHrre7ZhLGjh2P2dnZZhkBTwFAgi0agF/KCDACnkXgEjPIv6ioGOvqpjL588jfVTJAMl1UVGSWEbDZs1qIK84IMAKWIzARAP4r2wAgxymKsMYjYHeNgLk9/9eeJNsmOQdSX5xguRbgFzICjIDnECDvY+lR/ujIVSYKJn4vyEC7du3NmAmgaIEdPKeNuMKMACNgGQLZZpzsRyeseUHxcx3ZwNFkoKKisxlGwPsAkGWZNuAXMQKMgKcQuF32tH9lZXcmf17v96QM0DZBOtBKcp/a7SmNxJVlBBgBSxAYL1lR8R5/Jn5PEr82C0D37t17yjYAKL+xlmgEfgkjwAh4AoF82ZH+eNqfp8MDidDLnzt1qpBtBNAx3IWe0ExcSUaAETAdgftljv7btCn3/MjPy4THdT/Z+Gvbtp1sI+Ah07UCv4ARYARcj8BcmeTfvHkL3urHU/9sAIaQgZYty2QbAbNdr524gowAI2AaAjT1/40sA6CgoBCnT5/Jyj+E8udR8cmjYq9hQn0jP79AphHwVwBoZJp24IwZAUbA1QjcJIv809LScOLEyUz+TP4sAxFkYNKkOkxPT5dpBFzvag3FlWMEGAFTEOgGAP+RYQDExyfgiBEjWfFHUPxeG+1yfcPPeNTUjETqMzL6nr8PdzdFQ3CmjAAj4EoE4gDgRUkKCHv16sPkz+TPMqBDBvr0qZJlAFA+RwGA+jRfjAAjwAhERWCOLPKn2Oc82gs/2mNsGJtwMiDZKXBm1F7PDzACjIDnEWgAAF/IMAAyMhrglCnT2ADQMfILRwb8vfcMBeo7GRkZsmYC/ggA6Z7XbgwAI8AIRERgrQzypxCnQ4cOZ/Jn8mcZEJCB4cNrZIYLXhmx5/OPjAAj4GkEMgDgzzIMADrxjEet3hu1cpvLb3OJQYK+5FkAT+t3rjwjEBGBNTLIPysrG6dNm8EGgMDIj4lUPpE6FVPqS9SnZPTN+qO8V0TUAPwjI8AIeBIBaaP/IUOqmfyZ/FkGJMpAdfUwWQYA+fewL4AnVTxXmhEIj8BqGSOM0tJSVvwSFb9TR61cbvkzGCUlpbKMgLPCqwH+hRFgBLyGQLIMz/+EhAQcP34iGwBsALAMmCAD48ZNQOpjEgx12hGQ5DUlx/VlBBiB0AjMkKBUsKKiMyt+ExQ/j6blj6adiqnEo4PrQqsC/pYRYAS8hoBw1D+K9c+Of0xUTiVWp5R76tTpSH1NgsH+nNeUHNeXEWAETkagvQRlgpWVPXj0z6N/lgELZKBbt0oZBgDl0fFkdcDfMAKMgJcQ2ClqANCIhEYmThlFcTl5psLJMkAzbZJmAa72kqLjujICjMCJCGTW7wv+TtQAqKzszuRvwcjPyaTFZZdrdEmaBfgeAEgH8MUIMAIeRGC+KPmnpqby6J/Jnw1Ai2WAZtyo74n2XwCgg7/4YgQYAQ8i8KSoAmHPf7kjOx4pM56xyoCkHQGPe1DvcZUZAc8jkAcA/xIxAOjAnwkTJvHoz+LRX6wEwc+525iYOHEyxsfHi84CkA5o6HltyAAwAh5DQHj6v7S0GZM/kz/LgI0yICk64Kke031cXUbA8wgcFBn9U9qhQ4ex8rdR+fMI390j/Fjat7p6qOgMAKXnZQDP0wED4CUEaMpPaPqfTieLRUHxM0xSLAPmykBWVpaoEfBPAMj1kgLkujICXkZglujov3PnLmwA8OifZUABGSBHXNH+DAAzvawQue6MgJcQuFVUYYwZM5aVvwLKn0fX5o6unYDvmDHjZBgAN3tJAXJdGQEvI/CpiAGQk5PL5M/kzzKgkAzk5OSIGgGkE/hiBBgBlyPQSoT8KS1P//Oo0wkjYy+VUdIyQHOX6z6uHiPgeQQWihoAPP3PBoCXyNUJdaU+KdqvAWCe57UjA8AIuByBe0QURUZGBk/9KjT16wRy4jJaYzBmZDQQNQLudLnu4+oxAp5H4E8iBkBZWSs2ANgAYBlQUAaob4r0bQD4g+e1IwPACLgYgSJBBYFVVf1Y+Suo/J0yyh41ajS2bt0Gae96fHyC748+03f0m1PqoWI5+/atEjUAKH2+i/UfV40R8DQCNaIGAMUfV1H5cZmsmWY2ijOdYd+qVeuIBEVnS9Az9KzR93g5HfVN0f4NAEM9rSG58oyAixE4W0RBZGdz9D8vE4zRutPRtQUFBTGTU0FBIRsBBmeZJEQFXOVi/cdVYwQ8jcBdIgZAy5ZlPDIzqJiNkqcb0kUb+YeSSVoScEPdra5Dy5YtYza0QuEOAHd4WkNy5RkBFyPwTphOH5PSqKzswUqZDQBdMjBqVG1MshVKLkePrtX1LqvJVsX3detWaRhvfxv8xsX6j6vGCHgWgRQA+L9QijbW7/j0P7XX2VUkpObNWxgmpBYtWrIBoNPgrK4eZhhvvx6gQ8KSPaslueKMgEsRaBMr0Yd7rq5uKitknQpZRVK2qkwTJkzC+Ph4w4REaSkPq8rrhvdMnjzFMN4B/b6lS3UgV4sR8CwC1QEdXLeS4ABAPPrXS5Dt23fQLWfBMtqxY0c2AHQanenp6aK4D/SsluSKMwIuRWBOsHLV839xcTErYp2KWC9huul58vxPTk4RJSJMSUlBystN2Jhdl6KiYlHc+Whgl5IAV8u7CJynh/CDn+UIgDwDoIe4unTpKkpCP6fv2rUbGwA6jE/arRPcf3X+v867apJrzgi4E4EbdSqBE5QInTamhwD4We8aDOQrImP0r8lrcnIy1tVNYfmL0Qjo1KnihL6r4ajjfp07VSDXihHwLgIHdCiAkxRI7959WAHHqIC9bvy0a9f+JPkRkT1K26ED+wLEKle9evUWxf9h76pJrjkj4E4EXhVRwkOGVLMBwAZAVBkYP34iJiQkiBLQSekTExN5R0CM8jd48JCT8NPZ94+5UwVyrRgB7yIgFARo9OgxUZV/rCMUfs69ywNNmjQVJZ+w6Zs2LWEZjMEIoEOVdBJ+8PO/9a6a5JozAu5E4PciSmHcuAmsfGNQvl42bvr16x9MJNL/HzBgIMthFDkcO3a8KO4fuVMFcq0YAe8i8JWIATBpUh0r3iiK18vkP2XKNExLSxMlnqjp6R0ckCryDJKEUwG/8K6a5JozAu5E4O8iBgApeC8THNc9Muk0a9Y8KnmLyF9gWgovzO0Rvj2orwbiZeDz9+5UgVwrRsCbCMQDwH8NKIKfFcmMGaew0uUZgJAy0LNnr5/lRETG9KTlXSnhDQDqq3qwDPHsv72pJrnWjIA7EUgP0cljVhLx8QkhFT+PwsIrYa9gQ6f9meH1H01e6Z3smBpe/qjPRsMwyu90eBhfjAAj4AIEkqJ09ojKIi4ujg0AHv2fJAO0Fp+VlRVRdkTkLlpaejf7A4Q2AqjPRsMvyu80a8gXI8AIuASB/0Tp8BEVBi8BhFa0XhnpB9dz+vSZWFRUFFFmROQt1rQFBYU4bdqMk4yT4PJ66X8JSwD/dInO42owAoyAH4GfYlWqoZ5jJcsGQCCJtmjR0nby1+SUHBADy+b1z3R4koaNwTs7ATJtMAIuQ+BvBpWBT5nwVCsbABqxyjjmV0QWQ6XlUMG/yOfkyVNEDQDaMswXI8AIuAiBL0Mpzli/o73FGgHw/Rdl6zUsVCR/TYY7duzEMjpzFkqIA/C5i/QeV4URYAQA4FNNURq519aOZeXqcUdA2Yf8kKOaBGe1E0a7PBMwC2trx5yAiYH+zpEAmTIYAZch8GsDiuBnRVJdPYwNAI8aAORUVl7e9mdZEJGjwLRLTp2Ki+cIT1efVK62bduhl51Wq6uHnoRJIO4xfH7NZbqPq8MIeB4BoeOA+/atYgPAgwYAOZTRITwxkIauZzqUl+E3H7yE3350DCvat9GVNpayNG7cBL0avbJPnypRPPk4YM/TBQPgNgR2x6I4wz3TtWs3NgA8ZgDQWnLDhnmiZHJS+oz0NPzVc/fjT5+94ft789n7MD0t9aTnwslirN/n5ubihAkTPSe3Xbp0FcXyBrcpP64PI+B1BDbHqjhDPUfTql5zePNyfWka2azDfW7evuln8teMgF3bNoqSVsj0VAevLV+1bSu8XLPR68qS688IuA2BpaGIPdbvSktL2QDwwAwArZ2TI51s5zxNzpafdspJ5K8ZAcvmzwhJ4lpao3eqC+0Q8IpfQElJqSiOC92m/Lg+jIDXERhvVIFSuqysbDYAXG4AjBkzDvPz80XJI2z6msFV+OMnr4U1AH44/ipW9zfvYKH8/AKkOrp9ZkdCeOYxXleWXH9GwG0IdBcxAGgUxdEA3bn/n9q1U6cKlHCATFjyb9e6JX75zgthyV+bBfjirUNYXmbe0cJ0iFBFRWfXyjK1pYTZm65uU35cH0bA6whkAIDQeQCjRo12/ejJ7aPD4PoNGVJt+oE+JU2K8MOXD0Qlf80I+ODY49i0cWFYY0LEkNXS0ih5yJChrpNn6qNaHQ3e6SjgNK8rS64/I+BGBD42qBR8SoW3ArpnBqCmZqQlh/k0ysvFXx96IGby14yAt17YjwWNGoqSWdT0tCwwbFiNawwBCVsAf+dGxcd1YgQYAYCHRAwACgMbPILk/51lFBDxN23aNCoxisiJljYnOwtfObhXN/lrRsCRR+/A7MwGlpS1pKQER4wY6Xj5lhCt8QFWlIwAI+BOBC7SlLOROzmIMeE7i/Cpvejo3qqq/tioUSNLyJRkK69hDr70+B7D5K8ZAUcfuxNzc7IsK3ejRvnYr19/H2ZOlHUqv5G+HZBmkztVH9eKEWAEpgd0dN2KIj4+HikynBMVoxfLTOvBNCI0az9/OFkqLszHN57ZJ0z+mhHw6pP3YH6e+csBgfVJT09HmvFykt8L9U3qo4H1MPC5jtUkI8AIuBOBjgYUwgkKxY2OU24xDmifO03xk5c7bdsUbWsj6Zs1bYzvHH5YGvlrRgD5EZQ2KbalTtnZ2T5MCVuVYwlIOAOA8G3nTtXHtWIEGIEEAPjWiGLX0vCRq+osAdCIj0ipe/eeSMFfkpOTbSFITTZ6dO2In7z+pHTy14yAT994Cis7d7C1joQxYd2jR08f9irNiNFWTq0tDN6/AYB4VpOMACPgXgQeM6gcfMqFvKbdMmJWtR40yqyrm4qTJtXhuHETfNPQgwYN9pEORelr1qy5b4QvYb+3KGH8nH7q+BH4tw+PmUb+mhHw198dxXEjh/z8XhFZlpGW2oBmCKhNqG3IMKC2oqUDajtqQ2pLK2YOCgqEt04+4l61xzVjBBgBQmCNiOKjNUaRU9ZGjx7jO1o2OzsHExMTlVHkIph4OS3Jw8Y1S/Efv3/ddPLXjIC/f/oanrtioYz1btvlj/oA9QWK3099w6hRSn1Swvr/KlaRjAAj4G4EeooS1oABA3UrKopQ1rp1GxlRymxX2qL4uSV9YX4eHth7vWXErxkA2v2xu3YixRlwC540m9CmTbmhHQgDBgySgQNFC+WLEWAEXIxAIgB8L6I0W7VqpcsAIPIvLCySoaA4DwAlMBg6oDf+/s2nbSN/zQj4+NUnsF+vbkpgItKnAtMWFRXpNgJatWotisF3AEA+QnwxAoyAyxE4EKhw9H6mLVJ6pipp5K/3Hfy8GkQf3A7paam45bwVSNPwGgnbfaeybN2wAtNSU1wjZ+Xl5br6WEZGhmjdH3e5zuPqMQKMgB8BIT8AIoXRo2tjUlC0rqmSs1owofH/sRsaA/t2x7dffEgZ4g82PH5z6EHs2a2TKBEqkZ76TG1tbD4B9JwEOV7N2pERYAS8gYBwPICuXbvFZACQc5ME5cR52Dj1T5H4rttynqWOfsHkHuv/NBtwzaXnYMNce+IgyJT1tm3bxdTHunWrlNE/SCfwxQgwAh5B4DMRZUVbjmJZBqAtUiLv4bSxj9BlY5WUmIinz52Gf/rtIWVH/eEMAyrzwlmTMSFBODKebfKbk5MTUx8jnwHBtiddwBcjwAh4CIFdIkoj1u2ASUlJosqJ09sw+h89dADSlHo4gnXK968/vQ/HjhjsyGUo6jvRjGxJ2/9u9JDe46oyAowAAEwQMQAobf/+0bcDir6D01s3A0DrzmOGD0I6gMcpBB9rOelgoprBVY4zJqMZAJK2/41njcgIMALeQiALAP4lQrCxbAcUyZ/TWkP+NNVfN7YG6dCdWAnVqc+9/MTdOGPiaEx2yMxUNANAwva/fwJAprdUH9eWEWAECIFDIiQby3ZAkfw5rbkGQOOiAtywcrGp8ftVNRSOv3YQ15w+FymYkcpyFs0ASE8X3v73HKtCRoAR8CYCZ4sqv2jbAUXz5/RyjQDaKz9+VDXeu+sK/OH4q64f8UczQAiDB27d4TtfQMVZgUgGAG2xldA/aEswX4wAI+BBBDqJKpBo2wFF8+f04gYAkf7IIf1w944L8c/vvuh50g9nFPzxN8/hrm0bfX4QqgQVimQAUN+T0D94+58HFT9XmRHQEPiDiBKJth1QJG9Oa5z827Zqgcvmz8BH7rwWv/ngJSb9z97QhQGdOrjv5m2+bZCd2rWWcdCOIbKOZABICK/N2/80Lch3RsCjCNwkQrTRtgOK5M1pYzMAigoa4fBBfX0n5O2/7WqkkWy4US5/r88Q0PAiTPfdtA3XLV+Ao6r7Y5Ni4aN3YzIIwhkAkrb/0VZgvhgBRsDDCEwUJdpI2wFF8/Zq+uysTMzJzvIRTeuWzbBvjy6+/eyL50zB81Yswluvusi3XY+n9I0RukbsIncyCl58+Ha849pL8MK1y3DejAm+5YOqnl2xfZsyJMNMVH7DGQCStv/RVmC+GAFGwMMImLodUFQBiihoTmsfOTL2/8NeVP7DGQAStv/RFuBsD+s9rjojwAj4EXheRFGlpaWFjVgmki+lZSJhEneyDIjKfzgDQMLpf7z9j9U/I8AI+BBYK6qowm0HFM3Xycqfy87Gi6j8hzIAePsfa21GgBGQiUCFqKIKtx1QNF8mUSZRJ8uAqPyHMgB4+59M1cd5MQKMACFgyumAogrQycqfy87Gi6j8hzIACguFdyDQ1t84VnuMACPACGgI3CyirOggmbq6qSf5AojkSWmZRJlEnSwDovIfbADw9j9NXfGdEWAEZCIwSVRZhdoOKJqnk5U/l52NF1H5DzYABgwYKLy10H8SqEzdwXkxAoyAwxEQ3g5YVtaKZwB0RpxjI8HdRoJsA4C3/zlcy3LxGQGFERDaDhjqdEBRBag6QX7y+pO+CHFnL5uHk2qHYddO7bCkSRFSIB+qO8WUp4A+pU2KsXdlZ5w4eiiev2oJ3rf7Svzszac9v8RBGBAWdCohYUMYEVaEmRaPn7AkTAnbyWOG49oz5vsw//SNp5THT1T+g2cAJJz+RyeA8sUIMAKMwEkICG8HHDWq9oRZAFEFqKIBcGj/Lbhi8WwsL2suNB1LfhMVHcpx1ZJT8ZWDe5UnM1lt8coTd+PKJXOwon0bJAxEZITOPKC8nt9/q5L4idQ61m34AAAgAElEQVSN0gYaAJK2/9EJoHwxAowAI3ASAsLbAbt06XqC0hJVgLJIRzQfCrm75bwVwqQfCY8O5WV41cXrkQ6iES2vaum/fv8I7rhonS9EbiQMRH4jY2DrhhVKnXgoUh9KG2gASNr+R32cL0aAEWAETkKAtgZ9LqK0gk8HFMmL0tpNZF+8/TyuP3PBz1P6ovWJJX3D3GzcdPbprjAEiPgvWL0Ec3OyhEb6seCmPUPLB+euWIhfvvOC7fKjlcnoPdAA4O1/J+kr/oIRYAQkIyC0HTD4dECjik9LZ5cB8PdPX8PrL9uA+XkNLSMurc7avbgwH3fvuNB2EjPaBjdduUnKgTgaHnrvBY0a4o1XXIDUlkbrIJpOb5mDn9cMAEnb/+jkT74YAUaAEQiLgITtgAN+nroMVmh6/xdVwEbSv3f0EezXq5ttxB+MER31++HLB2wjMb0Y/u7YYzhsYB9l8BvQpxKpTHrrIeP54LbU+79mAEja/kcnf/LFCDACjEBYBOiEMDopzLACD9wOKJIPpZWhhPXkcfs1F2Nmg3TDdRetb7j0NIW+/7arLcdDD3b07IO3XWXpdH84vIK/z2qQgXt2brEcv+By6P1fMwAkbf+jrb58MQKMACMQEYEX9CqqwOcDTwcM/N7IZ70EZPT5Hz95zeeNL+qVbqSOsaahstF6utE6mp2Otjeqjh9t17RySSDWtg33nGYA0BbbcM/E+D1t8eWLEWAEGIGoCKyLUamEVUqZmZmYmJgY9vdY8zebtCj/74+/gnVja4TLGmudRJ+bP2MiksFiBTaxvOOH46/i3OnjHYPf9ImjkMocS91EnxFt66SkJMzOzpaBLW3x5YsRYAQYgagIdBZVXLLSiyrgaOm/+/hlrB0mJbyqDCUdcx4zJo62dCQbDkcaTU8dPyLmcsuSC9F8xo0c4jP8wtVL1vei5ZSYnrf/RVV7/AAjwAgQArQd8I8SlY9hgpCliEPl84/fv47TJow0XDa78Vkwc5Ilo9hQ2GnfzZsxwbH4nTK5FkkGtLqYcbdbRvzvp629fPof63ZGgBGIGYHdKigvGp2/9PgeU5T06qWnOpa8tLa59NyzTMEmFjK8aP0ZjsePwgrHUle9z5DMKjSzRFt7+WIEGAFGIGYEJmskY/edHMtGDx0g1RC4d9cVSjusxYp5QkI8PrrnOlNILBLpPXT71UgxH2Itp6rPkWzRWQSR6qrnNyJ+klXFnCFpay9fjAAjwAjEhEAjAHhQNaUtyxB4/6VHMTuzgePJS2ufwvw8/MOvnpFGYtEIjw7wsTNAklZvWXeKHPjBsceF8FOU+DUZfwgA8mPq+fwQI8AIeBqBGgD4QpZyNSMfEUOA1nyHDuitKUbX3MeOGCxEYNFIP/D3MTWDXIObJp81g6sM4ac48Qe205cAMMLTmo0rzwgwAhERWAkA/9aUoup3I4bAzds3BSpFV32mIDyBRG3G5/tv2e4qzAJl/LarL44ZPwcRf2B7Ud9eHVED8I+MACPgOQTiAeD6QGXopM+xGgLffPASNikuDFSI0j5T8KPhw4fjmjVr8I477sADBw7g0aNH8eWXX8ann37a9925557re0ZCUJeQ5W7VohRpW6MZxE95fvvRMSxrXhLy3aLyogJ+JU2K8G8fHouIn0OJP7jNbgAA6vN8MQKMgMcRSACA20QVuArpoxkCF69fHqwIhf9v0qQJErG/+OKL+Prrr8f0d+TIEdywYQOWlpYKvz8Y92u3nBuRwESMAzqqOPh9ov+rhh8d+RwKI5cQf2D7UZ+nvs8XI8AIeBiBG0WVuGrpQxkCNHql0+FklTU5ORmXLVuGL730UkykH8o4oNmB5cuXI+Ulq1wtSpuYEuWOoiU2a9pYWjlVxY8cKklWNCPAhcQf2IbU9/liBBgBjyKwXhbxqJhPoCGwa9vGQMUn9Llx48a4Z88ew8QfbAzceuut2KhRI6EyBeJ/1/VbfyYwjchE73dce4m08qmOHx1j7HLiD2zLcz2q+7jajICnERgJAP8NJA63fiZDQNYJfy1btsRnnnlGGvlrxgD5DLRu3TpQMRv+TEfxihJ+cPoh/XoZLk+gXDkBP5IVkpnAcrv4M+mAUZ7WhFx5RsBjCDQBgL+4WKmZorxLSkrw4MGD0sk/0AjIy8sTLjsF6PnolQPSjADaIy8j6I9T8PNgv/gKAEgn8MUIMAIeQOCAB5WcELHSqWx33XWXaeSvGQG0HCDDJ4Ac9oJH8Ub/3755rRB2JGtOw8+D/YN0Al+MACPgcgSmeFC5CRPYGWecYTr5a0bAokWLhMtrNLBNKCOB8hKVGafhJ1pfh6af6nLdx9VjBDyNQBoA0Mlgwgo9OI+sBhk4ZdwI3Ll1Ax559A5faFryHA9+zon/FxUVCXn7a8Qe6522FMpYClAFa8bPeH+jPkRhnqlPXbflPKwbWyPNnyWEfNAJoKQj+GIEGAEXIkBRwKSScuuWzfCGy8/Hv/7uaMgpZ9nvsyO/9evXWzb614yEdevWSW0nO3DT3sn4Ge9zoWZkqK9df9kGpMBPGsYS7xwp0IWKn6vECKQDADn7SFEaaakpSEFTfjj+akji1xSXrPfZlU9KSoquID8agYveDx8+jGZFDLQSS8ZPrL9p/SjUnWYHLjnnTExNkRdHwq8jSFfwxQgwAi5CYL4sxU8jj9ef3heR+DWFJeudduUzePBgy0f/mvFAoYXtqres9zJ+5hkAWh974aHbsKhAXhwJADjNRXqPq8IIMAIA8KYMpd65Q7muo2dF32n3fmw7pq81A+Ccc85xvAHgZfxkyK5G8tHutO2zUzs5cSQA4DesMRkBRsA9CHQQJWJKTyN/vefOi7732IG7sHbYQNsCs9x88822zQDcdtttjjcAvIgfET/JLMmuqPxHI/7A38kIoFDGou/0p+/kHvXHNWEEvI3ARlGlQGv+sU77Byol0fdqedllCDz11FO2GQD0blH87E7vJfwCiV+TW1H8tXxivdNyQIqcsyUu9LbK5NozAu5BQHj6P9wpadEUk2wFaLUhoOeUP23qXtadDhoSxc/u9F7ALxTxa/1CFH8tHz33DSsXy5CbX7lH/XFNGAHvIpALAP8RUUS01S+at384BSXyXkobLl+rDAGR0/5EDQE6NlgUP7vTuxm/SMSvya0o/lo+eu5fvXdYxlIA6YyG3lWbXHNGwB0I1IoqIdrnr0cBBT4r+u7AvEJ9NtsQeOKJJ2xbAnj88ccdbwC4Eb9YiF+TVbPlX3tP8J1CQYu+GwDGuEMFci0YAe8icI6IIqAIf+GC/AQrnVD/i7yb0obKM9R3ZhkCt9xyi20GAJ0LIIqf3endhJ8e4tdkVBR/LR+996/fP4INMtJF5YePCvYub3DNXYLAHhElROF99SqfwOdF3k1pA/OK5bNsQ8DObWyrVq0SVeC2p3cDfkaIX5NVq+Vfey/dJ48RjiNxl0t0IFeDEfAsAsdElBDF9g9UKno/i7zbiAGglU+WIWBnIJvq6mrbCVy0/ZyMnwjxa3Ioip+Wj5H7tVvOFZUf0h18MQKMgIMR+EhECdEhJEaUj5ZG5N2UVsvH6J12L4iUISMjw5ZQwIcOHcLU1FShsovUW1ZaJ+NndOdLoKyK4hiYl97PLz58u6j8fOxgvcdFZwQYAQD4VkQJff7rZ4VIWOTdlFav0gt+ngwY0TKcffbZlvsBrF27VrjcovWWld6p+B197E5h+RPFMFie9fz/2ZtPi8rQd6xBGQFGwNkI/ENECX338ctCSlDk3ZRWj8IL9ey3Hx3D5KQkIUXYtGlTS48DPnr0KNIRuqLYqZLeifjRATuisk/yKNoGoWQ61u9I9gXfT7qDL0aAEXAwAj+JKAFRJZiQEC+khH785DVhI2Bg3+5CZSD8Fi1aZNkswNKlS4XLO2JIlTBuGtHUDK4SLo/T8BvSr5cwfiS7In0vMTFBqAwSDADSHXwxAoyAgxH4XkQJiS4BpKeJrWN/88FLQkqQSGzrBjE/AMIvOTkZ9+7da7oRcMcdd/jeJdJmlPbqS9YL46YZADL2lDsNv8s3rhbGj7bPirRjRnqaUBl4CcDBWpuLzghIQuATESV0+BExJ8Cc7CwhJfjlOy8IKUEisbdffEjKYUKFhYVoZmAbipsvY+o/Pj4eP371CWHcNAPgw5cPeAo/8v5/98gjwvh98fbzQrKfm5MlVAY6F0Ck7wPAcUk6iLNhBBgBmxB4VUQJXLflPCElVNCooZASolGMRkQi96qeXYXKoWHYunVrU4yAAwcOYPPmzaWUcdjAPlIwC8S7un8vKWVzAn4D+lRKwe/3gk54RQWNhMpxzaXCx0m/ZpPO4tcyAoyAJATu0cjLyL1ubI2QEmrZrKkQcdDoM5CIjH6+ZcdmoXIEYkczAXfffbe05QCa9m/SpIm08t1z4+VSMAvE+u4btkorn+r43Xb1xVLw+92xx4Qwo+O3A9tA7+eJo4cKvR8A7pWkgzgbRoARsAmB8wPJS+/nzAbpQqGAu1W0F1JCrxzcK6QENaX5tw+PYXFhvlBZArGjNe2FCxcK7Q6gg3LI4S8xMVFauZo1bYzfH39FCmYadnSnPEubFEsrp6r4NSkuRHKeC6y70c8vP3G3EF7du3QwXA5JoYAvsEln8WsZAUZAEgITAonLyOfrLzMeDVB06viJe24wrASDFfcVm9YIKeRQ2NHIfc2aNbqCBdERubTPv6CgQHp5RNoqGK/g/yVEljupvqrht33zWmny9vjdO0+qbygZCvfd0AG9DZeFlu7C5avj+0mSdBBnwwgwAjYhkA8A/9XR6U9SHDQVaXRUOal22En56SnLnp1bDCvBYAKjWYCmjQuFyhOu7Onp6Thw4EAfse/evRtpTf/w4cP43HPPITn37dq1y/cbPUOj33D5iHxf1rzEcDsFYxXqf9oS2rxE3lJFYF1VwK+kSZG00T/hd8e1lwi1M8XyD9UO0b6jdmpRKtxOpDMKbdJZ/FpGgBGQiMBbgcrWyOdLzjnTkDJaPGeKkBKkLWjRFJ6e3/fecJlQeYxgZ1Wa/bddLRWrULjef8t21+J3764rpOJHswkibb/k1KmGyrN53RlC7/WX+T2J+oezYgQYARsR2CKiiCgtRUajbUWhSCHSdxeuXSakjNYtX6D7nZHKQ7/JCGwjiqfs9ONHVUvHKRyOY2oGCbWp7LrLyG9UdX/p+J29bJ4QTkTk4dog3PeH9t+CKXJmmK6wUV/xqxkBRkAiApUylGRhfh7q9cq/6cpNQkpw+sRRupVgOOWofU975PMa5giVSwaesvLIz2uIn7z+pHScNLyC77S9jWRBVvntzqdRXi4ef+2gdPzoKG2RutHOlWDsI/1PdWhcJM2vpLtE/cNZMQKMgM0I/E5EGWlpO7VrjR+9EvvWPFFHqD7dO+tSgpEUZOBvD952lZTgNhoudt0p6M+BvdebglEgXsGfH91zHdK77aq3rPdS0B+zlk56VVYI4aOnXckw79i2ldD7AjD9AADibNZX/HpGgBGQiMDygA4upCho9BfrcsBbL+wXeheNaILJR9b/G1YuFiqbLDxF8rl4/XLT8ImG86azT3c8fhesXmIafqKzJO8cfjimsj2//1bZMzJnStQ7nBUjwAgogEAWANDxnlKUNq0zEoHSfuNIREG7B+hQE6PvpVEmxVSP9A6jv/3j96/jrLoxhstmtE6y0i2aXWcKLnrwXDBzkmPxO3XaeNPw++q9w0IzTEmJifjD8Vcjlo+8/cnHRtKav9aOdHZItgL6iovACDACkhG4UBb5aPnQKIc89SMZArQ9TXveyP3Io2LnEUQiNDJQRLcqGqmTaBryjZBxUmIkbGL5jUhKdK1bFAsj6SnCZTSCjaX+4Z558eHbhWQ+UhRA6msUk0HCVr9QZbxIss7h7BgBRkARBGgW4CsjCjNamgYZ6Uj7lin+OCk/iuGvHSUs6nV/w+XnRxwJhVPCsX5PRDpj4uhQylDJ7+bPmIh//1T8mORY8Yn2HOE3Z+o4JbEKJbczJ9WabjyJBuLRjnOmPkR9ifoUnfBIxir1tVD1kvDd1zz6V0RTczEYAZMQWCJBUZilgELmu2zedFMNACI4Wg4456zThKZtzcaVlkM2rlnqK2s0Urb6d8KPloRUdgwkh79zVyy0BL+lc6eFlGWzZUQw/6Um6RzOlhFgBBRBIB4ADgsqCkuV28C+3U03ADTCpEBB2ZkNLK1fLG1Bxyo/cOsOy3DQ8NB7v2/3lZidlakcflQm2YF+ImHTv3elchhEkbOjAEC6gS9GgBFwOQLlAPBDFIWgjAKjA4msXO/+4NjjOKhvD2XqT0soFLsgEuGo9BttE6UjiVWRryH9eumOXyGCJ/kWZKSnKVP/GNrhRwBo63Kdx9VjBBiBAARmxKAYlFFidLKaiFLWm5amtMn3gM5ktwsnOpmOgsFQWfSW3+7nqcwUBEpiYBrd7UCnP+7attFy/I4+dqfustolY/73zgzQC/yREWAEPILAVTYrnpgVpcxT2vSQI23nonXj3JysmMsqiilFpqO1frO2P+qpv+iz5LF+/qollkZebJibjeetWITUdqLlN5L+8o2rLZMVUVkDANIBfDECjIAHEaA1v/slKBHTFR5tNTOijGWlITIhxd6udUvT6kpRFsnT+5sPXrK1rrIwC8yHjBky4jqUl5mGX/s2ZUhHPkfakhpYJrM+Txw91LQ6Su6r1Pd53d+Dip+rzAhoCKQCwBOSFYt0BUhT8apMhb/0+B48a9EsJMImz3Kj2JHHfEWHcly15FR89cl7XEf64Qj2lYN7ceWSOVjRvo0QfoQ95bFi8Wy0eokoXN1oeybN4BiVCQvTUZ+nvs8XI8AIeByBZAB4wELlY0hBqqLkA5U/HYyz76ZtvmluGvlR/PdmTRtjWmqKr47kfU4e/M1LmmDPbp18+7gp/Oy+m7fh579+1jOkH4hZ4Oc//OoZHxaECeFHGBFWhJm2m4CwJEwJW3qGlhQIc8I+MC8VPlPQKtX7kb+vU5/nixFgBBgBHwIJAEBHgCqrwCj2vApKnsvwBrfDZ6ExIONE5T5UH+hnOwBQX+frFwRoJoR2Rg0FgLn17XcBAFwNAHsA4AAAvAwAdEDSpwDwjf/v7wHtTLsotO8/BgD6+zUAPA0Ad/n9LDYAAMVgGVu/7NoRANJ+eT1/YgTUQWCWqlsEq3p2ZeIJQzxslIQmZKtx6V3ZWVUDgAjrVHXUjC0lKQCAIfXRUE8HgJ0AcKielP8cQORWt92f6o2OIwBwOwCsqzc0RgBAoS3I8EsZgQAEyvyCaXWHiPg+OlSIp83VIDqridUJ76MliYQEJY9IpiA/rQP6txc+ZgLAIAA42+/o/JmNRB9Rr4UoFxkGjwPAxQAwBgByvNBgXEe1EKBpwoUA8JcQAqpXoKU9T2cNOIEMuIzeM1R2XLROmpxL6nN07sdij0z505Q6TeFf4p+y/7ckDFVo0//ULx28WW8I7KhfWhgPAHlqUQWXxs0IkPVJJ4T9TYUORRH6mFy9R65OaHOFwv9+6x895rpZMdVPnbeo10tnAsAzAPCTCvrJojKQQUB+CefUO3R2cnkbc/UUQYBOElwNAO9ZJOQhLW+aYlXR+9sJBMVlNM9wOv7aQRUOQnofANa4/ES/rvUzGpsB4Dd26iHF3n3c72g4mOM6KMKWLi9GHwC4DADetqMjULAXJjPzyIyx1Y/t1g0rQhqsFvSPdwDg8nqP8yoX65xSAFgPAFRXu3B2ynv/UL/DYKt/p4GLRYKrpgoCjQFgnH+Z4B4AOAYAJIS0Leb/zOiwHdu2YgOAdwMoJQMmRoiktWzqS5/7p33v9fc16nPU99x60da82fWOfM8DAE15O4WAVSrnrwBgRf2OB9r9wBcjoAwCtD9WqKO8+PDtShEAj5r1j5rdgtlzD94iJMv+vkB9gi+AVvURCrfUb9UjB0YZuHIeAP8EgH0unyXivuMgBCjYhlDHnDN1HBsAPAughAzMqhsjJMv+vuDlPfpx9TOHNf7AOf8V1Q2cPqJuJedBOv2RI0E6iDDdVtRsUa9dOm/9i7cOKUEAbhnJcj30z2L88TfPYXpaqqgB8A8AICdbr12JADC9fgmRpqpFMeT0+jCkWAOr6v1HMrwmdFxfNRAQPoXwwrXL2ADgWQBbZYDOMJBAXjQ966UrCQAW1a/xk/e6DPw4D+M4UpwXcrD0ogHqpT6nXF0ninZ+OiHwu49ftpUAeNSsf9TsFsz+9uExLGjUUAb5kEOfFy4KLkaOfRQrXwZunIc8HMnRlM5AYEPACz1RgTrSGtQXoopg17aNbADwLIAtMrBz6wYZBPTH+qA9NCJ2+zUZAN4V7e+c3nTDiWYEltbvNKHlGb4YAVMRoAiDQkq0basW+OMnr9lCAG4ZyXI99M9i/HD8VWzdspmQ7Pplf5OpPcz+zClwzwui/ZzTi+lJA/iRsVZrv/hwCdyMQDMAEI7ZvXvHhWwA8CyApTJAM08GlGpwGpL9Epd2cNp7vov38FtO3MEyJvr/swBQ4VIZ5WopgMCjooq0rHkJ0ojMiSPZ5KQkoQ5qpw/Etx8dEyp7SnKyI9vs++OvYIvSJkJ198v8Qwr0P9lFiK8/YpfOvafzCGRgZEkeSSlpmNu4JZZ2qsL2gyZhj/GLceDsc3D40stw7Nk34pQL78HplzyIs688iHOveQ5Pu+HoCX8Lrj/s+23Gpft9z45fdxPWnH45DpxzHvaadDp2rJ6KzbsMwLymrTA5NcOSOknE/1/+2AzpsoWF82MERsoQ1Osv2+BIMmmYmy2kDOw8HvmzN58WKntewxxHttm1W84VqneAvA93Wfdvr+Ix4gF4Y3x8go+Ey/vWYu+65Thy+XYfsQcTutn/n3L5Yzh6xdVYNW0lthswHgtadMCERLHBQGA9TfpMzptuk1mXdUHnVYeCgAgf7NGkuBC/fv+I4wiltEmxEJkcefQO2+r8wkO3CZW9eUkT28pudLboq/cOY3FhvlC9/cqZ9r6T7LvhSqmvC/kyUMQ5GdhIyyMlIwubde6PfeqW47i1u0KO3s0m+1jzn3/dCzh+3c0+o6Bl92pMy5Kyw0QalgFtuwcA8t0guFwHNRA4JUC4DAvs+jMXOI5QunZqZ7i+hNl1W86zrc7XXHqOUNkrO3ewrexGDYA1p88VqnOAnE9To+sJl6JD/Rn1vw6olyx8DOVDI/ziNl2x18TTceJ5tyNNzcdKwMo9d/0RnHz+Huw7dQWWdOiNCUnJhjAxqW2+BIBRwtLDGTAC/i0nn4gKalpqCv7u2GOOIpUp40YIdeq6sTW21Xfi6KFCZZ82YaRtZTdiALx75BFMTZGihD+qP9KW9sQ7+aLZizNFI3qK9nlKn5iSijRirj5tM87Z/qRzCT/IryDYIDn1qmdw2KJLsE2fUZic3kCo78nAHQAobPO19acPpjlZkLnsaiCwTIZQEikZUe52pTlvxSKhjtwgI92WpQ9abqF3i7QZRdGzC3cj7x1TM0iovgFYkZOck69iAHgqoD6ycIk5n/jEJGzRdRAOXXgRzr36WdeSfrARoP0/79rncfiSLT7DJzFZOBR1zLiHaXM6ppm2e/LFCBhGgKxICooiKoz44G1XOYZY9t5wmXB97XCApKUH0ba6d9cVjmmnfTdvE66vH6/P6j2q6ahbp16DZATwMio7eSWtsc+Us3DWFQc8R/oa+Qff5+x4CvvNXIONSstlyaiRfMj/4wynCjWXWw0EKD64EeE7IU3TxoX4l3cPO4JcyJM+Li7uhPLrxaBVi1KkrWlGRrVG0tDWQ9FtcPHx8WjnDgY99f7ynRewcVGBUBsFtOkCNbqa7lLQlP86GXE7ArCICVMa7bfqORxpa10w+fH/J25HnHDOLdi23xg7/QXu5CUB3X2LE/gRoJCoH+hVEKGeX3LqVMsIUQ+ZhHq2Y9tWMSnCUPXUvrvknDMtq+/mdWcIl7eiQ7ll5Q2FuZ7vTjtlsnB9/e30vkNDrOYAgHC8Dk1WY72nZmRjt9FzcebWR5j4o/gHBBtCtM2wW+08TMvMlSW7evKhHS4tmNUYASMI0PGgeoQt5LM0wnxq3y5HkMwZC2aGrIMeHMg5jbbl6SE2I88e2n8LUgAfPWUL9eyKxbNNL6uR+gWneeKeG5BkKVQdDHw31UiHsDlNmdUx/NOz87DXpGVITm/BxMb/nzjij4bHvGsOYd9pKzEjR8rWVT394K8AUGOz7PLrHYgARRJ704ByPUk4aSngi7cOKU80Rx+786SyG6l/YX4efvjyAdPqe/y1g9Kmwl954m7TyhlM4kb//+NvnpNW3/q46q87cN9/fwD4yogsGklD+96JrMjBLRqx8e86DYFrn/fFF8jIlbaUFYvOolDXpzuQg7jINiPQz7/FJBYhi/jMpNphyhMNEVS71i0j1iNWhdqpXWv86BX5RgAZFjKWKqgeHcrLHNEm40YOkdImflnua3Of0vv6OVYF9qHQuJVjFvCIX+c0vxEjiGYEKEaCxdsItzrQ+NXbX/h5yQhQtCkpCtgJRwZfeu5ZUupKmNFMgMzlgOf33+rLU1Z7bN2wQnkDQMYuhwC8bpfcN8zO7hxZBngABifJd1x8PLbrP549+i0g/mBjYda2A77zCcjBMlIbSfztbgCgiJF8MQIxIVAEAN/JEEBaH3/p8T1Kkw7tWsjJzpLWGWmdfsPKxUIxAsjb/8K1y6Ss+WvtSGcfUDhdo9PyVqSj5QkKKqWVWfD+PQDQvnknXOTpf7lgfWPCLb95e/bqt4H4gw2BqZvvxabte8XUZhLk4mh94KBGTugIXEY1EFgjQeh8wk3b1lT3Bzh3xULpHZFmA666eL0uQ4CC/NCBN6Jb/UK13fmr1A7+Q+v+zZo2ltkOK9XoSlFLQTtwpM26hWp7+i61QTYOmrsBT7v+CK/zK2AAaAbBkPkbkZwvw7WbxO9phwAbAWiaM70AACAASURBVFG7Iz9ACJBSIoGRIpg1g6vw75++puzokwyURnnmbNuhqH2TxwxHit//4sO3I8UfoBE+/dFn+u7qS9Yj+UyIRvgL114FjRoi7am3YhRv5B0/fvIaDh3QW4qs+TEgx79EB3TlZAB4JFy7yfq+rMcwnHX540z8ChG/ZgDQncIol1fVypT/cHn9FgAKHNAvuIgKINAFAOg86nDCpOv7MxeeoiwBEWndcPn5uuojCxcr8tm940KlsV82f4ZM7CkyWoUC/SdaEUwnf/Lurzn9MiZ+RYk/0AigzyOWbUMLdgu8DQC0zMsXIxAVgc0yCWrHReuUJaJ//P517NO9s0wiUiKvfr26IdXNyMjcijTbNq2RjdPGqFJt/wNE/g/L7FvBeZVWVCEFpQkmGf5f3zY+q/Gac+WTvuiLwe0p+f/3AKCx/d2AS6A6AuQ9ShajFCWdkBCv9HkB7xx+GLMzlTjtSwre2VmZSCfpWUHkRt5x3+4rkWRClnwBwG8AgMhV5YuW1x6SWOcT8EtMSvHFp7eauPh9cg2LgXPOxaSUtBPaVrLMUHTMfJU7CpdNDQS61cci/3+yhI/WuWl7mxHCsCLN3TdsNbPTWZr3PTderizOzz14C6anST1N7ScA6KxGlwlbCvL2p5jtpshBVn5TnHjubTzqd8iUfzSjacqmvUiHMJklLwDwGgBkhpVW/oER8CNwlkwhpFG2ytsDl592ipmdzpK8Vy6Zoyz5v3Jwr9Stl37ZpGOtVb+2yexHgXnRlP/sKw8y+buE/DXjgAIItekzykyd8RzHCVBdbdhfPhq5PBaocEQ/k9f9m8/epyRJ0Zr5rLoxZnY6U/OeOn6Esrsu3nhmH+Y1zJFdf1pPJxlV+Vov2mdCpo+L80Xz4+19cqfgNQJW5d67bjnGxyfI7jdafvsAgELB88UIhEWA1ov+GFIJGZzSLCpopKwRQMf8jhhSpXUQx9xHVfe39IhiPcsyRP7U5jJlCAA+B4C8sFKrxg+nmhHhLzE5FatP28yjfpeN+sMZHaPO3GFmKOHr1OgqXAqVERggc2sgEQGNBo8duEvJmYAfjr+Kc6aOk01YpuU3feIoZcmflnxMGPnTlj86v0Lliw72oXJKbXcKHjN+/W4mf4+Qv2YUTD5/DzZoWChVlgJk8wyVOxKXTQ0E6JQpqQJI3up03K2e0aRVz9JywFmLZkmtr2z84uLikNb8Vd3uRw5/Ju2uWKxGlwhbCjqb/S+y2zu7oASnXXQ/k7/HyF8zAmZufQQzi8rM0En/BwDVYaWZf2AE/AjcLFupZaSn4QO37lDSCCBjY99N28xwXBPuxFkNMnDPzi3K4kZb/ahtZcsLANykeG/MAoC3ZNe7UWk57+/3KPFrBgDd+6+8F3NKOprRr/5av1OlTPG+xcWzGQGKD3BMtnKjPeHbN69VlsxoT31Vz65mdDpDeVKQn/eOqrvPn4L8SN7nr+H0kuKey+SQKH2vf3HrLjhnx1M88mcDAAevfxQHrL4f88oqtT4h8/4OAJAByxcjEBYBCid5XLYRQPnRNjxVzw6gafabt2/C/LyGMjucrrxyc7J8hwapOuVPsf0lh/cNxIdkTvVQptIO09L6V3Gbrjj3qmeY/Jn8fTJABgD9DTx7P+aX9w3sH7I+kwGr+s6asOTEP1iDQCsA+LOmpGTehw/qi3/67SFlZwO+ePt537G/RMYy6x0pLzrSl071U/lgHzrVb9jAPmZh8jUAlFsj2obf0ke2o2xRq854KpM/Gz8Bxo9mANB90Nr92Ki1KUcLs1OgYTXgnYR9AeAfkYjL6G90LC6dEW+Vw5+R93z13mHcumEFtm9jilOOj0g7lJfhZeevRHqXkTJalYY8/SUf6RtoSPwdAHor3q0KpW+VbdUZ5179LJNfAPkFroV79XOgAaDNBJiwHEARYLsq3ue4eAogMB4A/m2U6COlS0tNwRuvuEBp4tMI9uUn7vbtGKho3wbj443HuKe0FR3KccXi2cobQFrdr9tyHqamJAcStszP5J08RgE5j1QEmi49GEmW9f6W17QV0uEwXiU5rnf44EbBBoDPCFjzAOY2q5DZ7ygvOjOgQSTB598YAUJgillGACnOcSOHIE0va4Sj+v3zXz+LFIv/gtVLkCLzdatojzSjQUsGyUlJvj/6TN/Rb9MmjPQ9e++uK5DSql4/rXy0FFI3tka20gnMjwzLUxzQxWi6NLDcQp+z8psgbfdiEgxPgl7GJpQBQN8NWLUPGxS2FJK9EHJ8qwP6HxdRAQTmAsB/QgiQFIFs2rgQD95zo2PIUSNJt96fuOcGbFxUIKVtw8gMydJsBeQ6WhHaAgAtUUjBIjUzB6du3sfkz9P+YWUgnAFA3/c943ZMzZbeL2mAxxcjEBWBhWaEPdWUK02PL54zBf/87otsCHz2hi0YkBPiaadMFlrm0Nozwv2/ADA/qrTZ/wAd70unqkkh/4SkZBy75oawit/Lo16u+y+zIZEMAPqt18KdmJiaIUUm/bJNAa0a2d/duAROQIAitJk2E0ACSbMBKgcOcuuof9/N28we9ZPSItk5zQmCXl/WDbLIH+LicMiCTUz+PPKPKgPRDAD6vfPUTRgXZ9wXKYRc3+WQPsnFVACB6bK3Q4UQSJwwaii+/9KjtoyE3UryoepFQZDG1AySOaIIlxfFzZ+qgPzGUgTakvhTKLk08l232nlRFT+Pgn8ZBXsZi1gMAHqmVfWCcP3M6Pe1sXQMfoYRIARGyVwbDadUaafAuuUL8Ov3j7AhIHlZgLYerjl9rpke/oGK6EcAGOGQrkNe/4fCyaTe70s79cUF1x9mA4BH/zHJQKwGAD1X1Kk6sI+JfqbTN7Md0ke5mAogQKeh/U2vQjTyPDmk7dy6QdkT8UKNrFX9jo5DvnbLuVhcmC+qMGJN/w0AUEwJp1zzjMhoqDSZjRrj7CsPxqT4vTzq5br/MvuhxwCgkMEZ+c1j7YexPLfTKZ2Uy6kGAu0A4ONQys+M71o2a+oL10shaVUlWFXLRUcg79q2EZuXNIlFEch65kMHRPgL7El5AECHpgjXn5z+Jp57K5M/j/x1yYAeA4Ce7bXwBkxIThWWV7/M09bcisAOwZ8ZgWgIkAfpizKUZqx5tClrhjdcfj5++9ExNgSiLA0QRjR70rplM1lKItZ8ngcAIlQnXdfGKoPRnusz5Sxdip9Hwb+Mgr2MhV4DgJ5vP3Z1rH0ylueec1KH5bKqgUAyAFBQiVgETNozdHDPuSsWOiqQkFUzBLSl7/KNq63w7A/VnncDQKoaohlzKWg2618yZLhp+1542vVH2ADg0b9uGTBiAFCawg4DQ/VDo99NjrnX8IOMQAACZwIAeXsbFTxD6ehc+tlTxuKh/bd4fkbguQdvwVl1YzA9Tdq0oJ42obZ36kEjT8iQ27TMXDzlskd1K34vj3q57r/Mfhg1APqvuAdTMhvp6auRnqWTOZ1mwAfQEH+0EwE62OUzGcrUSB7tWrfEyy9YhZ+8/qRnjIHjrx30HVzUtlWLSJ3a7N8+BYCedgqewLtph4IUfIYtuoTJn0f+hmXAqAFA6bpM34wAcVLkuH4gt16gP3FSjyNAa78HZClVI/lQZME+3Tv7psE/feMp1xkDdH7Czds34ajq/piYmCCr0xvN5zEAaOhQmadtf28akbHgNC26DTas+HkU/Mso2MtYiBgAlLZxF2nnd9AOr1yH9mkutgIIxAPAapkBVYIVbqz/JyT8zxigA3yOPnYn/v1T5+0ioDIfefQOPH/VEuxVWYFUp1jrb+JzFCxnBQAQiTr1miQDn5SMLJx5GR/y42XyllF3UQOg/4q9mJyRK0s3bHRqp+Zyq4NARwD4lQwlKysPch6cVDsMr9i0Bumse9oiZ5VzXqzvoTKRsUKOfBNHD8VGedI6tSzl8AYAtFdHzAyVhIzUt2XI1YBZ63n0z1P/wjIgagBQ+g7j18rq4986eGbPkELgROYgQLsELjbzWGERJd4gIx37967EpXOn4XVbzsPDj9xhafRBisr34sO3+95NZaCykGOjSJ1MTPt/ALC5vj3psBynXzNl4FTQogNH+2PyFyZ/mkGQYQBQHg1bdpOlPy5yeifn8quDQCUAvC5D6VqRR1FBI+xd2Rmnjh+BZy+bh9s3r8U7rr0EH797J77yxN1IcfRpLf6Ltw4hkbg2uqfP9B39Rs/Qs5SG0lIelBflSVP59A4r6iLpHa8CQDd1xEmoJDT6f08UFzqUZfz63VKUv4wpZM7D2b4EsgwAOjUwLj5Rhm75nk8LFNIznDgIgQQAWF6/dvydqPLl9HI812PAkaYCl9WP/Knt3HKNi6HeURVo2/7jmPx59C9NBmQZAJRPSY9xUeU3xj5wvls6PddDHQQaA8C9AEDnw8sSVM5HLpbUNnsBoFgdsZFWksOicpeUksZ7/pn8pZG/zCUAMgAoNkBSWpYMnfglAKRI63mcESMQgADtHbc0lLCo4vdI+lcAgA58cuNFMiesGLuNnitV+fP0vbOn72W0n8wZAMqrbMg8YTn39xU6JIsvRsAUBGgb2RQrDxaSQQAuzeMjAKhz+Na+aEL6gGjbpWbm4JwdT7EBwDMAUmVAtgEwcM0DsiIE/tblOiGazuDfLUCAdgvIslg5H2NYUhu4+WoqYzdK78lnSFX8MkaPnIfzZxBkGwCUX/nI02XpwmFuVgxcNzUQkCWsnI8xA0ANKTCvFBTcREg2aPQ/96pn2ADg0b90GTDDABi0dj+mZhcIyby/zzxqXrfknBmB/yEgQ1A5D+Mk52Y5pF0Mvxc1AHqMXyxd8fPo/X+j9z5TzsSa0y/DmVu9GVXRDAOA8mw9fJEMnUgxQMh5my9GwDQEZAgq58EGQCgBFd76l5zWAOdsf5INABNG/4QrxP1ymE16dh6WdqrCbrXzcPhSbxgFZhkA5AuQ3KChDL24NlTH4u8YAVkIyBBSzoMNgFDySIcWCclGlxGzmPxNIH+aARm94uqobeN2o8AsA4DybTlodlR8Y+gf74fqWPwdIyALARlCynkYJzpZ7ahaPvkA8K8YFFxY2YmPT8AZl+5nA8AkA6DXJGPOaunZjbC0ogqrpq10fNuYaQDQQUEJSSlh5VtH3+irWufm8rgHASEBVeSUPKE66OiIJ7xHUt3dI0kn1mSJUVy1dC0rhziCYE696hkcOPscR5Q10PehZffqE+RZwz3Wu13tQ1gT5oF1MfrZTAOA8i6uGCaEsb8tbj6xa/F/jIA8BIQElOLv795xoe8EvcwG6UJ5xap47Hwuq0GGr65UZ6q7hLLIa0m1chIONjVm9U4pSt4oOcSSjnYnFLfp6pODzjWnKF/ewDpl5TcVkt+eE5daXl/yT6A+V1jWCU/d8bTw+802AHrMu0oIY79++cYlh4GppaG4ND4EhARUO5CH7t99/DI+ee8uXH/mAt+hPomJCUJ5SyBX4fdTHfp07+yr01P7dvnqGFhnCWV0oxiWioaczilqJqzcA8nOjM+B5K/JgVOMgGAHQK38eu6jzrrK0jbSyF8rowwjwGwDgPLPalIurIcAoMaNioLrZD8CQsIZSIbBn//y7mF87K6deP6qJThiSBXm5kiJky1UXk15hLs3zM3GkUP6+cpMJwpSHYLrFfh/uHx0fG+/BMgvwSod9Q/ZnrQ+bQZpy8ozFPlrdXaCERCLA6BWn5D3uDicve0Jy9oomPy1MokaAVYYAJICA90ov5tyjoyAcec1n+IOJMNYPr//0qN4/y3bcdPZp+Ok2mFY0aEc7Vg6oHfSu6kMVBYq0++OPRaR7EPVT1NEAnc3yuDzAnhgfEKi0of+RCJ/rd6qGwG9JhpzANTql5XfxHby18oiYgRYYQD0X3mPDGdAOiDITaeDulHvObJOIUdgWueKdg9Fika++/2bT+Oh/bfgHddegpdvXI0rFs/GGRNH+2YOaAq+Q3kZNm1ciDnZWb6/lOTkn8tNn7Xv6Rl6ltLQrAPlsXLJHF+ed153qe8dn735tG6iD1enaPjE8LsjhSZCoRsCAAUw+bl99H5uVtHPMnLROyMQC/lr9VXZCHCKA2C4kb+GsXY3agRYYQDQOwo7DDLcH7Q6AsCACP2Of2IEDCEgJJjhiNEr3wd0TqM4Gmo0hRPNFMVk8LwLlDQA9JC/hoGqRoATHABjJX8NayNGgFUGQMWUC4zqh8B02xXu91w0hyIQKGC6P3uF6MPVU1M+AneHik3YYt8rgAUmJCUreeqfEfLXcFDNCJDhAEg+BHpnT/Q8r5f8Naz1GgFWGQB0PkBSWqZu/arVy39/O2yv4x8YAR0IUHzpxQDwZJCA6RbQcMTole9F8fO3AbWFG2J+xwMAbVnSLUdamhZdB5lKLHpISHtWhPy1eqlkBKjuAGiU/DWs9RgBVhkA9J6iTmJxF/w7a4p16Hl+lBH4GYF2ALAOAF4W3aKldTS6e4Xow9UzEAvBz/8FgFf8bURt5cSrqyAGqNr0vwzy1zBRxQhQ2QFQlPw1rGM1Aqw0ADpN3mDYMNbqBQC0xMYXIxAVARqN9QGALQBA8aRlCN9Jebz65D2eNQKo7mbh6m8zajtqQ2pLJ1wrRPCIi4/HWdsOKDMDIJP8NVxUMAKEHQC7V5vSRrLIX8M6FiPASgNgwOr7MT7xF+dlrZw677c4QRFwGe1BIBEA+gHAVQDwuU7BMkRmqSnJeNOVmzxnBNBuhYz0NEOYGWiXrwDgDgAYAwAp9ohWTG992EDdfsawsKzCFGLRpvL13CnUbFGrip/LJlKv4LQDZq+3tZ60hS+4THr+pxkEPVjG8ixhoqcMsT5LbRgpbLCVBgC9q2HLStF60vHafDECPyOQXT9anAYA9wDAd7F2DNnPnbVoFv5w/FXXGwJUx+WnnSLaiUXSUxuTox21ObW9KhftURZa/+8xbpF0YomFfIKfMWPkr/U3MnJkhLANLnOs/6vqAGgu5uHDBlttALQetlCk72tpW6rS6bkc9iCgOfEdBIB/asrF7nvvys7460MPuNYI+NVz92OvSnNGhQbbjtqeHDlVcCKsMFgHTanh+HU32W4AmEtE9pI/GQkqOwCai31oI8BqA6D3oht/lneB/kLGP18eQ4CsvjMB4AgA/EdAeGQIYNg8aEng3BUL8fvjr7jGEKBR/0Xrz0Cqm6q4+8v1Tn2f2AgAlTb0jfki2CSlpOH8nS/aagCYS0D2kz8ZAHSAj0g7UfyAWGcbjDxnbhucbARYbQDQ+1IaNBRqAwDYZkP/5ldajAA5fvU224lPRBlEStutoj0++8BuxxsBT993E3bp2Fa0w9qR/ncAsNVCJ8KdkeQh2m8lHXqbSizRyMhc4lGD/AkDOsI3WltE+p0cCKNhKfq7uW1xohFghwFQ0H6AUBsAAJ20yZcLESAHrxEAcAMA/ClSR3TKb6Oq++PrT+9znCHw2lP3+g4FcgrOUcr5BQDQYSIjTXQipC2MhhVbj/GLTSeWcMRkLuGoQ/5UfxUdAEO1i7lt8osRYIcB0KZmieF+4u9jP/K5AO5hfyWc+ESUd7S08fHxOG3CSDz62J3KGwJHHr0Dp44fgVTmaPVy6O/f+50Ip0t0Ikyuj1/w/0TwGL3iGlsMAHOJRi3yV9UBMJQBQN+Z2zb/MwLsMAB6zL9ahm7p5B4K9F5NlHTiE1HgsaYlJzraQqeSjwCV5fZrLsae3TrJ6JhOykOWE2HnWNs/1HNxcfG2hP81l2DUIn8i1FFnXSUmmxYfAWyFETBg1T602ggYtPYhGfEAZnmPNp1dY0c48YVS0GZ8R6f30Ul9dAzvdx+/bPnMwI+fvObzUTh97jQsaCTslCOmWAWmziW3jVEnwqki5cgtbm756N9r5E9kqroDIJUx1J+ZbZXdtB3aYQRkNSkX1RkXOZsO3V96RzvxiSh0vWmzszJxUu0wvGLTGjx24C5T4gmQJ/9Lj+/xvWPi6KGYndlAtAO6Pb0eJ8Lz9bZ54POte40IqfhDkYGM78wkFLv3+UfCxwkOgOHKb2ab2WEENKkcLao/7nM/hTqvhq5z4gtU1FZ9bpCRjv16dcM5U8fhhWuX4Z6dW/DFh2/H3xx6ED965QB+8fbzJ80Y0Hf0Gz3zwkO34Z3XXYqbzj7dl0dVz65IeVpVfhe+J5oT4V0idbbSAdBMIlGZ/IlYneIA6AUjoHzkMlF99Fvn0aM7S5zuD9FKoVq/FVGEnNa4FzljZxl2f6+PM/AoAMwGgBx/l35DBP/hS7daMgPgZfKffeVBhLg4IdIx+wjgcMQf+L2ZbWjlTEDXU7YItQUA/MQ7AewzKFznxBcXB9i9TQ5unF2Or183AG9e2RnTUxNEhdTz6QlDwpIwJWwJY8JahDAVSqs5EZJRYLhOUzffa7oBYCZxqD7yJwKV4QA458onTW+nQLIP99nMtrTKCOh31l2G+0tAX2thHwV6781tzThON6AxZQiErjySE+Oxumsj3L6kA/7u1iH4/cMjT/g7dnU/bNU4Q1eedtZHtXcTdi9f3e8ETAljwpowJ+ypDVQrt5XliU9MwgU7D5tKLGYShhPIn4jUqQ6AbjYCktKyRPv+EO/RsLU17lD/OgqtSt7Roo2lRPq0lAQc0aMAbzyrAj/fO+wkcgo2Av50zzCcUFWkRNmd1AajehbgH+4eGhXfP+8bjveeV4nTBjfBrPREz+FM69LhlLyM75n8/+dZ72QHwHByYGbbWjETkNVYeCfATGvp0P1vc6UTX1FuCs6rKcEHL+iOX91fE5WUgo2A7x4aiVvmt0MyHpxEwnaUlTC67LT2SJgF4xjtf2obaiNqK2ozO8pv9Tsbl1eaZgCYSRBOGflr5Ol0B0CtHsF3M9vYbCOgoG0/0T6+2v2UbH4NXenE17woHRfXNsMnL+2N3z40QjcZhSKrt3YNwsFdGokKrWvTV3VoiG9eP0AK1oT/K9f0x/XTWmHbEvduWSzvW2uKAWAmMTiN/OU4ANoTqTGY8EP9b2Zbm2kElPQcL6oL+VAgg/aB6534QhG4jO9oZLtzeSfMaZAkKryuSZ/bIAmvX15haNQfa5sEOhHGC3pzWz3Kj/S+bqPnSjcAzCQEp5E/EaabHABDGQD0nZltbpYR0GroAlEduNcg/3kyWaATn7LH6UZSlsG/RXPii5VcjDz34W1D8JTqppgQL7a1KLhOTvo/MSEOZw1tih/dfrIDpRFMY03jJifCvlNXSDUAzCQCJ5I/kaPbHADdYgR0GLdG1AB43pNMHmOlXRmJLzM9ESf1K8ZbVneJyYkvVlIx+txr1/XH8X2L3LS1LWqnpG185Bj5xk550/1G8f/j3mE+WSCZINlwkgFFZR0yf6M0A4DJP3QoXVEHwLLuQ6W1UTjylvW9mTIgeyag87TNov31rRi50DOP0alkrjpOl5SkqBOfUXLRk+6FbX1xSFf3+wcM7ZaPh6+skrbOrwfjaM9+/YDznAhHnblDCrmYqfidOvLXSDWzUWMhouk16XQpbaSVx+y7mbIg0wjoPne7ULvUB+M67hlmj1DRLACYBgD3AMB3ThsBhStv6yYZuGJSS3z2sj7SnPiiEYiM3w9vr8LZw5piWrJ7dgyQZ/+pw0vw6I6T9/TLwMyMPMjxk2SHZIhkKZyc2f39+PW7hcll/rXPY3GbrqbUsahVBZ561TPCZTSb9MLl73YHwHD1pjajtjNDvnNKO+LAs/cLnyLYZ+lu0fL9OQIvuvqnfH8oUgpJKnQOuRkCYjRP8vYmr+8Xr+yr5AhTD1FRjIGrlnbE8qbO9WBvUZSOm2aX46d7ou/n14ONHc/+9saBuHVBO+zdLhdVciKs23i3MLm2HzRJVJGGTO908idy9IIDoB1GQNPKWmEDQEI0wB9dzfJBlWsEAEsB4DAAsBNfUNQ+O0gllnfSSPSJS3rhkjHNsWl+WkhFa9RgMiNdSUEaLh3bHA9K3D4ZC05WPqOSE+H0Sx4UMgAmn78H4+LlR1N0+rS/Roo9JywR6nPZBSVC7aOVw667WcsBcXHx2PO0nUJGwIBV9wm1DQD8FwDI1821VxoAULSjxwHgX2YofKvzVM2Jz0rioS2E5CuwanIZdmyeqcRIlHYxdGqRiavrylwx86K3PcmJ8NY1XXyOpXY4Ec7adkCIYDoOqRNVoieldwv5E+l6yQEwnJFhlhFQ0mOckAEwaN3DJ8meAT5q4Eb2L6y3bC4EgK8MACIDVKl5OMGJTy9xyHieyGf/xh6+ZQ8KMNQgzXwvdiI5ehcttTy0sQdSGWTUxQ152OFEeOqOp4UMgNzi5nL7qsPX/INJ0GsOgMH11/43wycgI7+ZkAEweP2jGBcvrPNy3WQAtAeAm92wru9UJz67iez9Wwb7lgwo2NCaujKc3L8YB3TKwy5l2VjWOAMb56VidsbJQYjoO/qNnqFnKc3kAcV49pQyX5AemtIPdeCR3fVV9f2BToRtmprnRChqACSmpEozANw08ifi86oDoEb6wXfZMwEJyWnCBkB8grABQE7wjr+aAsCNAPBvJ4/43eTEpyoxcbn0nzEgAzOznAhFDYCkFHl+JYVlnVC0PMGkY+f/tMVSSJ/GxaEqRwDLwFG2AZCYki5sAJAvgVAbAWQ4mf1zAGArAPwkCIIoiIbS2xmJT4ZS5zzsIVOn4/7BbUNwx9KOvuOMRXcUzNnxFC8B3BA6gI8o6XndATAQP1WXAACEI6mSn5zjrjgAWAQAXzuN+L3sxOd04uLyyzd48rOTDRnPWr8XdwKcIvR+rRyBd7fMBLAD4P8MK9kjf01WSnqKOQEOXv+IDNmlE2wddTUHgGc0EJ1wz8tK9p3XTue2GzlOl4lHPvEwpmpgWlogNgU/49L9QjMAUzbtxfh4+UGn3GAEsAOgeYcESdkGuPp+GQZAolPYn/YrLgcACl4go+Km5sFOfGoQDBO92u0gelQxEXjgVK2Rzx04ENBJGLID4FFfBEezogE2wNcKpAAAIABJREFU7T5GeP2/avmdohz2fwBAs+nKX7St7zmViZ/WMru3ycGNs8uRjl5l4lGbeLh91Gifrq2yhZTYxHNvPYm89BoBHAr4ZB8CrzsAmrHmr/FXTmknHLRWPBRw78W7hPqOf5u88uRfBQCfa+CpdGcnPjVIhMncue1Q1aGhkBIbveJqYQOADAaz1nlJXzlxOcDLDoBmyoLMw4B6zLtKqO/UB8n7UHX2pyl/pSL4sROfc8mGDQX12m54Zb6QEqtecKEUA4CNgBNnAbzqAOgU8qcgQF2mXyTUdwDgVVUNgCQAuE2V0T5H4lOPOJjM3dEmM6ubCCmxvlNXSDMA2Aj4xQjwogOgk8ifDID2Y1YK9R0AeEpFAyAdAB6zm/zZic8dBMOGgtrtSMcNi/T1bqPnSjUA2AiQEwGwduW10tuF2sasP6eRPxkAZUPmCfUdANinmgFAcYmPiigEo2nZiU9tomAid2f7XDq/nZASa9N3tCmkYCYhqO4T4DUHQDPbWuaaP5F+4F9JrwlCfQcArlXJACgCgLeMEriRdHFx4DvffNuiDhzn3SHHA7Mh4C5DYPeqzkJKrHF5pSkGgJdnArzkAOhU8idDIL9tlVDfqY+gu1YVA4BG/r81QuJG0rQoSscLZrXBd24axNv1mPhZBmyUgUcu7CmkxGit2qxpYa8aAcIOgD2GmdomstrbyeRPBkBmUZlQ3wGA6SoYAHQYwTEjRK43Te92ubhnXTekk8p4JOmukSS3pzPb883rBwgpsfjEJFyw87CphGMmUai4HJDZqFioTXpNWmZqe8gwAMxsUzOn/QOXABJThE/ZpC32tl4Uh5g8EYUELlr6vu1z8emtvZn0bRzpMUE7k6DNbrevH6jBhHixA02mbr7XdMIxkzBUMgJkRABU3QHQzLa0ivz7nXW3DM4ssZP9KQTh3mjkLfJ7edMGuPecbkz8TPwsAwrLQLNCsfMAhi/ZYroB4JXlALc7ALqB/GkWoNusraIGAIUBTrDTAFgjQu6R0qYmx/tC8n7zIE/1mz2C4/x5ZC8qA4O7NBJSZj3GL7bEAPCCEUBYRtKt0X7LLiyxrC30LgW4hfzJAGhTs0SoneyOAjgUAP4dTZiM/N6jPAdfu64/j/gUHvGJEgand5fRsWBkqZAya9VzuKWkYyaR2L0c0KLbYKG2KFPUAdDMNrNq2j9w/b9x1xFC7QQA++0a/dNxvl8bIfdIaWgf/7qprfBv+3nUzwTpLoJ0e3uKxgLIKWpuqQHg5pkANzoAuo38yRAgoyMSH8bw24V2GAB09jDFHxYt/Anpcxsk4f3nd+dRP4/6WQYcKAOPbhbbCkhnq8/Z8RQbAYKR8tzoAGgm+ReWVeCAVftOCM4TOEo36/OgtQ9hQlLKCRxogFOn2GEAbDBQ0IgVbd8sE9/axfv53T5K5Pq5d1bjs7uGIgXlEtENo1dcY7kB4LaZALc5AJpN/qfueNpy8iejovvc7UJ9xd/P2lltAHSVfbJfr7a5SMqDycG95MBt6422Fd0JQNHr9DqFyXreXKLphEQ0ssoaKR83OQCa2yYVP7eJWaP8SPm2Hr5I1AD4fwBAs/GWXbTfX2qkPzpG9M/7hjP5O3DKl0ndG6Sup53H9ikUUmolHXtbQpLhCNRcwrHGCHCLA6C5bfEL+ZMsRCJqs34r7DBIqK/YcQzwRpHpveC0wyrzkQKI6FEw/CyTDsuAujJw3szWQkotKTUd5+98kY0AAT8ANzgAWkn+dhkAKZli22YBYLtlQ38AoGhD/wgmcaP/U1Q/M0f+L1/dD08f2xzblTbAjNQEIaVktI6cTmw9mPHzJn7j1u6y1QAgQjCXgMybCZi97QmEOLGIjHZHADQX+xNH/tpMkFmj/HD59lq4UwYn1VlpAOyRpZArWmbh53uHmTLypxmFhaOaCYcllVVXzsebJMbtbrzdu49baLsB4FQjQIoD4PYnbcPfDvK3Ywag9dDTZBgAja0yAHoBwH9lKLX87GR8d/dgU8j/L/fV4JCuwtMqMhqG85C8RVSG7HEexknZSuwoiI42MrP7fupVz2BRqwpT+vOA2eul19PpDoCEiRmyRm1IbRlOnsKN1M36Pq9VD9F6HreK/Ok9R2U0SmJCHD5+cS9TyJ/WhZeObS4KKqdn4mYZsFkG4uLjcdYVB8Iq63BK3KzvzRiVVtbON6V+bnAApJ0gMvhGy4P2+UfbgWEW0YfKd8Dq+2Xs/7/TKgNgmAak6P2SeW1NI/9Xr+0vvAdZtH6c3hkjTG4n9dtp0KnnmUKQRo0EmUaAWeRPdXODAyDVQ5YREAv50/tCEbVZ33WadK4MA2eeVQbAMzIU5uDOefjdQ+Z5Ly+qbSYDVM7D5tGfDFnjPNQn+Ght1LzrQKUMACIJGUaAmeTvBgdAwln7EzUCYiV/qw2Aok5DRHmGluOLrTAAekTrqLH8npWeiO/ebG6Uv04tMkVB5fRM/iwDishAYlJK1GlbjSisvIsYAWaSP2HgdAfAUO1o1AjQQ/70XrNG+8H5Dlq7H5PShLnqTSvIn95xfywEH+2Z687oZNrUv7YnPJ23+jF5KUJe0foD/x7bDMXguef/PBoMRQ52fWfECDCb/AkLpzsAhmtPvUaAXvKn9wYTtVn/V9SdL0NPX2SFAUCn/f1HVFn1bJtj6tS/ZgBkpifKAJbzYBJlGVBEBko7VSlpABBh6DECrCB/KpOoA6DVxzGHI/xQ38dqBBgh/wXXW2cAFLQfIEO/VFlhAJwvSv50MMhzl/cxffRPRkBpQZoMYDkPRZS/qOxx+thG2SrjFJ+QiKdc9qijjQCryJ9IMzOvWEh/9Z58hrJYU/2iGQFGyJ/ynXfdEUtmAPqvvBfjE5OF2ggA/goACWYbAHEA8JGocqgb0NgS8icDoH/HhqLAcnomf5YBxWSg58SlSpNSpJkAK8nfbQ6AoWYBIhkBRsmf8jz12sOWGABtRy2XoV92m03+lP8AUfJPiI/D39440DIDYGZ1Exngch6KEYCoHHJ6Z88EZBeW4mnXH3GcEWAl+ROJudEBMFYjQIT86R2zr3rBEgMgq3G5DH6hbfmmX2RlCBV28oBiy8ifZgDWTxc7hES0vpxeTF4YP8YvnAzUrrpOaQOASCRwJsBq8qf3izsAliqPcaBBoC0HiJI/5Tlt2yHTDYDuc3cI8am/b3xpxfQ/rS98Ha4zxvr94e1VlhoA1y83J1xnrPXl55jAWAbMkQFybgtU/qp+plCzA2efY0tZW3QVO1pWZQfAcO1NWEcK7xsuXfD3E7c8Y7oBUNx5uAwD4GrTh/4AQB6GQoUd3KWRpeRPMwAUYli03JxerN0ZP8bPDBmg0MDTL3nAFmINJgtV/+87bSXSron07DxDerDXpGWexbd285OmGgD9V+zFhKRUQ+0S1J8s8f6/OOilugt+y+oulhsAb98kZgGL1pnTM/mxDJgnAxXDpnuWoPQaHTO3PIzDl16G3WrnxWwU2H0EsN46ynv+CA497zFTDYCWA2fp5tAQuuQTACDnfNMvijJkuMDZGUn45/uGW24AfPPgCKTDhkTKPnXqNFyw4DT+YwxYBiTKQHV1tVC/pD6dnN4A59h4TK08wvkl1K2VeUY0CuLiPIvt7KtfNJX8B655AJMzcoTlHwDOMZ35/fGFhY79nVdTYjn50xIA/YnGAhg9upYVv0TFz8YUG5MkA/Pmzcf09HRhJdh93EKeBQiIlS9qQGhGQZ8pZ3oW17rLnjXVAGgzYqmw3APAPwGgyAoDYLLICJrSPnxhT9sMANFYAAMGDGQDgA0AlgETZKBr127CijA1I1uK05cocXJ6e2YxzMB9xAUHTDMAKO5/ak6hsNwDwD1WkD+9Y4uIAUDx+L+6v8Y2A0A0FkC3bt1Y+Zug/HkmgGcCpk+fgXFxYkt0pJt6TTzds6NVMwjQy3nOucbc6X9Jo38yIAZaZQA8LWIA1PYutI38fbEAprUSsrbatGnDBgAbACwDJslAs2biR3anNsj27Hq1l8najLpPuPRp00b/A89+EFOyGgnxkZ+L37PK+Y88DCnOsOFCb1/SwVYD4IYzxWIBFBcXs/I3SfnzLADPAowePdqwbgnUS11GzuZZAIm+AGaQq+p5zt95BKvPNc/7v/XQ06TIOgAstmr03yKwkxn5fHRHP1sNANFYAJmZmWwAsAHAMmCiDBQUFAgrxsTkVJyx5SE2AtgIMCwDk7aaF/yH9v0npWUKyzkA/Kl+WT7VKgOgxgjpa2nSkhPwrw+OsNUAEI0FEB8f7/NY5tEqj1ZZBsyRgaFDh8lQjFjet9aw8ld9dMrlM9fJcN51h00d/Zf0GCdFxgHgbKvIn96zUCNzI/eebXNsJX/yAeBYAOYobSZDxlWmDOTm5goryLi4eBy3dhcbATwLoFsGxl70lGlr/70X70I6xtoIhwal+RYAsq00AC4KKoCuSswfUWq7AcCxAJioZBIV52WOPNF2WxFdo6XNb9YWF1x/WDcB8Ajb3BG2yviesuMFHHzOo6YZAHlllVJkGwAoIq+l1x1axzJy3zi7XAkDgGMBmKO0mQwZV1kyQIGBsrKypCjKfjPWsAHAswAxyQA5/g3b8Lhp5N9h/FopMg0APwBAgaXsDwDPGyF+Lc0tq6yP/08j/uA/jgXARCWLqDgf82Rp8OAhUpRlSnomztz6SEwEoPLIlMtm/qxE7eaDppF//5X3YHKDhlJkun7b3yaryZ/e95ZG5kbuT23pfRIZB5OzFf+vn95aqBE4FoB5Sp8JlbHVZGD+/AWYl2fs5Lpg/dSsc382AHgWIKIMTDY55G+TriOFeCdApv8CAJl2GAAfBxRCd2V+e+NAJQwAjgXAJKORDN/VloWamhG69Uw4HTV43gURCYBH2OaPsFXFeNq253DwevP2/HeediECiEe59Mv2GXaQP72T9hwa7pAf3jZECQOAYwGorfSZlLl9AmWgqKjYsM4J1FcUIXD2tifYCOCZgP/f3rXGxnFd58O3+JJIig9RD0qkJEqyRFIkJZKSKFKURD1CiXo/KIqiRUmOE8OxDTt2lDiOYTutY8DxQ7ZVOE3TtKndNg83NmrUjQOjsVMgKVoEDQKkBZq0rv+0TZu0KdqgCXKrs+ZIw9Xu7MyeO4878wkQdrkzs3vvueec77uv787xgTNPvaV2+rjoj/f8l1XrGckiIu6El4ZFAH5qDyiv7997eTQSBABaAAAYO8DgfbT94fDhI1rOCOB8BYXA5PbyM40+nH7SX/AfufyaalqvZ0fLLN5OhAX+/Lt85GDebPwnXw3vECD72gJoAUQ74QOQ0T7pPrBu3bq88449Z5WUlauZK2/N6QFmAgZ8FnOicPXbKjXn72PPn8F/3djdWvx21od5ET7L8Yf2T1QZOwiH/b6lsVxUl7GxA5CD9VEONh0A8HeyScHU1JQqK5snilmLCBx64HMgAAmeBrhw9R118NE3fFvtz8DP//suvaCKSvT4LBH9HxGtDw35Z39YFIBhg77996EFkGxAAaEwr/0HB7eL8o9FAIamLoMAJJQAsMjPHh/3+VvgP3TfV1Rlg/xkS8tnieiJsMGff18UgHYADvs9tADMAwCAdrLbjLcF8mFc0jw0cv4hEICEEQDW9k/J+/o85G8RAM3z/u8SURUIQAZRn3yJBLQAkg0mIBPmtf+xY8e1LAbc/5HPggAkhADMvPC24lP9/DzW1wJ963XlyHkxSU0juceiAP6xGgG4+pFOUSM1NzdjDQDWAMAHAvSBtrY2UcxyUi0um6fOP/MmCEDMCcD0lW+pI7/xDbXr4/7t7bcA3/7adfpRxYdQpQG45O+vRQX8Y0UAoAVgXg8Qvfbktpmu3v+qvj0A/1iC/zvq3LPfUiee+Kba96nXfV/gZwd9633fxSuquKxSAvbpz7LuzkIQAI1D/9aUAbQAkgsmIBLmtb2O3j8VFKijD34RBMBUAnD1HcWH9Zx/7m019exfKN7Df/TxN9WBR99Qux8Mtqdvgb71uvXOL6p58xvSAVz691iUwD9WIwDQAjAPBHIB95kzk2rXrt2qu7tHrVixQjU0NKiKigpVVlaWCsTCwsLUe15IVl9fr1auXKl6e3tTz0xOnsVwfoDD+bna0n5dV++/Yc3WUHqGFkjg1b8jdsO0LR/yU9W4Qgr26c+/GDXwjxUB4JEAaAGYTwLGxw+pjo4OVVNTmx5Anv+ura1Nfdfhw4dBBiJEBrT0/qlAbb5wBQRgdo96mIAZp9/m7X41y9Z7zjU51giw3G8oh/3kIh2iilrD71F5hRaAmQTg3Llp1d8/oO28+EzByISiv79fTU/fCjIQIhk4flzPyn/0/uPZ+w6TTAzf/4pauLJXhIkZcs8viKg3FxCHdV1U2agAv1UOaAGYRQAY+Lu7u1VJSYnIDzMEXdbv4+mDnp4eNTV1DkQgBCKA3j+AO0yQz/bbDP71q/uy5g0vOSbt3g+GBe5ufldUYQt4o/J6+fQqUX3a29sBCgGAAgvAbNs2eH0uPy1gRG3o9rvmzZunhoaG0d4BtLc1/6+t9792G4b+MfSvzQeG7/+aqm8f8CPvvOQGhMO8R1TpqAC/VQ5oAUR/BODkyVOqsbFJ5HduQd7NfU1NTYrLZIEUXv3zIX29/2e1Jf9sPUJ8noyRCp7zr2vd6Ec++mFU5/3thENUcQt4o/IKLQD/krcOYBwe3hHocL8bAsD3lJaWql27doEE+DgaoG3lP3r/ID+aRj+23/OHasHSW0QYmCXH/IyI1tqBNqrvRZWPCvBb5YAWQDQJAA/5b9jQIfK1LIGm9Tt59wGXVQfZwXfM9UV9vX+s/MfohHx0gvf5VzW2as0fsznql0Q0GlXATy+XyAAW8EblFVoAc5NuFEDo/PkZtXy59j21Ir91IhMrV65SMzMXQAI0jgbomvtvXDuI3q+m3m+SSUTfxedU2fx6v3LIh9JBNsp/i4wQFeC3lwNaANEhAQz+S5cuE/mYE1j7dW3ZshaQAI0EQEfvv6CgQLE0a5KBC3WX9/w7Tzykissq/MpJkTji1wvhEBnCDrxReQ8tgGgQAB5Kb231ZYhN5LNuSQOrCmI6QO5L2nr/69D7BwGQEYDVuy/pPtjHnoteI6IiL+AbhXvtFfD8Piqgby8HtADkSVvH1MH69Rs8+5NbcA7qvo6OTkwFCEcC9PX+n0PvH8P/efnA0H1fVk3rd/iZj94iovIoALrXMoiMYgfeqLyHFkD4BGBkZKfIr4ICeDe/w3XRQYiS+B3o/ct6rOjxy+3Xf9tVVdng6xqk75iw3S8bMRAl6qiAvr0c0AIIlwAcP35CFRcXi/zKDTAHdQ9vETx16jRIQB4jAej9ywEMJCB/G64du0sVlbx/cJhP+eJ7RFSbDVxN+FyUqO3AG5X30AIIjwDwnDkL6/gUbKF976JFi0AAPBIAXfv+GwOc+99215dUz9QTasOxj6uNE48p/hsAnD8Ah2W7wbtfUrxjxOc8xEI/jSaAvFMZRUaKCujbywEtgPAIwNat20T+5HPAiso2PAzZYC/TGNp6/5ee9wWEGdw7Tz6sWofOpmRgs20LY6GYzpOf8qUMYQFknH+X26q0qk4U6y7y0N8R0VInYDXlmshQduCNyntoAYRDAPhgH9bXdxE8nu/hw4J4a15fX7/as2efOnr0uDpz5qw6ceKUOnbshBod3Zu6xvcUFRV5/n43ZS4vL1dcRy8gmNR7o9b7dwv2Tn6wcNVmteXDnwcRiOhCRO71N3fuVkQFvsS/zTd42L/JFIDPVU6RsaIC+unlgBZA8CRg40b9etrV1dVq8+Y+derUhJqcnHL1n+9lolBRUSnybVvAX/+e3t5eEAAXUwHaev957Ptnedeeqc8o3vK1aMOIqqxnHQo9oFBYXKpWDE4oPjwmzr1o0+q2/sgDqrRiwfU4zRS7mj77LhEtzAWqJl0XGS0deKPyN7QAgiUA09PTKT19TUGW6sV3dnapiYlJV6CfiRycPn1GbdzYrQoLC0U+bq8THyU8PX0rSIADCdDX+9+eE2QH7/qS6jr1sGobnlIN7Vv8VHeb40MVC5ep7snfzFk+04DUtPL2XXpe1a7Q3/Gwx7zt/ZtEVGUSuLsp6xzHtlXW1edRAfz0ckALIFgCMDCg7yjNyspKNTZ2MG/gTycD+/ePqaqqalf+7Mb/+/sHQAAcCIC23v+lF+YAbDrYz5vfoK1N3bT7zfcUqEUdOxVrypsGnKaXl4f7l/SOqYJCf6b7bm5r+goRlbkBVNPuEQVROvBG5e/LE6tF9Wpvb0eSd0jy6XPbNTU1IntbAVdTU5ua308HcenfvGZgwQI9Q4S1tbXwjSy+oav3z8ez2nv24YM9ZfVvnhZY1n9EMUExHVijXn4+unflyK2qpFwfobdyj8Pr40RUaBqwuy1vVsd2MMj1Z6IC+OnlgBZAcCMA4+OHrvuDG5/Jdg/3/BmopWCf7XleLMi/ke33vXx+5MhRkIAMJEBH799LO0Tp3qKSeapl4Ljafs/LIAKaFwrueOAVtWb/HarM/9X99vzAp/rd7hZITb3PXmHP79OBNyp/QwsgOALAcrnSRMwr93UO+2cjAfv2fUDLLgFIBN/sX7p6/1JfCvv54nlVqTUJQ/f+MYiAkAiwhO+q3RcDW9th851/J6IdpoK6l3KLkndUAD+9HNACuDlBpw/b6/qbh+1tgZPXe17wlw20dX/OCwOl5a2rW4gRgLQRgCT3/jP5U3FZpVq2+ZAauP1FEAGPRICnU1q3T6qS8vniWM3UNjk++z4RtXsBUZPvFRk4HXij8je0AIIhABMTZ0T+w4HIW/0kq/29EgTeHVBZWSUqNx9Ne/bsFEjALAnQpfmfIzGL2iys72Zf4ZXqvFVtx8e+DjLgQAY2nX9KLd64T/G6ipDa6/eIqNJkQPdadpGhowL4mcoBLQD/ScDu3aMi/+Eg533+XkFcej/rBEgTDNdd1yiK6d+D3n/2RYJ2P6tYuEStHr0NCwZtJIBX9LfvuV1VL1oljkm7rT2+/x8imvEKnnG4X2T0TMAblc+gBeA/AZCK/7DCnxeRHynwW8+fPHlafGARRIHe9y/M/bsDfzsg8fa1utZuxYfVJHHR4PBHv6o6jn8ypddfWFQiwiC7XfN8z7K+nXEA83zqIDJ+VMA+UzmgBeA/AWhtbRP5D0v3WqAc9GtLy3JR2VetWoURgIuXFHr/3gmAHagYAOtX96lbxu9TcV44yAv6Nhy9rJpuGVLFZRWi2LPbT/D+19ckfa/GUdzHCxEQNUQm4I3KZ9AC8J8A1NfXi/yHh+KDBn7r93p7N4vK3tDQkHgCcOLEScVz3IIkjGfpBoEoKCxWfPgQyw13n31cDd//itFrBvouPqdW7pxRtSu6VAR6+nZfe5eI9ngByrjeazeK5/dRAftM5YAWgP8EQLqvng/2sQA56Ne9e/d79nc70PHiRdPn7qXl17Gjwm5TvL9BBtgWrC1Q19abAlE+pnjo3i9HlhAwWemdflKt2nUxJcsckDZ/PjH8BSJaEFdA91qvfAx4/ZlMwBuVz6AF4D8BKC4uvu4L+SRvP4V/chEKFvPJp8zWM3zyoRRATX9+4cKFIhtatsTrXODPZg8ebSmvbVYNa7eljjHmefStd3whYFLwqtpyx++ojROPqdV7PqiaO0dVVVOb4tGLbOWOyOf/SEQHvQJk3O8XNVpUwD5TOaAF4D8BkA7/8pa8XEDt13VefChJTCxeZDqAS8vv1/HPknbx+mzrogp1dLBZPTK9Rn39kT71mYvrVE1V6AvTPPkmb5tjYlDTsiF1AuLyLSdSK+s7jj+Ymkrg7XV9l15QAx/6nOKjkXnh4Y6PvZoiDrwgj//m/0wm+i5eST3D5GLdgbtV69CkWtK9X/FxyFWNK8LcoufJJjY/+AURPUZEFXEH83zql69RU89lAt6ofAYtAP8JgPSkvTB2AFiEgsmHLUl4fs91lwKo6c/z6YgSGwb9rB3sX32kT/3zS7tVpnz149/fpS7sa1FFhVjfEHQbaf6914lodT7AmJRnRAGcKXii9Bm0APwlAdIpANbntwA56Ff+bUmyKS0tTTwBkC4Cldjf6dmCAlJtzTd69k5g75Svvv30oJJuJ3YqJ665m/rIw05/T0SHkwLiknqKkqBT8EThmjR4h4aGE5/knXqp8kWAe0MjANJFgFx3J9sk4VpXV5cof+SR2G/6PQvsjw02q0dvXateezR7zz7fnPQHl3vU+uWBnkB3Uz112CoB3/EeEd12bci/WAKKSXpW5Gj5BlRQz0ELwN8RAGkPMMxtgFI1wMbGxsQTgKC3AQYB9tly08/+ZJ/63Y9uVGuXyWSkEwDCIkzJ0z4/IaL7iKg8SeCto66ixsoWLFH5/PJpmbxke3t74pO8U0+2tbVV5D8mCwGxCJKTbZJyratro8gHsiV8BvuViyvV8e3N6rHZnv17L49mnLMPMt8wEfj8vV1q9RI9R0tnqz8+dzU98K9E9BC29eVPBUTBG2Tg5fNb0ALwdwSgu7tH5D+8kp5leYOe/+fFh9L1C5ACft+3ZmYuqJaWFpEfZAK75+/sCB3snXLOT1/Zp73OmeyAzzISgX8gog9jZX/+wG89KXJipwCJwjVoAfhLAHQcBhTGNEB//4DI7zkpj47uwQjA7GmATAI6OjqVdFeIHexe/3R/pAkA5zd7efE+I1DrttFfEdFJIiqyAAyvMguIGigKIO9UBmgB+EsAJicnRf7DSbOiolIFqQfARw9XVcnncScnz4IAzBIAa7rj1KnTiqcEeH2EFBA5dp1iOwrXpHXE865Iw38T0W8TUZ8M6vB0JguIAzXuTsxJzUpweL2ZUCxYsEDsQywpG9Q0gA752rq6OvhEGvjbY0MHMYx7XkH9coL/D4joASKqywRc+EyPBcTJO+6OPDZ2AMneIdnz0K/UB3joeP/+Md9JAJ89UFhYJC6YHRJpAAALFElEQVQv19kOeHg/lxiOjx8S21jqU3g+J8BGsY14bv9xIurWA2/4llwWiKITRKpM0AKYm9zTwe7gwXEt7VVVVa38PBuAtf/Ly8u1lPXw4SMgAA6kcGRkpxY7A8SNBHGvbf9PRPQMEQ0SUUEuwMJ1vRbw2liJu7+npwfJ3iHZMyHQMQ3AyZ6/xw91QAb/mpoaLb7L35NOgvD3XJK4eXOfFlsngADcTUR/em0PO89zJ8VmrM3/TSK6n4i69MIZvs2rBZLidHnXE1oAc5N7JrDr7+/P277piY8V9vbv/4C26YC9e/dp6/lzWbds2QoCkIMQrlu3Tps/pPtHzP628nUpEQ3PHlrzHSL6ZYzq+atrsrzfuzaX/ywRHSCiSqvSeA3fAgjUHMy7ubkZCT9Hwj93blqxNr6upMX6ALxYT7I7gFf783fomPO36sV1nJ6+Ff6Qwx+WLl2mzRcs28f0NRsC8Ml124joHiJ6mYh+ZFD9WZzntWsk5hNENEJEVdkqic/DtwACNQcBqK6uRsLPkfB5VEDH6vr0JMejAawT4EUsiEV+eJ+/jq1+6eWB+E/u0SD2BV3TLen2j+HfXhCgfhZQbyeip4noz4jox9eU8H4dkl3+jYjeJqLfIqI7r73fde39Ii8Vwr3hWwAEIAcB4BXqLHSSaegbn90AhKmpc8qv8+FZta+lZbnq7d2s+BAfntNnoOdePq8Z4M+YKCxfvlys8JctmXLd0Pu/0d5Ovs8jONnsiM/nzPXrQADWv18zO4UwOauJ/xQRvUREf05E7xDR3xARr7D/FyL6D4f/vCDvb2eBndcm8Hc8T0SfvDYKcW4W5Pm3oLmvo+Ui8B0I1BwEgBMWtADcJf5t27bF1p+GhoZAAl2MBJ05IxeHShBJiAAEoAhJtkBsE7bOJAItAHcE4MKFi6qpqSl2PrVo0SKAvwvw51GB8XE920J1xm+EvyvJ2IO6R8ACsUvWfgQ7tADcEQAGAB4tKSkpiY1fcV342FunIW9cu+Ef0ACYM8SfKw4iAAEoQpItkMtBcZ1IQQvgRoJ3A3Y7dozExm8Y0NzUGfe87yObNm2OTdv70ZlI+84kYw/qHgELIFhdrAGAFoA3AsBguGFDh/G+xQfbANi9tf3atWuNb/c0kPazPhGAABQhyRbw07lj893QAvAGAgyavB6gtbXNWB9oa2tL1QEEwFvbL1my1Ng2DxD4LRslGXtQ9whYwHJEvDqMBEALwBsIWKDJ2yeXLTNPFIa3E2LrZ35trksWOgQwDiMHRgACUIQkWyAMpzfuN6EFkB8YMBFgIDVpJIB7/ufPz2Do3+Wqf4vsWa/QAMAiwCQDqml1F4Hx/77718qE/z//0XdVcbFMnARaAPmTAJ4O6OiI/poAPuaXy2qBGV69tfnExBlRPuEY5Vg1IadwGTWMUpiGFyhvzCwgcmJTApXLuXzpYlFdoQXgDQwygefIyEgktwjyVr+dO3cB+PPs9VttLT0ammPUpJwCAhAzNExgdUSgaFKwDm3pFdUVWgByAsBAwSMpLKyjIXlq+Q5e4Hny5CmAvxD8uW2l2z85Rk3KKRp8OIGQgypHyQKiJGpSsE6dOCiqK7QA9BAABgoeZh8c3O7b2QFuEnN5eXmqDFbvFa/y9t20aZMoxjhGTcopbvwsxz1RwgKUJYEWEAWsScH6iXtuE9UVWgBygEgHWT5GuLu7R+tRwjkSriorK0v9Jg720d+ea9bINAA4Rk3KKbl8zcX1BEIOqhwlC4hA0aRgffHJh0V1hRaAfsCwCMH09LQaGNiiampqRW3klHD5iNqBgQGc6KdhqN9qt/TXJUuWiNqPY9SknOLkby6vRQkLUJYEWkAUsCYF6xt/9KKortAC8I8A2IFkfPyQ6urq0kIG6urqVGdnlzp06DDm+H0Efqv95s+fL4oxjlGTcopLkHeySQIhB1WOkgWcnDPnNZOC9Yd/+VrO+jgFNLQAgiEAFpjw6+TkWbV792jqLAben9/Y2KiqqqpSw/jcHtxepaWlqc8aGhoU38NTCqOje9Tk5CRAPwDQt9qL13VINQA4Rk3KKU75wuW1KGEBypJAC4hA0aRghRZA8ABugQNe42/7pGkAcO5zCfJO9yUQclDlKFnAyTlzXjOJAHBZoQUQfyAC2QinjQ8ckO2yMU0DAAQgSjCGsuRrgZwg78RyTSMA0AIIBxwAyvG3e9I0AEAA8oUcPBclCySKAEALIP5ABLIRThv39sqEtkzTAAABiBKMoSz5WiBRBABaAOGAA0A5/nZfs2aNKJeYpgEAApAv5OC5KFlAFLSmTQFACyD+QASyEU4bL16cLA0AEIAowRjKkq8FEkUAoAUQDjgAlONv96RpAIAA5As5eC5KFkgUAYAWQPyBCGQj+DZmDQBLl8Fp0bDTNdM0AEAAogRjKEu+FkgUAYAWQPDgAECOv81Pn54Q5ZHi4iLFsWnalKIToXF5Ld+8jedgAS0WEAWuaQHL5YUWQPwBCaQj2DY+cOCAKI+YqAGAEQAt+IMvCdkCosA1kQBACyBYcAAYx9/ew8M7RHmEY9LEXOKyl+9km5DTP34+6RZwcs6c10wMWmgBxB+QQDqCbeMkagBgBCDp0BmP+ucEeSeWayIBgBZAsOAAMI6/vdvbk6cBAAIQDwBMei0SRwCgBRB/QALpCLaNm5sXi/IIx6SJnQmnzpHLa0nHH9Q/ZAuIAtfEoIUWQLDgADCOv72rq6tFeYRj0sRc4hLknWwTcvrHzyfdAk7OmfOaiUELLYD4AxJIR3BtnFQNAM59IABJh0/z6y9yYhMJALQAggMHAHH8bZ1UDQAQAPPBDzUgShwB4MCFFkD8gQnkI5g2HhtLpgYACADgMw4WSCQBgBZAMOAAEI6/nYeHh0U5xFQNABCAOMAf6iAKXg4CE/9DCyD+wATyEUwb9/T0iHIIx6KJOQQEAOAZBwuIgtfUwIUWQDDgABCOv53b29tFOYRj0dQ8gkWAcYDAZNdBFLymBi60AOIPTCAfwbRxc3OzKIeYqgGAEYBkA2dcai8KXlMJALQAggEHgHD87ZxUDQAQgLhAYLLrkUgCAC2A+AMTyIf/bTwzc0EVFhaKcgjHoqkdCUwBJBs841B7UfBqCAD8vnArJtpAtpUV9oP9QvSBOGAI6mCwBQDAAGD4AHwAPhCODxgMHSh6HCyAwA8n8GF32B0+AB+IA4agDgZbAEkISQg+AB+AD4TjAwZDB4oeBwsg8MMJfNgddocPwAfigCGog8EWQBJCEoIPwAfgA+H4gMHQgaLHwQII/HACH3aH3eED8IE4YAjqYLAFkISQhOAD8AH4QDg+YDB0oOhxsMB/hbgHFkknnKQDu8Pu8IHwfeA/4wAgqIPZFvgBCACEUOAD8AH4QOA+8H2zoQOlj4MFnkbgBx746H2F3/tCG6ANwvaBJ+MAIKiD2RbYQES/AgkACYAPwAfgA4H5AOfcW8yGDpQ+LhZ4DoEfWOCH3evA76PnCx8I3weeiQt4oB7mW6CUiN4ECQAJgA/AB+ADvvvAN4ioxHzYQA3iZAEmAVcwHeB78KP3FX7vC22ANgjDB3jYn3v+AP84IWfM6rKeiD5LRLxC9efoDYAQwAfgA/CBvH2AcyjnUl7whzn/mIElqgMLwAKwACwAC8ACsAAsAAvAArAALAALwAKwACwAC8ACsAAsAAvAArAALAALwAKwACwAC8ACsAAsAAvAArAALAALwAKwACwAC8ACsAAsAAvAArAALAALwAKwACwAC8ACsAAsAAvAArAALAALwAKwgFsL/D+2TZY+RmO2fgAAAABJRU5ErkJggg==;" parent="dSJ8OUNx_WeW59Pk2hs--6" vertex="1">
          <mxGeometry x="150" y="20" width="142" height="142" as="geometry" />
        </mxCell>
        <mxCell id="dSJ8OUNx_WeW59Pk2hs--11" value="&amp;nbsp; &amp;nbsp; Catalogue normalisÃ©&lt;br style=&quot;font-size: 20px;&quot;&gt;&lt;br style=&quot;font-size: 20px;&quot;&gt;&amp;nbsp; &amp;nbsp; - VM avec docker&lt;br style=&quot;font-size: 20px;&quot;&gt;&amp;nbsp; &amp;nbsp; - BDD&lt;br style=&quot;font-size: 20px;&quot;&gt;&amp;nbsp; &amp;nbsp; - Environnements&lt;br style=&quot;font-size: 20px;&quot;&gt;&amp;nbsp; &amp;nbsp; - Demande d&#39;accÃ¨s&lt;br style=&quot;font-size: 20px;&quot;&gt;&amp;nbsp; &amp;nbsp; - Demande de flux" style="rounded=1;whiteSpace=wrap;html=1;strokeWidth=3;fontSize=20;verticalAlign=top;align=left;" parent="dSJ8OUNx_WeW59Pk2hs--6" vertex="1">
          <mxGeometry x="90" y="240" width="230" height="220" as="geometry" />
        </mxCell>
        <mxCell id="dSJ8OUNx_WeW59Pk2hs--23" style="edgeStyle=orthogonalEdgeStyle;curved=1;rounded=0;sketch=1;orthogonalLoop=1;jettySize=auto;html=1;exitX=0.5;exitY=1;exitDx=0;exitDy=0;fontSize=18;strokeWidth=4;" parent="dSJ8OUNx_WeW59Pk2hs--6" edge="1">
          <mxGeometry relative="1" as="geometry">
            <mxPoint x="165" y="540" as="sourcePoint" />
            <mxPoint x="165" y="540" as="targetPoint" />
          </mxGeometry>
        </mxCell>
        <mxCell id="j9S2OprrJZgNHprjxA65-1" value="&lt;font style=&quot;font-size: 23px;&quot;&gt;&amp;nbsp; Base de l&#39;infra&lt;br&gt;&lt;br&gt;&lt;/font&gt;&lt;div style=&quot;font-size: 23px;&quot;&gt;&lt;font style=&quot;font-size: 23px;&quot;&gt;&amp;nbsp; &amp;nbsp; - Points d&#39;entrÃ©e&lt;/font&gt;&lt;/div&gt;&lt;div style=&quot;font-size: 23px;&quot;&gt;&lt;font style=&quot;font-size: 23px;&quot;&gt;&amp;nbsp; &amp;nbsp; - Security groups&lt;br&gt;&amp;nbsp; &amp;nbsp; - RÃ©seaux&lt;br&gt;&amp;nbsp; &amp;nbsp; - Environnements&lt;br&gt;&amp;nbsp; &amp;nbsp; - Monitoring&lt;/font&gt;&lt;/div&gt;" style="rounded=1;whiteSpace=wrap;html=1;strokeWidth=3;fontSize=18;verticalAlign=top;align=left;" vertex="1" parent="dSJ8OUNx_WeW59Pk2hs--6">
          <mxGeometry x="90" y="520" width="230" height="220" as="geometry" />
        </mxCell>
        <mxCell id="j9S2OprrJZgNHprjxA65-2" value="" style="rounded=1;whiteSpace=wrap;html=1;strokeWidth=3;" vertex="1" parent="dSJ8OUNx_WeW59Pk2hs--6">
          <mxGeometry x="700" y="200" width="370" height="340" as="geometry" />
        </mxCell>
        <mxCell id="j9S2OprrJZgNHprjxA65-3" value="Responsable outil" style="shape=image;verticalLabelPosition=bottom;labelBackgroundColor=default;verticalAlign=top;aspect=fixed;imageAspect=0;image=data:image/png,iVBORw0KGgoAAAANSUhEUgAAAgAAAAIACAYAAAD0eNT6AAAAAXNSR0IArs4c6QAAIABJREFUeAHsfQecFUXyf21ObGLZBOwSFljiEpa85AWWsGSWKCBBkoiSBFQUxAAqggkVxYiiGDAiRlRAzBeMZ0DP807v9DzTnf+7393Vf+vdG308XprpnpmemZrPZz/z9r3pnu5vV9e3uru6GoAvRoARYAQYAUaAEWAEGAFGgBFgBBgBRoARYAQYAUaAEWAEGAFGgBFgBBgBRoARYAQYAUaAEWAEGAFGgBFgBBgBRoARYAQYAUaAEWAEGAFGgBFgBBgBRoARYAQYAUaAEWAEGAFGgBFgBBgBRoARYAQYAUYgMgINAaACAGoBYAEAnA0AlwLAjQCwDwCeBoA3AOBj/9/nAPCN/+9HAMCgP/pO+52e1dK97s+L8rzB/w56F72T3k1loLLwxQgwAowAI8AIMAISEEgEgDYAMB4A1gHALX4ifg8A/h5E3sFkbsf/VKZ3AeApANgNAGsBYBwAtAYAqgtfjAAjwAgwAowAIxCEQBM/WV4IAPcBwNsA8E8FSd6oYUF1ectft03+ujYOwoD/ZQQYAUaAEWAEXI1AIwAYCQDnA8AjAPAnFxG9XgPhjwDwMABsAIARAJDn6pbnyjECjAAjwAh4CoFMABgKAFvq18xpPf0/Hib8WAwE8j0gP4Y6Ngg81U+4sowAI8AIOB6BVP9o9sr6qe5fMeGf5GwYixGgPUPG0psAQFjW1DsgpjheOrgCjAAjwAgwAq5CgKb1acR6BwB8xyN8IdLXyD/UnRwNH61fNlkIAOxD4KouxJVhBBgBRsA5CLQCgHPqR/sv8yjfNMIPZQRo39HswLF6Z8n1AEBtwRcjwAgwAowAI2AaAuSkRqPPI/VOfP/lkb4txK8ZAMH3d/xbD4tNa33OmBFgBBgBRsBTCGQDwDwAeAYA/s2krxTpBxsB9D+1EQVBojajtuOLEWAEGAFGgBHQhUCl3xs9VNS8UMTD350cXdBuTH7yR0WkXRh8MQKMACPACDACYRHI8k/xk/e+3eTF75fbBhSlkKITctjisOLPPzACjAAj4D0EKJ49hdpVMcQuGwJyDQGa0aFQxZ28J+ZcY0aAEWAEGAENgX7+bWXs0CeXZJ1itJAz5xgAiNMEgu+MACPACDAC7kUg3q/0X+Fpfl7m8MvArwFgNgAkuVfsuWaMACPACHgXAYoit6zeO/wzJn4m/jAy8HsAOB0Akr3bTbjmjAAjwAi4BwFS5ovdSPypqanYsGFDbNq0KZaXl2OnThVYWdkD+/SpwkGDBuPw4TVYWzsGx42bgBMmTMS6uqm+v6lTp+PMmbNO+KPvtN/pWUpDaSkPyovyrKzs7nsHvYvemZvbEFNSUp0y3a+nnGQIULwHnhFwjx7gmjACjICHECDlPR8APgkz2tNDCLY9m56ejkVFxT6C79mzF1ZXD8OxY8fjtGkzTiDwYEK38n8qy5gx43xl69GjJ7ZpU45FRUWYlpZmG26S2vy4P55Aoof6DVeVEWAEGAHHIkAOXTMA4CNJJGAJicXFxWFOTi6WlbVCIvqampE4Zco0ZUjeqEFBdaC6UJ3KysowJycHqa5OahsA+BAAprGzoGN1AhecEWAEPIBAb39sfuUJhqbOS0ub+absaZo91LS8UdJVPR3VlepMSwolJaWYkpKifHv5DZaXAKCXB/oRV5ERYAQYAccg0MR/Ep+y2/mSkpJ8U/ldu3bDkSNH4YwZpzh+dC/T0CCfg169evuMIsUNApKxfQDQ3DG9gwvKCDACjIALEcgAgM0A8A8Vp5RpurtDh45YUzOCCT/I6TCS8UDG0fDhI3zYZWfnqDo7QEGjLgQAkkG+GAFGgBFgBCxEgAK4kLe2MgRBa9vFxcXYvXsPnxd9JJLj307chRAJD5odIEzJGVJB/4FPAaDWQrnnVzECjAAj4FkE6LjXO1Qi/oYN83xr+ZMm1fG0vo6RfiTSD/dbXd0U35ZEMgZUkgF/RMkSz/ZKrjgjwAgwAiYiQBH8KJDPdyoofpre79KlK44fP4FJ32TSD2cMEPadO3f17SxQQSYA4FsAWFq/NECyyhcjwAgwAoyABAQ6quDdn5iY6NumR9vawpESfx/71L5MrKhNaJshtZECxsCxekfB9hLknrNgBBgBRsCzCNCeforIZuspfdnZ2Uje+zT9LJO0OC/5xgLFHaDdBBSl0GZD4Cf/8cM8G+BZ9cUVZwQYAaMIlALAc3YpcXI2Ky0t9XmjM1HLJ2orMKVYAyUlJXY7Dj5bf9Q0yTJfjAAjwAgwAjEgUAcA39hB/vHxCdiiRUscM2Ysj/ZtWtuXbRzQLoLy8rZ2Lg+Q3wrNZPHFCDACjAAjEAaBXAC4zw7ip+AzFRWdcfJknuaXTcCq5Ee7NOjApORk2yIPkmznhJF9/poRYAQYAc8i0M2O+P0Uoa99+w6uiLuvCtGqXg4KRUw+HcnJyXb4CVDsCg4n7Fk1xxVnBBiBYARmWx3Nj7zFifjpCFzVCYvLZ44PAjkMkiFARqDFs07/DwDODO4E/D8jwAgwAl5CoAEA3G2l8k1ISPCFmGWPfnNI1YnGCi37kDFIsmGlLALAXQBAfYAvRoARYAQ8hUAHAHjPSoXbrFlzHD9+Io/4XeLcJ9vYoMBCzZo1s9oIeJdjBnhK73FlGQHPI1Djj5pmibLNy8vDYcNqmPiZ+GOSgREjRmJ+fr4lsuk3gH8AgLGe1woMACPACLgegZUA8G8rRv5paWnYt29VTEpf9miS83P2EgOdSNinTxWSDFkhq/4+QX2DL0aAEWAEXIdAIgBca5Ey9e3l53V+Z5OwCkYUOQpSDAELTyG8GQCSXdf7uUKMACPgWQQaAgBFRDN9NEWH9NTUjOBRP0/3S5WB4cNHWHno0BEAKPCstuCKMwKMgGsQaAEAH5hN/uTBTafzTZ8+U6riV2EUymVQYyaDZKtz5y5W7Rb4qP7Y65au0QJcEUaAEfAcAm0B4A9mkz85+Y0ZM46Jn0f9lsgAhYkmmTNbrgHgCwDo5DmtwRVmBBgBxyNQWX82+l/MVJK0Lkv7t3nUr8YI2UszFeQkSEGE4uPjzTYE6EyM3o7XBlwBRoAR8AwC/QGADkAxTTk2aNAA6bQ3L5EO11U9Q4e2DGZlZZkm5/4+RNsEqz2jPbiijAAj4FgERpkd1rd16zZI8dyZENUjRC+2CckiyaSZBq+/T410rFbggjMCjIDrERgEAD+ZpQgpfn9VVX8mfl7rV1IGqqr6mX3k8D8BYJjrtQhXkBFgBByHQOf6A07+Zhb5Z2VlY23tGCUVvxdHvVzn0LMv5IxKW1HN6gf+pTXyr+GLEWAEGAElEGgFAF+apfRatGjJU/486neM8Tdt2gwsK2tlphHwFQDQDhu+GAFGgBGwFYGmAPCpGeRPHtY9e/ZyjOLnUXHoUbFXcenRo6eZuwQ+AYAmtvZ8fjkjwAh4GoFcAHjHDPJPTk7BoUOHMfnzyN/RMlBdPQyTk5PNmg14GwByPK2BuPKMACNgCwLxAPC4GeSfmZmJFGzFqyNHrre7ZhLGjh2P2dnZZhkBTwFAgi0agF/KCDACnkXgEjPIv6ioGOvqpjL588jfVTJAMl1UVGSWEbDZs1qIK84IMAKWIzARAP4r2wAgxymKsMYjYHeNgLk9/9eeJNsmOQdSX5xguRbgFzICjIDnECDvY+lR/ujIVSYKJn4vyEC7du3NmAmgaIEdPKeNuMKMACNgGQLZZpzsRyeseUHxcx3ZwNFkoKKisxlGwPsAkGWZNuAXMQKMgKcQuF32tH9lZXcmf17v96QM0DZBOtBKcp/a7SmNxJVlBBgBSxAYL1lR8R5/Jn5PEr82C0D37t17yjYAKL+xlmgEfgkjwAh4AoF82ZH+eNqfp8MDidDLnzt1qpBtBNAx3IWe0ExcSUaAETAdgftljv7btCn3/MjPy4THdT/Z+Gvbtp1sI+Ah07UCv4ARYARcj8BcmeTfvHkL3urHU/9sAIaQgZYty2QbAbNdr524gowAI2AaAjT1/40sA6CgoBCnT5/Jyj+E8udR8cmjYq9hQn0jP79AphHwVwBoZJp24IwZAUbA1QjcJIv809LScOLEyUz+TP4sAxFkYNKkOkxPT5dpBFzvag3FlWMEGAFTEOgGAP+RYQDExyfgiBEjWfFHUPxeG+1yfcPPeNTUjETqMzL6nr8PdzdFQ3CmjAAj4EoE4gDgRUkKCHv16sPkz+TPMqBDBvr0qZJlAFA+RwGA+jRfjAAjwAhERWCOLPKn2Oc82gs/2mNsGJtwMiDZKXBm1F7PDzACjIDnEWgAAF/IMAAyMhrglCnT2ADQMfILRwb8vfcMBeo7GRkZsmYC/ggA6Z7XbgwAI8AIRERgrQzypxCnQ4cOZ/Jn8mcZEJCB4cNrZIYLXhmx5/OPjAAj4GkEMgDgzzIMADrxjEet3hu1cpvLb3OJQYK+5FkAT+t3rjwjEBGBNTLIPysrG6dNm8EGgMDIj4lUPpE6FVPqS9SnZPTN+qO8V0TUAPwjI8AIeBIBaaP/IUOqmfyZ/FkGJMpAdfUwWQYA+fewL4AnVTxXmhEIj8BqGSOM0tJSVvwSFb9TR61cbvkzGCUlpbKMgLPCqwH+hRFgBLyGQLIMz/+EhAQcP34iGwBsALAMmCAD48ZNQOpjEgx12hGQ5DUlx/VlBBiB0AjMkKBUsKKiMyt+ExQ/j6blj6adiqnEo4PrQqsC/pYRYAS8hoBw1D+K9c+Of0xUTiVWp5R76tTpSH1NgsH+nNeUHNeXEWAETkagvQRlgpWVPXj0z6N/lgELZKBbt0oZBgDl0fFkdcDfMAKMgJcQ2ClqANCIhEYmThlFcTl5psLJMkAzbZJmAa72kqLjujICjMCJCGTW7wv+TtQAqKzszuRvwcjPyaTFZZdrdEmaBfgeAEgH8MUIMAIeRGC+KPmnpqby6J/Jnw1Ai2WAZtyo74n2XwCgg7/4YgQYAQ8i8KSoAmHPf7kjOx4pM56xyoCkHQGPe1DvcZUZAc8jkAcA/xIxAOjAnwkTJvHoz+LRX6wEwc+525iYOHEyxsfHi84CkA5o6HltyAAwAh5DQHj6v7S0GZM/kz/LgI0yICk64Kke031cXUbA8wgcFBn9U9qhQ4ex8rdR+fMI390j/Fjat7p6qOgMAKXnZQDP0wED4CUEaMpPaPqfTieLRUHxM0xSLAPmykBWVpaoEfBPAMj1kgLkujICXkZglujov3PnLmwA8OifZUABGSBHXNH+DAAzvawQue6MgJcQuFVUYYwZM5aVvwLKn0fX5o6unYDvmDHjZBgAN3tJAXJdGQEvI/CpiAGQk5PL5M/kzzKgkAzk5OSIGgGkE/hiBBgBlyPQSoT8KS1P//Oo0wkjYy+VUdIyQHOX6z6uHiPgeQQWihoAPP3PBoCXyNUJdaU+KdqvAWCe57UjA8AIuByBe0QURUZGBk/9KjT16wRy4jJaYzBmZDQQNQLudLnu4+oxAp5H4E8iBkBZWSs2ANgAYBlQUAaob4r0bQD4g+e1IwPACLgYgSJBBYFVVf1Y+Suo/J0yyh41ajS2bt0Gae96fHyC748+03f0m1PqoWI5+/atEjUAKH2+i/UfV40R8DQCNaIGAMUfV1H5cZmsmWY2ijOdYd+qVeuIBEVnS9Az9KzR93g5HfVN0f4NAEM9rSG58oyAixE4W0RBZGdz9D8vE4zRutPRtQUFBTGTU0FBIRsBBmeZJEQFXOVi/cdVYwQ8jcBdIgZAy5ZlPDIzqJiNkqcb0kUb+YeSSVoScEPdra5Dy5YtYza0QuEOAHd4WkNy5RkBFyPwTphOH5PSqKzswUqZDQBdMjBqVG1MshVKLkePrtX1LqvJVsX3detWaRhvfxv8xsX6j6vGCHgWgRQA+L9QijbW7/j0P7XX2VUkpObNWxgmpBYtWrIBoNPgrK4eZhhvvx6gQ8KSPaslueKMgEsRaBMr0Yd7rq5uKitknQpZRVK2qkwTJkzC+Ph4w4REaSkPq8rrhvdMnjzFMN4B/b6lS3UgV4sR8CwC1QEdXLeS4ABAPPrXS5Dt23fQLWfBMtqxY0c2AHQanenp6aK4D/SsluSKMwIuRWBOsHLV839xcTErYp2KWC9huul58vxPTk4RJSJMSUlBystN2Jhdl6KiYlHc+Whgl5IAV8u7CJynh/CDn+UIgDwDoIe4unTpKkpCP6fv2rUbGwA6jE/arRPcf3X+v867apJrzgi4E4EbdSqBE5QInTamhwD4We8aDOQrImP0r8lrcnIy1tVNYfmL0Qjo1KnihL6r4ajjfp07VSDXihHwLgIHdCiAkxRI7959WAHHqIC9bvy0a9f+JPkRkT1K26ED+wLEKle9evUWxf9h76pJrjkj4E4EXhVRwkOGVLMBwAZAVBkYP34iJiQkiBLQSekTExN5R0CM8jd48JCT8NPZ94+5UwVyrRgB7yIgFARo9OgxUZV/rCMUfs69ywNNmjQVJZ+w6Zs2LWEZjMEIoEOVdBJ+8PO/9a6a5JozAu5E4PciSmHcuAmsfGNQvl42bvr16x9MJNL/HzBgIMthFDkcO3a8KO4fuVMFcq0YAe8i8JWIATBpUh0r3iiK18vkP2XKNExLSxMlnqjp6R0ckCryDJKEUwG/8K6a5JozAu5E4O8iBgApeC8THNc9Muk0a9Y8KnmLyF9gWgovzO0Rvj2orwbiZeDz9+5UgVwrRsCbCMQDwH8NKIKfFcmMGaew0uUZgJAy0LNnr5/lRETG9KTlXSnhDQDqq3qwDPHsv72pJrnWjIA7EUgP0cljVhLx8QkhFT+PwsIrYa9gQ6f9meH1H01e6Z3smBpe/qjPRsMwyu90eBhfjAAj4AIEkqJ09ojKIi4ujg0AHv2fJAO0Fp+VlRVRdkTkLlpaejf7A4Q2AqjPRsMvyu80a8gXI8AIuASB/0Tp8BEVBi8BhFa0XhnpB9dz+vSZWFRUFFFmROQt1rQFBYU4bdqMk4yT4PJ66X8JSwD/dInO42owAoyAH4GfYlWqoZ5jJcsGQCCJtmjR0nby1+SUHBADy+b1z3R4koaNwTs7ATJtMAIuQ+BvBpWBT5nwVCsbABqxyjjmV0QWQ6XlUMG/yOfkyVNEDQDaMswXI8AIuAiBL0Mpzli/o73FGgHw/Rdl6zUsVCR/TYY7duzEMjpzFkqIA/C5i/QeV4URYAQA4FNNURq519aOZeXqcUdA2Yf8kKOaBGe1E0a7PBMwC2trx5yAiYH+zpEAmTIYAZch8GsDiuBnRVJdPYwNAI8aAORUVl7e9mdZEJGjwLRLTp2Ki+cIT1efVK62bduhl51Wq6uHnoRJIO4xfH7NZbqPq8MIeB4BoeOA+/atYgPAgwYAOZTRITwxkIauZzqUl+E3H7yE3350DCvat9GVNpayNG7cBL0avbJPnypRPPk4YM/TBQPgNgR2x6I4wz3TtWs3NgA8ZgDQWnLDhnmiZHJS+oz0NPzVc/fjT5+94ft789n7MD0t9aTnwslirN/n5ubihAkTPSe3Xbp0FcXyBrcpP64PI+B1BDbHqjhDPUfTql5zePNyfWka2azDfW7evuln8teMgF3bNoqSVsj0VAevLV+1bSu8XLPR68qS688IuA2BpaGIPdbvSktL2QDwwAwArZ2TI51s5zxNzpafdspJ5K8ZAcvmzwhJ4lpao3eqC+0Q8IpfQElJqSiOC92m/Lg+jIDXERhvVIFSuqysbDYAXG4AjBkzDvPz80XJI2z6msFV+OMnr4U1AH44/ipW9zfvYKH8/AKkOrp9ZkdCeOYxXleWXH9GwG0IdBcxAGgUxdEA3bn/n9q1U6cKlHCATFjyb9e6JX75zgthyV+bBfjirUNYXmbe0cJ0iFBFRWfXyjK1pYTZm65uU35cH0bA6whkAIDQeQCjRo12/ejJ7aPD4PoNGVJt+oE+JU2K8MOXD0Qlf80I+ODY49i0cWFYY0LEkNXS0ih5yJChrpNn6qNaHQ3e6SjgNK8rS64/I+BGBD42qBR8SoW3ArpnBqCmZqQlh/k0ysvFXx96IGby14yAt17YjwWNGoqSWdT0tCwwbFiNawwBCVsAf+dGxcd1YgQYAYCHRAwACgMbPILk/51lFBDxN23aNCoxisiJljYnOwtfObhXN/lrRsCRR+/A7MwGlpS1pKQER4wY6Xj5lhCt8QFWlIwAI+BOBC7SlLOROzmIMeE7i/Cpvejo3qqq/tioUSNLyJRkK69hDr70+B7D5K8ZAUcfuxNzc7IsK3ejRvnYr19/H2ZOlHUqv5G+HZBmkztVH9eKEWAEpgd0dN2KIj4+HikynBMVoxfLTOvBNCI0az9/OFkqLszHN57ZJ0z+mhHw6pP3YH6e+csBgfVJT09HmvFykt8L9U3qo4H1MPC5jtUkI8AIuBOBjgYUwgkKxY2OU24xDmifO03xk5c7bdsUbWsj6Zs1bYzvHH5YGvlrRgD5EZQ2KbalTtnZ2T5MCVuVYwlIOAOA8G3nTtXHtWIEGIEEAPjWiGLX0vCRq+osAdCIj0ipe/eeSMFfkpOTbSFITTZ6dO2In7z+pHTy14yAT994Cis7d7C1joQxYd2jR08f9irNiNFWTq0tDN6/AYB4VpOMACPgXgQeM6gcfMqFvKbdMmJWtR40yqyrm4qTJtXhuHETfNPQgwYN9pEORelr1qy5b4QvYb+3KGH8nH7q+BH4tw+PmUb+mhHw198dxXEjh/z8XhFZlpGW2oBmCKhNqG3IMKC2oqUDajtqQ2pLK2YOCgqEt04+4l61xzVjBBgBQmCNiOKjNUaRU9ZGjx7jO1o2OzsHExMTlVHkIph4OS3Jw8Y1S/Efv3/ddPLXjIC/f/oanrtioYz1btvlj/oA9QWK3099w6hRSn1Swvr/KlaRjAAj4G4EeooS1oABA3UrKopQ1rp1GxlRymxX2qL4uSV9YX4eHth7vWXErxkA2v2xu3YixRlwC540m9CmTbmhHQgDBgySgQNFC+WLEWAEXIxAIgB8L6I0W7VqpcsAIPIvLCySoaA4DwAlMBg6oDf+/s2nbSN/zQj4+NUnsF+vbkpgItKnAtMWFRXpNgJatWotisF3AEA+QnwxAoyAyxE4EKhw9H6mLVJ6pipp5K/3Hfy8GkQf3A7paam45bwVSNPwGgnbfaeybN2wAtNSU1wjZ+Xl5br6WEZGhmjdH3e5zuPqMQKMgB8BIT8AIoXRo2tjUlC0rqmSs1owofH/sRsaA/t2x7dffEgZ4g82PH5z6EHs2a2TKBEqkZ76TG1tbD4B9JwEOV7N2pERYAS8gYBwPICuXbvFZACQc5ME5cR52Dj1T5H4rttynqWOfsHkHuv/NBtwzaXnYMNce+IgyJT1tm3bxdTHunWrlNE/SCfwxQgwAh5B4DMRZUVbjmJZBqAtUiLv4bSxj9BlY5WUmIinz52Gf/rtIWVH/eEMAyrzwlmTMSFBODKebfKbk5MTUx8jnwHBtiddwBcjwAh4CIFdIkoj1u2ASUlJosqJ09sw+h89dADSlHo4gnXK968/vQ/HjhjsyGUo6jvRjGxJ2/9u9JDe46oyAowAAEwQMQAobf/+0bcDir6D01s3A0DrzmOGD0I6gMcpBB9rOelgoprBVY4zJqMZAJK2/41njcgIMALeQiALAP4lQrCxbAcUyZ/TWkP+NNVfN7YG6dCdWAnVqc+9/MTdOGPiaEx2yMxUNANAwva/fwJAprdUH9eWEWAECIFDIiQby3ZAkfw5rbkGQOOiAtywcrGp8ftVNRSOv3YQ15w+FymYkcpyFs0ASE8X3v73HKtCRoAR8CYCZ4sqv2jbAUXz5/RyjQDaKz9+VDXeu+sK/OH4q64f8UczQAiDB27d4TtfQMVZgUgGAG2xldA/aEswX4wAI+BBBDqJKpBo2wFF8+f04gYAkf7IIf1w944L8c/vvuh50g9nFPzxN8/hrm0bfX4QqgQVimQAUN+T0D94+58HFT9XmRHQEPiDiBKJth1QJG9Oa5z827Zqgcvmz8BH7rwWv/ngJSb9z97QhQGdOrjv5m2+bZCd2rWWcdCOIbKOZABICK/N2/80Lch3RsCjCNwkQrTRtgOK5M1pYzMAigoa4fBBfX0n5O2/7WqkkWy4US5/r88Q0PAiTPfdtA3XLV+Ao6r7Y5Ni4aN3YzIIwhkAkrb/0VZgvhgBRsDDCEwUJdpI2wFF8/Zq+uysTMzJzvIRTeuWzbBvjy6+/eyL50zB81Yswluvusi3XY+n9I0RukbsIncyCl58+Ha849pL8MK1y3DejAm+5YOqnl2xfZsyJMNMVH7DGQCStv/RVmC+GAFGwMMImLodUFQBiihoTmsfOTL2/8NeVP7DGQAStv/RFuBsD+s9rjojwAj4EXheRFGlpaWFjVgmki+lZSJhEneyDIjKfzgDQMLpf7z9j9U/I8AI+BBYK6qowm0HFM3Xycqfy87Gi6j8hzIAePsfa21GgBGQiUCFqKIKtx1QNF8mUSZRJ8uAqPyHMgB4+59M1cd5MQKMACFgyumAogrQycqfy87Gi6j8hzIACguFdyDQ1t84VnuMACPACGgI3CyirOggmbq6qSf5AojkSWmZRJlEnSwDovIfbADw9j9NXfGdEWAEZCIwSVRZhdoOKJqnk5U/l52NF1H5DzYABgwYKLy10H8SqEzdwXkxAoyAwxEQ3g5YVtaKZwB0RpxjI8HdRoJsA4C3/zlcy3LxGQGFERDaDhjqdEBRBag6QX7y+pO+CHFnL5uHk2qHYddO7bCkSRFSIB+qO8WUp4A+pU2KsXdlZ5w4eiiev2oJ3rf7Svzszac9v8RBGBAWdCohYUMYEVaEmRaPn7AkTAnbyWOG49oz5vsw//SNp5THT1T+g2cAJJz+RyeA8sUIMAKMwEkICG8HHDWq9oRZAFEFqKIBcGj/Lbhi8WwsL2suNB1LfhMVHcpx1ZJT8ZWDe5UnM1lt8coTd+PKJXOwon0bJAxEZITOPKC8nt9/q5L4idQ61m34AAAgAElEQVSN0gYaAJK2/9EJoHwxAowAI3ASAsLbAbt06XqC0hJVgLJIRzQfCrm75bwVwqQfCY8O5WV41cXrkQ6iES2vaum/fv8I7rhonS9EbiQMRH4jY2DrhhVKnXgoUh9KG2gASNr+R32cL0aAEWAETkKAtgZ9LqK0gk8HFMmL0tpNZF+8/TyuP3PBz1P6ovWJJX3D3GzcdPbprjAEiPgvWL0Ec3OyhEb6seCmPUPLB+euWIhfvvOC7fKjlcnoPdAA4O1/J+kr/oIRYAQkIyC0HTD4dECjik9LZ5cB8PdPX8PrL9uA+XkNLSMurc7avbgwH3fvuNB2EjPaBjdduUnKgTgaHnrvBY0a4o1XXIDUlkbrIJpOb5mDn9cMAEnb/+jkT74YAUaAEQiLgITtgAN+nroMVmh6/xdVwEbSv3f0EezXq5ttxB+MER31++HLB2wjMb0Y/u7YYzhsYB9l8BvQpxKpTHrrIeP54LbU+79mAEja/kcnf/LFCDACjEBYBOiEMDopzLACD9wOKJIPpZWhhPXkcfs1F2Nmg3TDdRetb7j0NIW+/7arLcdDD3b07IO3XWXpdH84vIK/z2qQgXt2brEcv+By6P1fMwAkbf+jrb58MQKMACMQEYEX9CqqwOcDTwcM/N7IZ70EZPT5Hz95zeeNL+qVbqSOsaahstF6utE6mp2Otjeqjh9t17RySSDWtg33nGYA0BbbcM/E+D1t8eWLEWAEGIGoCKyLUamEVUqZmZmYmJgY9vdY8zebtCj/74+/gnVja4TLGmudRJ+bP2MiksFiBTaxvOOH46/i3OnjHYPf9ImjkMocS91EnxFt66SkJMzOzpaBLW3x5YsRYAQYgagIdBZVXLLSiyrgaOm/+/hlrB0mJbyqDCUdcx4zJo62dCQbDkcaTU8dPyLmcsuSC9F8xo0c4jP8wtVL1vei5ZSYnrf/RVV7/AAjwAgQArQd8I8SlY9hgpCliEPl84/fv47TJow0XDa78Vkwc5Ilo9hQ2GnfzZsxwbH4nTK5FkkGtLqYcbdbRvzvp629fPof63ZGgBGIGYHdKigvGp2/9PgeU5T06qWnOpa8tLa59NyzTMEmFjK8aP0ZjsePwgrHUle9z5DMKjSzRFt7+WIEGAFGIGYEJmskY/edHMtGDx0g1RC4d9cVSjusxYp5QkI8PrrnOlNILBLpPXT71UgxH2Itp6rPkWzRWQSR6qrnNyJ+klXFnCFpay9fjAAjwAjEhEAjAHhQNaUtyxB4/6VHMTuzgePJS2ufwvw8/MOvnpFGYtEIjw7wsTNAklZvWXeKHPjBsceF8FOU+DUZfwgA8mPq+fwQI8AIeBqBGgD4QpZyNSMfEUOA1nyHDuitKUbX3MeOGCxEYNFIP/D3MTWDXIObJp81g6sM4ac48Qe205cAMMLTmo0rzwgwAhERWAkA/9aUoup3I4bAzds3BSpFV32mIDyBRG3G5/tv2e4qzAJl/LarL44ZPwcRf2B7Ud9eHVED8I+MACPgOQTiAeD6QGXopM+xGgLffPASNikuDFSI0j5T8KPhw4fjmjVr8I477sADBw7g0aNH8eWXX8ann37a9925557re0ZCUJeQ5W7VohRpW6MZxE95fvvRMSxrXhLy3aLyogJ+JU2K8G8fHouIn0OJP7jNbgAA6vN8MQKMgMcRSACA20QVuArpoxkCF69fHqwIhf9v0qQJErG/+OKL+Prrr8f0d+TIEdywYQOWlpYKvz8Y92u3nBuRwESMAzqqOPh9ov+rhh8d+RwKI5cQf2D7UZ+nvs8XI8AIeBiBG0WVuGrpQxkCNHql0+FklTU5ORmXLVuGL730UkykH8o4oNmB5cuXI+Ulq1wtSpuYEuWOoiU2a9pYWjlVxY8cKklWNCPAhcQf2IbU9/liBBgBjyKwXhbxqJhPoCGwa9vGQMUn9Llx48a4Z88ew8QfbAzceuut2KhRI6EyBeJ/1/VbfyYwjchE73dce4m08qmOHx1j7HLiD2zLcz2q+7jajICnERgJAP8NJA63fiZDQNYJfy1btsRnnnlGGvlrxgD5DLRu3TpQMRv+TEfxihJ+cPoh/XoZLk+gXDkBP5IVkpnAcrv4M+mAUZ7WhFx5RsBjCDQBgL+4WKmZorxLSkrw4MGD0sk/0AjIy8sTLjsF6PnolQPSjADaIy8j6I9T8PNgv/gKAEgn8MUIMAIeQOCAB5WcELHSqWx33XWXaeSvGQG0HCDDJ4Ac9oJH8Ub/3755rRB2JGtOw8+D/YN0Al+MACPgcgSmeFC5CRPYGWecYTr5a0bAokWLhMtrNLBNKCOB8hKVGafhJ1pfh6af6nLdx9VjBDyNQBoA0Mlgwgo9OI+sBhk4ZdwI3Ll1Ax559A5faFryHA9+zon/FxUVCXn7a8Qe6522FMpYClAFa8bPeH+jPkRhnqlPXbflPKwbWyPNnyWEfNAJoKQj+GIEGAEXIkBRwKSScuuWzfCGy8/Hv/7uaMgpZ9nvsyO/9evXWzb614yEdevWSW0nO3DT3sn4Ge9zoWZkqK9df9kGpMBPGsYS7xwp0IWKn6vECKQDADn7SFEaaakpSEFTfjj+akji1xSXrPfZlU9KSoquID8agYveDx8+jGZFDLQSS8ZPrL9p/SjUnWYHLjnnTExNkRdHwq8jSFfwxQgwAi5CYL4sxU8jj9ef3heR+DWFJeudduUzePBgy0f/mvFAoYXtqres9zJ+5hkAWh974aHbsKhAXhwJADjNRXqPq8IIMAIA8KYMpd65Q7muo2dF32n3fmw7pq81A+Ccc85xvAHgZfxkyK5G8tHutO2zUzs5cSQA4DesMRkBRsA9CHQQJWJKTyN/vefOi7732IG7sHbYQNsCs9x88822zQDcdtttjjcAvIgfET/JLMmuqPxHI/7A38kIoFDGou/0p+/kHvXHNWEEvI3ARlGlQGv+sU77Byol0fdqedllCDz11FO2GQD0blH87E7vJfwCiV+TW1H8tXxivdNyQIqcsyUu9LbK5NozAu5BQHj6P9wpadEUk2wFaLUhoOeUP23qXtadDhoSxc/u9F7ALxTxa/1CFH8tHz33DSsXy5CbX7lH/XFNGAHvIpALAP8RUUS01S+at384BSXyXkobLl+rDAGR0/5EDQE6NlgUP7vTuxm/SMSvya0o/lo+eu5fvXdYxlIA6YyG3lWbXHNGwB0I1IoqIdrnr0cBBT4r+u7AvEJ9NtsQeOKJJ2xbAnj88ccdbwC4Eb9YiF+TVbPlX3tP8J1CQYu+GwDGuEMFci0YAe8icI6IIqAIf+GC/AQrnVD/i7yb0obKM9R3ZhkCt9xyi20GAJ0LIIqf3endhJ8e4tdkVBR/LR+996/fP4INMtJF5YePCvYub3DNXYLAHhElROF99SqfwOdF3k1pA/OK5bNsQ8DObWyrVq0SVeC2p3cDfkaIX5NVq+Vfey/dJ48RjiNxl0t0IFeDEfAsAsdElBDF9g9UKno/i7zbiAGglU+WIWBnIJvq6mrbCVy0/ZyMnwjxa3Ioip+Wj5H7tVvOFZUf0h18MQKMgIMR+EhECdEhJEaUj5ZG5N2UVsvH6J12L4iUISMjw5ZQwIcOHcLU1FShsovUW1ZaJ+NndOdLoKyK4hiYl97PLz58u6j8fOxgvcdFZwQYAQD4VkQJff7rZ4VIWOTdlFav0gt+ngwY0TKcffbZlvsBrF27VrjcovWWld6p+B197E5h+RPFMFie9fz/2ZtPi8rQd6xBGQFGwNkI/ENECX338ctCSlDk3ZRWj8IL9ey3Hx3D5KQkIUXYtGlTS48DPnr0KNIRuqLYqZLeifjRATuisk/yKNoGoWQ61u9I9gXfT7qDL0aAEXAwAj+JKAFRJZiQEC+khH785DVhI2Bg3+5CZSD8Fi1aZNkswNKlS4XLO2JIlTBuGtHUDK4SLo/T8BvSr5cwfiS7In0vMTFBqAwSDADSHXwxAoyAgxH4XkQJiS4BpKeJrWN/88FLQkqQSGzrBjE/AMIvOTkZ9+7da7oRcMcdd/jeJdJmlPbqS9YL46YZADL2lDsNv8s3rhbGj7bPirRjRnqaUBl4CcDBWpuLzghIQuATESV0+BExJ8Cc7CwhJfjlOy8IKUEisbdffEjKYUKFhYVoZmAbipsvY+o/Pj4eP371CWHcNAPgw5cPeAo/8v5/98gjwvh98fbzQrKfm5MlVAY6F0Ck7wPAcUk6iLNhBBgBmxB4VUQJXLflPCElVNCooZASolGMRkQi96qeXYXKoWHYunVrU4yAAwcOYPPmzaWUcdjAPlIwC8S7un8vKWVzAn4D+lRKwe/3gk54RQWNhMpxzaXCx0m/ZpPO4tcyAoyAJATu0cjLyL1ubI2QEmrZrKkQcdDoM5CIjH6+ZcdmoXIEYkczAXfffbe05QCa9m/SpIm08t1z4+VSMAvE+u4btkorn+r43Xb1xVLw+92xx4Qwo+O3A9tA7+eJo4cKvR8A7pWkgzgbRoARsAmB8wPJS+/nzAbpQqGAu1W0F1JCrxzcK6QENaX5tw+PYXFhvlBZArGjNe2FCxcK7Q6gg3LI4S8xMVFauZo1bYzfH39FCmYadnSnPEubFEsrp6r4NSkuRHKeC6y70c8vP3G3EF7du3QwXA5JoYAvsEln8WsZAUZAEgITAonLyOfrLzMeDVB06viJe24wrASDFfcVm9YIKeRQ2NHIfc2aNbqCBdERubTPv6CgQHp5RNoqGK/g/yVEljupvqrht33zWmny9vjdO0+qbygZCvfd0AG9DZeFlu7C5avj+0mSdBBnwwgwAjYhkA8A/9XR6U9SHDQVaXRUOal22En56SnLnp1bDCvBYAKjWYCmjQuFyhOu7Onp6Thw4EAfse/evRtpTf/w4cP43HPPITn37dq1y/cbPUOj33D5iHxf1rzEcDsFYxXqf9oS2rxE3lJFYF1VwK+kSZG00T/hd8e1lwi1M8XyD9UO0b6jdmpRKtxOpDMKbdJZ/FpGgBGQiMBbgcrWyOdLzjnTkDJaPGeKkBKkLWjRFJ6e3/fecJlQeYxgZ1Wa/bddLRWrULjef8t21+J3764rpOJHswkibb/k1KmGyrN53RlC7/WX+T2J+oezYgQYARsR2CKiiCgtRUajbUWhSCHSdxeuXSakjNYtX6D7nZHKQ7/JCGwjiqfs9ONHVUvHKRyOY2oGCbWp7LrLyG9UdX/p+J29bJ4QTkTk4dog3PeH9t+CKXJmmK6wUV/xqxkBRkAiApUylGRhfh7q9cq/6cpNQkpw+sRRupVgOOWofU975PMa5giVSwaesvLIz2uIn7z+pHScNLyC77S9jWRBVvntzqdRXi4ef+2gdPzoKG2RutHOlWDsI/1PdWhcJM2vpLtE/cNZMQKMgM0I/E5EGWlpO7VrjR+9EvvWPFFHqD7dO+tSgpEUZOBvD952lZTgNhoudt0p6M+BvdebglEgXsGfH91zHdK77aq3rPdS0B+zlk56VVYI4aOnXckw79i2ldD7AjD9AADibNZX/HpGgBGQiMDygA4upCho9BfrcsBbL+wXeheNaILJR9b/G1YuFiqbLDxF8rl4/XLT8ImG86azT3c8fhesXmIafqKzJO8cfjimsj2//1bZMzJnStQ7nBUjwAgogEAWANDxnlKUNq0zEoHSfuNIREG7B+hQE6PvpVEmxVSP9A6jv/3j96/jrLoxhstmtE6y0i2aXWcKLnrwXDBzkmPxO3XaeNPw++q9w0IzTEmJifjD8Vcjlo+8/cnHRtKav9aOdHZItgL6iovACDACkhG4UBb5aPnQKIc89SMZArQ9TXveyP3Io2LnEUQiNDJQRLcqGqmTaBryjZBxUmIkbGL5jUhKdK1bFAsj6SnCZTSCjaX+4Z558eHbhWQ+UhRA6msUk0HCVr9QZbxIss7h7BgBRkARBGgW4CsjCjNamgYZ6Uj7lin+OCk/iuGvHSUs6nV/w+XnRxwJhVPCsX5PRDpj4uhQylDJ7+bPmIh//1T8mORY8Yn2HOE3Z+o4JbEKJbczJ9WabjyJBuLRjnOmPkR9ifoUnfBIxir1tVD1kvDd1zz6V0RTczEYAZMQWCJBUZilgELmu2zedFMNACI4Wg4456zThKZtzcaVlkM2rlnqK2s0Urb6d8KPloRUdgwkh79zVyy0BL+lc6eFlGWzZUQw/6Um6RzOlhFgBBRBIB4ADgsqCkuV28C+3U03ADTCpEBB2ZkNLK1fLG1Bxyo/cOsOy3DQ8NB7v2/3lZidlakcflQm2YF+ImHTv3elchhEkbOjAEC6gS9GgBFwOQLlAPBDFIWgjAKjA4msXO/+4NjjOKhvD2XqT0soFLsgEuGo9BttE6UjiVWRryH9eumOXyGCJ/kWZKSnKVP/GNrhRwBo63Kdx9VjBBiBAARmxKAYlFFidLKaiFLWm5amtMn3gM5ktwsnOpmOgsFQWfSW3+7nqcwUBEpiYBrd7UCnP+7attFy/I4+dqfustolY/73zgzQC/yREWAEPILAVTYrnpgVpcxT2vSQI23nonXj3JysmMsqiilFpqO1frO2P+qpv+iz5LF+/qollkZebJibjeetWITUdqLlN5L+8o2rLZMVUVkDANIBfDECjIAHEaA1v/slKBHTFR5tNTOijGWlITIhxd6udUvT6kpRFsnT+5sPXrK1rrIwC8yHjBky4jqUl5mGX/s2ZUhHPkfakhpYJrM+Txw91LQ6Su6r1Pd53d+Dip+rzAhoCKQCwBOSFYt0BUhT8apMhb/0+B48a9EsJMImz3Kj2JHHfEWHcly15FR89cl7XEf64Qj2lYN7ceWSOVjRvo0QfoQ95bFi8Wy0eokoXN1oeybN4BiVCQvTUZ+nvs8XI8AIeByBZAB4wELlY0hBqqLkA5U/HYyz76ZtvmluGvlR/PdmTRtjWmqKr47kfU4e/M1LmmDPbp18+7gp/Oy+m7fh579+1jOkH4hZ4Oc//OoZHxaECeFHGBFWhJm2m4CwJEwJW3qGlhQIc8I+MC8VPlPQKtX7kb+vU5/nixFgBBgBHwIJAEBHgCqrwCj2vApKnsvwBrfDZ6ExIONE5T5UH+hnOwBQX+frFwRoJoR2Rg0FgLn17XcBAFwNAHsA4AAAvAwAdEDSpwDwjf/v7wHtTLsotO8/BgD6+zUAPA0Ad/n9LDYAAMVgGVu/7NoRANJ+eT1/YgTUQWCWqlsEq3p2ZeIJQzxslIQmZKtx6V3ZWVUDgAjrVHXUjC0lKQCAIfXRUE8HgJ0AcKielP8cQORWt92f6o2OIwBwOwCsqzc0RgBAoS3I8EsZgQAEyvyCaXWHiPg+OlSIp83VIDqridUJ76MliYQEJY9IpiA/rQP6txc+ZgLAIAA42+/o/JmNRB9Rr4UoFxkGjwPAxQAwBgByvNBgXEe1EKBpwoUA8JcQAqpXoKU9T2cNOIEMuIzeM1R2XLROmpxL6nN07sdij0z505Q6TeFf4p+y/7ckDFVo0//ULx28WW8I7KhfWhgPAHlqUQWXxs0IkPVJJ4T9TYUORRH6mFy9R65OaHOFwv9+6x895rpZMdVPnbeo10tnAsAzAPCTCvrJojKQQUB+CefUO3R2cnkbc/UUQYBOElwNAO9ZJOQhLW+aYlXR+9sJBMVlNM9wOv7aQRUOQnofANa4/ES/rvUzGpsB4Dd26iHF3n3c72g4mOM6KMKWLi9GHwC4DADetqMjULAXJjPzyIyx1Y/t1g0rQhqsFvSPdwDg8nqP8yoX65xSAFgPAFRXu3B2ynv/UL/DYKt/p4GLRYKrpgoCjQFgnH+Z4B4AOAYAJIS0Leb/zOiwHdu2YgOAdwMoJQMmRoiktWzqS5/7p33v9fc16nPU99x60da82fWOfM8DAE15O4WAVSrnrwBgRf2OB9r9wBcjoAwCtD9WqKO8+PDtShEAj5r1j5rdgtlzD94iJMv+vkB9gi+AVvURCrfUb9UjB0YZuHIeAP8EgH0unyXivuMgBCjYhlDHnDN1HBsAPAughAzMqhsjJMv+vuDlPfpx9TOHNf7AOf8V1Q2cPqJuJedBOv2RI0E6iDDdVtRsUa9dOm/9i7cOKUEAbhnJcj30z2L88TfPYXpaqqgB8A8AICdbr12JADC9fgmRpqpFMeT0+jCkWAOr6v1HMrwmdFxfNRAQPoXwwrXL2ADgWQBbZYDOMJBAXjQ966UrCQAW1a/xk/e6DPw4D+M4UpwXcrD0ogHqpT6nXF0ninZ+OiHwu49ftpUAeNSsf9TsFsz+9uExLGjUUAb5kEOfFy4KLkaOfRQrXwZunIc8HMnRlM5AYEPACz1RgTrSGtQXoopg17aNbADwLIAtMrBz6wYZBPTH+qA9NCJ2+zUZAN4V7e+c3nTDiWYEltbvNKHlGb4YAVMRoAiDQkq0basW+OMnr9lCAG4ZyXI99M9i/HD8VWzdspmQ7Pplf5OpPcz+zClwzwui/ZzTi+lJA/iRsVZrv/hwCdyMQDMAEI7ZvXvHhWwA8CyApTJAM08GlGpwGpL9Epd2cNp7vov38FtO3MEyJvr/swBQ4VIZ5WopgMCjooq0rHkJ0ojMiSPZ5KQkoQ5qpw/Etx8dEyp7SnKyI9vs++OvYIvSJkJ198v8Qwr0P9lFiK8/YpfOvafzCGRgZEkeSSlpmNu4JZZ2qsL2gyZhj/GLceDsc3D40stw7Nk34pQL78HplzyIs688iHOveQ5Pu+HoCX8Lrj/s+23Gpft9z45fdxPWnH45DpxzHvaadDp2rJ6KzbsMwLymrTA5NcOSOknE/1/+2AzpsoWF82MERsoQ1Osv2+BIMmmYmy2kDOw8HvmzN58WKntewxxHttm1W84VqneAvA93Wfdvr+Ix4gF4Y3x8go+Ey/vWYu+65Thy+XYfsQcTutn/n3L5Yzh6xdVYNW0lthswHgtadMCERLHBQGA9TfpMzptuk1mXdUHnVYeCgAgf7NGkuBC/fv+I4wiltEmxEJkcefQO2+r8wkO3CZW9eUkT28pudLboq/cOY3FhvlC9/cqZ9r6T7LvhSqmvC/kyUMQ5GdhIyyMlIwubde6PfeqW47i1u0KO3s0m+1jzn3/dCzh+3c0+o6Bl92pMy5Kyw0QalgFtuwcA8t0guFwHNRA4JUC4DAvs+jMXOI5QunZqZ7i+hNl1W86zrc7XXHqOUNkrO3ewrexGDYA1p88VqnOAnE9To+sJl6JD/Rn1vw6olyx8DOVDI/ziNl2x18TTceJ5tyNNzcdKwMo9d/0RnHz+Huw7dQWWdOiNCUnJhjAxqW2+BIBRwtLDGTAC/i0nn4gKalpqCv7u2GOOIpUp40YIdeq6sTW21Xfi6KFCZZ82YaRtZTdiALx75BFMTZGihD+qP9KW9sQ7+aLZizNFI3qK9nlKn5iSijRirj5tM87Z/qRzCT/IryDYIDn1qmdw2KJLsE2fUZic3kCo78nAHQAobPO19acPpjlZkLnsaiCwTIZQEikZUe52pTlvxSKhjtwgI92WpQ9abqF3i7QZRdGzC3cj7x1TM0iovgFYkZOck69iAHgqoD6ycIk5n/jEJGzRdRAOXXgRzr36WdeSfrARoP0/79rncfiSLT7DJzFZOBR1zLiHaXM6ppm2e/LFCBhGgKxICooiKoz44G1XOYZY9t5wmXB97XCApKUH0ba6d9cVjmmnfTdvE66vH6/P6j2q6ahbp16DZATwMio7eSWtsc+Us3DWFQc8R/oa+Qff5+x4CvvNXIONSstlyaiRfMj/4wynCjWXWw0EKD64EeE7IU3TxoX4l3cPO4JcyJM+Li7uhPLrxaBVi1KkrWlGRrVG0tDWQ9FtcPHx8WjnDgY99f7ynRewcVGBUBsFtOkCNbqa7lLQlP86GXE7ArCICVMa7bfqORxpa10w+fH/J25HnHDOLdi23xg7/QXu5CUB3X2LE/gRoJCoH+hVEKGeX3LqVMsIUQ+ZhHq2Y9tWMSnCUPXUvrvknDMtq+/mdWcIl7eiQ7ll5Q2FuZ7vTjtlsnB9/e30vkNDrOYAgHC8Dk1WY72nZmRjt9FzcebWR5j4o/gHBBtCtM2wW+08TMvMlSW7evKhHS4tmNUYASMI0PGgeoQt5LM0wnxq3y5HkMwZC2aGrIMeHMg5jbbl6SE2I88e2n8LUgAfPWUL9eyKxbNNL6uR+gWneeKeG5BkKVQdDHw31UiHsDlNmdUx/NOz87DXpGVITm/BxMb/nzjij4bHvGsOYd9pKzEjR8rWVT394K8AUGOz7PLrHYgARRJ704ByPUk4aSngi7cOKU80Rx+786SyG6l/YX4efvjyAdPqe/y1g9Kmwl954m7TyhlM4kb//+NvnpNW3/q46q87cN9/fwD4yogsGklD+96JrMjBLRqx8e86DYFrn/fFF8jIlbaUFYvOolDXpzuQg7jINiPQz7/FJBYhi/jMpNphyhMNEVS71i0j1iNWhdqpXWv86BX5RgAZFjKWKqgeHcrLHNEm40YOkdImflnua3Of0vv6OVYF9qHQuJVjFvCIX+c0vxEjiGYEKEaCxdsItzrQ+NXbX/h5yQhQtCkpCtgJRwZfeu5ZUupKmNFMgMzlgOf33+rLU1Z7bN2wQnkDQMYuhwC8bpfcN8zO7hxZBngABifJd1x8PLbrP549+i0g/mBjYda2A77zCcjBMlIbSfztbgCgiJF8MQIxIVAEAN/JEEBaH3/p8T1Kkw7tWsjJzpLWGWmdfsPKxUIxAsjb/8K1y6Ss+WvtSGcfUDhdo9PyVqSj5QkKKqWVWfD+PQDQvnknXOTpf7lgfWPCLb95e/bqt4H4gw2BqZvvxabte8XUZhLk4mh94KBGTugIXEY1EFgjQeh8wk3b1lT3Bzh3xULpHZFmA666eL0uQ4CC/NCBN6Jb/UK13fmr1A7+Q+v+zZo2ltkOK9XoSlFLQTtwpM26hWp7+i61QTYOmrsBT7v+CK/zK2AAaAbBkPkbkZwvw7WbxO9phwAbAWiaM70AACAASURBVFG7Iz9ACJBSIoGRIpg1g6vw75++puzokwyURnnmbNuhqH2TxwxHit//4sO3I8UfoBE+/dFn+u7qS9Yj+UyIRvgL114FjRoi7am3YhRv5B0/fvIaDh3QW4qs+TEgx79EB3TlZAB4JFy7yfq+rMcwnHX540z8ChG/ZgDQncIol1fVypT/cHn9FgAKHNAvuIgKINAFAOg86nDCpOv7MxeeoiwBEWndcPn5uuojCxcr8tm940KlsV82f4ZM7CkyWoUC/SdaEUwnf/Lurzn9MiZ+RYk/0AigzyOWbUMLdgu8DQC0zMsXIxAVgc0yCWrHReuUJaJ//P517NO9s0wiUiKvfr26IdXNyMjcijTbNq2RjdPGqFJt/wNE/g/L7FvBeZVWVCEFpQkmGf5f3zY+q/Gac+WTvuiLwe0p+f/3AKCx/d2AS6A6AuQ9ShajFCWdkBCv9HkB7xx+GLMzlTjtSwre2VmZSCfpWUHkRt5x3+4rkWRClnwBwG8AgMhV5YuW1x6SWOcT8EtMSvHFp7eauPh9cg2LgXPOxaSUtBPaVrLMUHTMfJU7CpdNDQS61cci/3+yhI/WuWl7mxHCsCLN3TdsNbPTWZr3PTderizOzz14C6anST1N7ScA6KxGlwlbCvL2p5jtpshBVn5TnHjubTzqd8iUfzSjacqmvUiHMJklLwDwGgBkhpVW/oER8CNwlkwhpFG2ytsDl592ipmdzpK8Vy6Zoyz5v3Jwr9Stl37ZpGOtVb+2yexHgXnRlP/sKw8y+buE/DXjgAIItekzykyd8RzHCVBdbdhfPhq5PBaocEQ/k9f9m8/epyRJ0Zr5rLoxZnY6U/OeOn6Esrsu3nhmH+Y1zJFdf1pPJxlV+Vov2mdCpo+L80Xz4+19cqfgNQJW5d67bjnGxyfI7jdafvsAgELB88UIhEWA1ov+GFIJGZzSLCpopKwRQMf8jhhSpXUQx9xHVfe39IhiPcsyRP7U5jJlCAA+B4C8sFKrxg+nmhHhLzE5FatP28yjfpeN+sMZHaPO3GFmKOHr1OgqXAqVERggc2sgEQGNBo8duEvJmYAfjr+Kc6aOk01YpuU3feIoZcmflnxMGPnTlj86v0Lliw72oXJKbXcKHjN+/W4mf4+Qv2YUTD5/DzZoWChVlgJk8wyVOxKXTQ0E6JQpqQJI3up03K2e0aRVz9JywFmLZkmtr2z84uLikNb8Vd3uRw5/Ju2uWKxGlwhbCjqb/S+y2zu7oASnXXQ/k7/HyF8zAmZufQQzi8rM0En/BwDVYaWZf2AE/AjcLFupZaSn4QO37lDSCCBjY99N28xwXBPuxFkNMnDPzi3K4kZb/ahtZcsLANykeG/MAoC3ZNe7UWk57+/3KPFrBgDd+6+8F3NKOprRr/5av1OlTPG+xcWzGQGKD3BMtnKjPeHbN69VlsxoT31Vz65mdDpDeVKQn/eOqrvPn4L8SN7nr+H0kuKey+SQKH2vf3HrLjhnx1M88mcDAAevfxQHrL4f88oqtT4h8/4OAJAByxcjEBYBCid5XLYRQPnRNjxVzw6gafabt2/C/LyGMjucrrxyc7J8hwapOuVPsf0lh/cNxIdkTvVQptIO09L6V3Gbrjj3qmeY/Jn8fTJABgD9DTx7P+aX9w3sH7I+kwGr+s6asOTEP1iDQCsA+LOmpGTehw/qi3/67SFlZwO+ePt537G/RMYy6x0pLzrSl071U/lgHzrVb9jAPmZh8jUAlFsj2obf0ke2o2xRq854KpM/Gz8Bxo9mANB90Nr92Ki1KUcLs1OgYTXgnYR9AeAfkYjL6G90LC6dEW+Vw5+R93z13mHcumEFtm9jilOOj0g7lJfhZeevRHqXkTJalYY8/SUf6RtoSPwdAHor3q0KpW+VbdUZ5179LJNfAPkFroV79XOgAaDNBJiwHEARYLsq3ue4eAogMB4A/m2U6COlS0tNwRuvuEBp4tMI9uUn7vbtGKho3wbj443HuKe0FR3KccXi2cobQFrdr9tyHqamJAcStszP5J08RgE5j1QEmi49GEmW9f6W17QV0uEwXiU5rnf44EbBBoDPCFjzAOY2q5DZ7ygvOjOgQSTB598YAUJgillGACnOcSOHIE0va4Sj+v3zXz+LFIv/gtVLkCLzdatojzSjQUsGyUlJvj/6TN/Rb9MmjPQ9e++uK5DSql4/rXy0FFI3tka20gnMjwzLUxzQxWi6NLDcQp+z8psgbfdiEgxPgl7GJpQBQN8NWLUPGxS2FJK9EHJ8qwP6HxdRAQTmAsB/QgiQFIFs2rgQD95zo2PIUSNJt96fuOcGbFxUIKVtw8gMydJsBeQ6WhHaAgAtUUjBIjUzB6du3sfkz9P+YWUgnAFA3/c943ZMzZbeL2mAxxcjEBWBhWaEPdWUK02PL54zBf/87otsCHz2hi0YkBPiaadMFlrm0Nozwv2/ADA/qrTZ/wAd70unqkkh/4SkZBy75oawit/Lo16u+y+zIZEMAPqt18KdmJiaIUUm/bJNAa0a2d/duAROQIAitJk2E0ACSbMBKgcOcuuof9/N28we9ZPSItk5zQmCXl/WDbLIH+LicMiCTUz+PPKPKgPRDAD6vfPUTRgXZ9wXKYRc3+WQPsnFVACB6bK3Q4UQSJwwaii+/9KjtoyE3UryoepFQZDG1AySOaIIlxfFzZ+qgPzGUgTakvhTKLk08l232nlRFT+Pgn8ZBXsZi1gMAHqmVfWCcP3M6Pe1sXQMfoYRIARGyVwbDadUaafAuuUL8Ov3j7AhIHlZgLYerjl9rpke/oGK6EcAGOGQrkNe/4fCyaTe70s79cUF1x9mA4BH/zHJQKwGAD1X1Kk6sI+JfqbTN7Md0ke5mAogQKeh/U2vQjTyPDmk7dy6QdkT8UKNrFX9jo5DvnbLuVhcmC+qMGJN/w0AUEwJp1zzjMhoqDSZjRrj7CsPxqT4vTzq5br/MvuhxwCgkMEZ+c1j7YexPLfTKZ2Uy6kGAu0A4ONQys+M71o2a+oL10shaVUlWFXLRUcg79q2EZuXNIlFEch65kMHRPgL7El5AECHpgjXn5z+Jp57K5M/j/x1yYAeA4Ce7bXwBkxIThWWV7/M09bcisAOwZ8ZgWgIkAfpizKUZqx5tClrhjdcfj5++9ExNgSiLA0QRjR70rplM1lKItZ8ngcAIlQnXdfGKoPRnusz5Sxdip9Hwb+Mgr2MhV4DgJ5vP3Z1rH0ylueec1KH5bKqgUAyAFBQiVgETNozdHDPuSsWOiqQkFUzBLSl7/KNq63w7A/VnncDQKoaohlzKWg2618yZLhp+1542vVH2ADg0b9uGTBiAFCawg4DQ/VDo99NjrnX8IOMQAACZwIAeXsbFTxD6ehc+tlTxuKh/bd4fkbguQdvwVl1YzA9Tdq0oJ42obZ36kEjT8iQ27TMXDzlskd1K34vj3q57r/Mfhg1APqvuAdTMhvp6auRnqWTOZ1mwAfQEH+0EwE62OUzGcrUSB7tWrfEyy9YhZ+8/qRnjIHjrx30HVzUtlWLSJ3a7N8+BYCedgqewLtph4IUfIYtuoTJn0f+hmXAqAFA6bpM34wAcVLkuH4gt16gP3FSjyNAa78HZClVI/lQZME+3Tv7psE/feMp1xkDdH7Czds34ajq/piYmCCr0xvN5zEAaOhQmadtf28akbHgNC26DTas+HkU/Mso2MtYiBgAlLZxF2nnd9AOr1yH9mkutgIIxAPAapkBVYIVbqz/JyT8zxigA3yOPnYn/v1T5+0ioDIfefQOPH/VEuxVWYFUp1jrb+JzFCxnBQAQiTr1miQDn5SMLJx5GR/y42XyllF3UQOg/4q9mJyRK0s3bHRqp+Zyq4NARwD4lQwlKysPch6cVDsMr9i0Bumse9oiZ5VzXqzvoTKRsUKOfBNHD8VGedI6tSzl8AYAtFdHzAyVhIzUt2XI1YBZ63n0z1P/wjIgagBQ+g7j18rq4986eGbPkELgROYgQLsELjbzWGERJd4gIx37967EpXOn4XVbzsPDj9xhafRBisr34sO3+95NZaCykGOjSJ1MTPt/ALC5vj3psBynXzNl4FTQogNH+2PyFyZ/mkGQYQBQHg1bdpOlPy5yeifn8quDQCUAvC5D6VqRR1FBI+xd2Rmnjh+BZy+bh9s3r8U7rr0EH797J77yxN1IcfRpLf6Ltw4hkbg2uqfP9B39Rs/Qs5SG0lIelBflSVP59A4r6iLpHa8CQDd1xEmoJDT6f08UFzqUZfz63VKUv4wpZM7D2b4EsgwAOjUwLj5Rhm75nk8LFNIznDgIgQQAWF6/dvydqPLl9HI812PAkaYCl9WP/Knt3HKNi6HeURVo2/7jmPx59C9NBmQZAJRPSY9xUeU3xj5wvls6PddDHQQaA8C9AEDnw8sSVM5HLpbUNnsBoFgdsZFWksOicpeUksZ7/pn8pZG/zCUAMgAoNkBSWpYMnfglAKRI63mcESMQgADtHbc0lLCo4vdI+lcAgA58cuNFMiesGLuNnitV+fP0vbOn72W0n8wZAMqrbMg8YTn39xU6JIsvRsAUBGgb2RQrDxaSQQAuzeMjAKhz+Na+aEL6gGjbpWbm4JwdT7EBwDMAUmVAtgEwcM0DsiIE/tblOiGazuDfLUCAdgvIslg5H2NYUhu4+WoqYzdK78lnSFX8MkaPnIfzZxBkGwCUX/nI02XpwmFuVgxcNzUQkCWsnI8xA0ANKTCvFBTcREg2aPQ/96pn2ADg0b90GTDDABi0dj+mZhcIyby/zzxqXrfknBmB/yEgQ1A5D+Mk52Y5pF0Mvxc1AHqMXyxd8fPo/X+j9z5TzsSa0y/DmVu9GVXRDAOA8mw9fJEMnUgxQMh5my9GwDQEZAgq58EGQCgBFd76l5zWAOdsf5INABNG/4QrxP1ymE16dh6WdqrCbrXzcPhSbxgFZhkA5AuQ3KChDL24NlTH4u8YAVkIyBBSzoMNgFDySIcWCclGlxGzmPxNIH+aARm94uqobeN2o8AsA4DybTlodlR8Y+gf74fqWPwdIyALARlCynkYJzpZ7ahaPvkA8K8YFFxY2YmPT8AZl+5nA8AkA6DXJGPOaunZjbC0ogqrpq10fNuYaQDQQUEJSSlh5VtH3+irWufm8rgHASEBVeSUPKE66OiIJ7xHUt3dI0kn1mSJUVy1dC0rhziCYE696hkcOPscR5Q10PehZffqE+RZwz3Wu13tQ1gT5oF1MfrZTAOA8i6uGCaEsb8tbj6xa/F/jIA8BIQElOLv795xoe8EvcwG6UJ5xap47Hwuq0GGr65UZ6q7hLLIa0m1chIONjVm9U4pSt4oOcSSjnYnFLfp6pODzjWnKF/ewDpl5TcVkt+eE5daXl/yT6A+V1jWCU/d8bTw+802AHrMu0oIY79++cYlh4GppaG4ND4EhARUO5CH7t99/DI+ee8uXH/mAt+hPomJCUJ5SyBX4fdTHfp07+yr01P7dvnqGFhnCWV0oxiWioaczilqJqzcA8nOjM+B5K/JgVOMgGAHQK38eu6jzrrK0jbSyF8rowwjwGwDgPLPalIurIcAoMaNioLrZD8CQsIZSIbBn//y7mF87K6deP6qJThiSBXm5kiJky1UXk15hLs3zM3GkUP6+cpMJwpSHYLrFfh/uHx0fG+/BMgvwSod9Q/ZnrQ+bQZpy8ozFPlrdXaCERCLA6BWn5D3uDicve0Jy9oomPy1MokaAVYYAJICA90ov5tyjoyAcec1n+IOJMNYPr//0qN4/y3bcdPZp+Ok2mFY0aEc7Vg6oHfSu6kMVBYq0++OPRaR7EPVT1NEAnc3yuDzAnhgfEKi0of+RCJ/rd6qGwG9JhpzANTql5XfxHby18oiYgRYYQD0X3mPDGdAOiDITaeDulHvObJOIUdgWueKdg9Fika++/2bT+Oh/bfgHddegpdvXI0rFs/GGRNH+2YOaAq+Q3kZNm1ciDnZWb6/lOTkn8tNn7Xv6Rl6ltLQrAPlsXLJHF+ed153qe8dn735tG6iD1enaPjE8LsjhSZCoRsCAAUw+bl99H5uVtHPMnLROyMQC/lr9VXZCHCKA2C4kb+GsXY3agRYYQDQOwo7DDLcH7Q6AsCACP2Of2IEDCEgJJjhiNEr3wd0TqM4Gmo0hRPNFMVk8LwLlDQA9JC/hoGqRoATHABjJX8NayNGgFUGQMWUC4zqh8B02xXu91w0hyIQKGC6P3uF6MPVU1M+AneHik3YYt8rgAUmJCUreeqfEfLXcFDNCJDhAEg+BHpnT/Q8r5f8Naz1GgFWGQB0PkBSWqZu/arVy39/O2yv4x8YAR0IUHzpxQDwZJCA6RbQcMTole9F8fO3AbWFG2J+xwMAbVnSLUdamhZdB5lKLHpISHtWhPy1eqlkBKjuAGiU/DWs9RgBVhkA9J6iTmJxF/w7a4p16Hl+lBH4GYF2ALAOAF4W3aKldTS6e4Xow9UzEAvBz/8FgFf8bURt5cSrqyAGqNr0vwzy1zBRxQhQ2QFQlPw1rGM1Aqw0ADpN3mDYMNbqBQC0xMYXIxAVARqN9QGALQBA8aRlCN9Jebz65D2eNQKo7mbh6m8zajtqQ2pLJ1wrRPCIi4/HWdsOKDMDIJP8NVxUMAKEHQC7V5vSRrLIX8M6FiPASgNgwOr7MT7xF+dlrZw677c4QRFwGe1BIBEA+gHAVQDwuU7BMkRmqSnJeNOVmzxnBNBuhYz0NEOYGWiXrwDgDgAYAwAp9ohWTG992EDdfsawsKzCFGLRpvL13CnUbFGrip/LJlKv4LQDZq+3tZ60hS+4THr+pxkEPVjG8ixhoqcMsT5LbRgpbLCVBgC9q2HLStF60vHafDECPyOQXT9anAYA9wDAd7F2DNnPnbVoFv5w/FXXGwJUx+WnnSLaiUXSUxuTox21ObW9KhftURZa/+8xbpF0YomFfIKfMWPkr/U3MnJkhLANLnOs/6vqAGgu5uHDBlttALQetlCk72tpW6rS6bkc9iCgOfEdBIB/asrF7nvvys7460MPuNYI+NVz92OvSnNGhQbbjtqeHDlVcCKsMFgHTanh+HU32W4AmEtE9pI/GQkqOwCai31oI8BqA6D3oht/lneB/kLGP18eQ4CsvjMB4AgA/EdAeGQIYNg8aEng3BUL8fvjr7jGEKBR/0Xrz0Cqm6q4+8v1Tn2f2AgAlTb0jfki2CSlpOH8nS/aagCYS0D2kz8ZAHSAj0g7UfyAWGcbjDxnbhucbARYbQDQ+1IaNBRqAwDYZkP/5ldajAA5fvU224lPRBlEStutoj0++8BuxxsBT993E3bp2Fa0w9qR/ncAsNVCJ8KdkeQh2m8lHXqbSizRyMhc4lGD/AkDOsI3WltE+p0cCKNhKfq7uW1xohFghwFQ0H6AUBsAAJ20yZcLESAHrxEAcAMA/ClSR3TKb6Oq++PrT+9znCHw2lP3+g4FcgrOUcr5BQDQYSIjTXQipC2MhhVbj/GLTSeWcMRkLuGoQ/5UfxUdAEO1i7lt8osRYIcB0KZmieF+4u9jP/K5AO5hfyWc+ESUd7S08fHxOG3CSDz62J3KGwJHHr0Dp44fgVTmaPVy6O/f+50Ip0t0Ikyuj1/w/0TwGL3iGlsMAHOJRi3yV9UBMJQBQN+Z2zb/MwLsMAB6zL9ahm7p5B4K9F5NlHTiE1HgsaYlJzraQqeSjwCV5fZrLsae3TrJ6JhOykOWE2HnWNs/1HNxcfG2hP81l2DUIn8i1FFnXSUmmxYfAWyFETBg1T602ggYtPYhGfEAZnmPNp1dY0c48YVS0GZ8R6f30Ul9dAzvdx+/bPnMwI+fvObzUTh97jQsaCTslCOmWAWmziW3jVEnwqki5cgtbm756N9r5E9kqroDIJUx1J+ZbZXdtB3aYQRkNSkX1RkXOZsO3V96RzvxiSh0vWmzszJxUu0wvGLTGjx24C5T4gmQJ/9Lj+/xvWPi6KGYndlAtAO6Pb0eJ8Lz9bZ54POte40IqfhDkYGM78wkFLv3+UfCxwkOgOHKb2ab2WEENKkcLao/7nM/hTqvhq5z4gtU1FZ9bpCRjv16dcM5U8fhhWuX4Z6dW/DFh2/H3xx6ED965QB+8fbzJ80Y0Hf0Gz3zwkO34Z3XXYqbzj7dl0dVz65IeVpVfhe+J5oT4V0idbbSAdBMIlGZ/IlYneIA6AUjoHzkMlF99Fvn0aM7S5zuD9FKoVq/FVGEnNa4FzljZxl2f6+PM/AoAMwGgBx/l35DBP/hS7daMgPgZfKffeVBhLg4IdIx+wjgcMQf+L2ZbWjlTEDXU7YItQUA/MQ7AewzKFznxBcXB9i9TQ5unF2Or183AG9e2RnTUxNEhdTz6QlDwpIwJWwJY8JahDAVSqs5EZJRYLhOUzffa7oBYCZxqD7yJwKV4QA458onTW+nQLIP99nMtrTKCOh31l2G+0tAX2thHwV6781tzThON6AxZQiErjySE+Oxumsj3L6kA/7u1iH4/cMjT/g7dnU/bNU4Q1eedtZHtXcTdi9f3e8ETAljwpowJ+ypDVQrt5XliU9MwgU7D5tKLGYShhPIn4jUqQ6AbjYCktKyRPv+EO/RsLU17lD/OgqtSt7Roo2lRPq0lAQc0aMAbzyrAj/fO+wkcgo2Av50zzCcUFWkRNmd1AajehbgH+4eGhXfP+8bjveeV4nTBjfBrPREz+FM69LhlLyM75n8/+dZ72QHwHByYGbbWjETkNVYeCfATGvp0P1vc6UTX1FuCs6rKcEHL+iOX91fE5WUgo2A7x4aiVvmt0MyHpxEwnaUlTC67LT2SJgF4xjtf2obaiNqK2ozO8pv9Tsbl1eaZgCYSRBOGflr5Ol0B0CtHsF3M9vYbCOgoG0/0T6+2v2UbH4NXenE17woHRfXNsMnL+2N3z40QjcZhSKrt3YNwsFdGokKrWvTV3VoiG9eP0AK1oT/K9f0x/XTWmHbEvduWSzvW2uKAWAmMTiN/OU4ANoTqTGY8EP9b2Zbm2kElPQcL6oL+VAgg/aB6534QhG4jO9oZLtzeSfMaZAkKryuSZ/bIAmvX15haNQfa5sEOhHGC3pzWz3Kj/S+bqPnSjcAzCQEp5E/EaabHABDGQD0nZltbpYR0GroAlEduNcg/3kyWaATn7LH6UZSlsG/RXPii5VcjDz34W1D8JTqppgQL7a1KLhOTvo/MSEOZw1tih/dfrIDpRFMY03jJifCvlNXSDUAzCQCJ5I/kaPbHADdYgR0GLdG1AB43pNMHmOlXRmJLzM9ESf1K8ZbVneJyYkvVlIx+txr1/XH8X2L3LS1LWqnpG185Bj5xk550/1G8f/j3mE+WSCZINlwkgFFZR0yf6M0A4DJP3QoXVEHwLLuQ6W1UTjylvW9mTIgeyag87TNov31rRi50DOP0alkrjpOl5SkqBOfUXLRk+6FbX1xSFf3+wcM7ZaPh6+skrbOrwfjaM9+/YDznAhHnblDCrmYqfidOvLXSDWzUWMhouk16XQpbaSVx+y7mbIg0wjoPne7ULvUB+M67hlmj1DRLACYBgD3AMB3ThsBhStv6yYZuGJSS3z2sj7SnPiiEYiM3w9vr8LZw5piWrJ7dgyQZ/+pw0vw6I6T9/TLwMyMPMjxk2SHZIhkKZyc2f39+PW7hcll/rXPY3GbrqbUsahVBZ561TPCZTSb9MLl73YHwHD1pjajtjNDvnNKO+LAs/cLnyLYZ+lu0fL9OQIvuvqnfH8oUgpJKnQOuRkCYjRP8vYmr+8Xr+yr5AhTD1FRjIGrlnbE8qbO9WBvUZSOm2aX46d7ou/n14ONHc/+9saBuHVBO+zdLhdVciKs23i3MLm2HzRJVJGGTO908idy9IIDoB1GQNPKWmEDQEI0wB9dzfJBlWsEAEsB4DAAsBNfUNQ+O0gllnfSSPSJS3rhkjHNsWl+WkhFa9RgMiNdSUEaLh3bHA9K3D4ZC05WPqOSE+H0Sx4UMgAmn78H4+LlR1N0+rS/Roo9JywR6nPZBSVC7aOVw667WcsBcXHx2PO0nUJGwIBV9wm1DQD8FwDI1821VxoAULSjxwHgX2YofKvzVM2Jz0rioS2E5CuwanIZdmyeqcRIlHYxdGqRiavrylwx86K3PcmJ8NY1XXyOpXY4Ec7adkCIYDoOqRNVoieldwv5E+l6yQEwnJFhlhFQ0mOckAEwaN3DJ8meAT5q4Eb2L6y3bC4EgK8MACIDVKl5OMGJTy9xyHieyGf/xh6+ZQ8KMNQgzXwvdiI5ehcttTy0sQdSGWTUxQ152OFEeOqOp4UMgNzi5nL7qsPX/INJ0GsOgMH11/43wycgI7+ZkAEweP2jGBcvrPNy3WQAtAeAm92wru9UJz67iez9Wwb7lgwo2NCaujKc3L8YB3TKwy5l2VjWOAMb56VidsbJQYjoO/qNnqFnKc3kAcV49pQyX5AemtIPdeCR3fVV9f2BToRtmprnRChqACSmpEozANw08ifi86oDoEb6wXfZMwEJyWnCBkB8grABQE7wjr+aAsCNAPBvJ4/43eTEpyoxcbn0nzEgAzOznAhFDYCkFHl+JYVlnVC0PMGkY+f/tMVSSJ/GxaEqRwDLwFG2AZCYki5sAJAvgVAbAWQ4mf1zAGArAPwkCIIoiIbS2xmJT4ZS5zzsIVOn4/7BbUNwx9KOvuOMRXcUzNnxFC8B3BA6gI8o6XndATAQP1WXAACEI6mSn5zjrjgAWAQAXzuN+L3sxOd04uLyyzd48rOTDRnPWr8XdwKcIvR+rRyBd7fMBLAD4P8MK9kjf01WSnqKOQEOXv+IDNmlE2wddTUHgGc0EJ1wz8tK9p3XTue2GzlOl4lHPvEwpmpgWlogNgU/49L9QjMAUzbtxfh4+UGn3GAEsAOgeYcESdkGuPp+GQZAolPYn/YrLgcACl4go+Km5sFOfGoQDBO92u0gelQxEXjgVK2Rzx04ENBJGLID4FFfBEezogE2wNcKpAAAIABJREFU7T5GeP2/avmdohz2fwBAs+nKX7St7zmViZ/WMru3ycGNs8uRjl5l4lGbeLh91Gifrq2yhZTYxHNvPYm89BoBHAr4ZB8CrzsAmrHmr/FXTmknHLRWPBRw78W7hPqOf5u88uRfBQCfa+CpdGcnPjVIhMncue1Q1aGhkBIbveJqYQOADAaz1nlJXzlxOcDLDoBmyoLMw4B6zLtKqO/UB8n7UHX2pyl/pSL4sROfc8mGDQX12m54Zb6QEqtecKEUA4CNgBNnAbzqAOgU8qcgQF2mXyTUdwDgVVUNgCQAuE2V0T5H4lOPOJjM3dEmM6ubCCmxvlNXSDMA2Aj4xQjwogOgk8ifDID2Y1YK9R0AeEpFAyAdAB6zm/zZic8dBMOGgtrtSMcNi/T1bqPnSjUA2AiQEwGwduW10tuF2sasP6eRPxkAZUPmCfUdANinmgFAcYmPiigEo2nZiU9tomAid2f7XDq/nZASa9N3tCmkYCYhqO4T4DUHQDPbWuaaP5F+4F9JrwlCfQcArlXJACgCgLeMEriRdHFx4DvffNuiDhzn3SHHA7Mh4C5DYPeqzkJKrHF5pSkGgJdnArzkAOhU8idDIL9tlVDfqY+gu1YVA4BG/r81QuJG0rQoSscLZrXBd24axNv1mPhZBmyUgUcu7CmkxGit2qxpYa8aAcIOgD2GmdomstrbyeRPBkBmUZlQ3wGA6SoYAHQYwTEjRK43Te92ubhnXTekk8p4JOmukSS3pzPb883rBwgpsfjEJFyw87CphGMmUai4HJDZqFioTXpNWmZqe8gwAMxsUzOn/QOXABJThE/ZpC32tl4Uh5g8EYUELlr6vu1z8emtvZn0bRzpMUE7k6DNbrevH6jBhHixA02mbr7XdMIxkzBUMgJkRABU3QHQzLa0ivz7nXW3DM4ssZP9KQTh3mjkLfJ7edMGuPecbkz8TPwsAwrLQLNCsfMAhi/ZYroB4JXlALc7ALqB/GkWoNusraIGAIUBTrDTAFgjQu6R0qYmx/tC8n7zIE/1mz2C4/x5ZC8qA4O7NBJSZj3GL7bEAPCCEUBYRtKt0X7LLiyxrC30LgW4hfzJAGhTs0SoneyOAjgUAP4dTZiM/N6jPAdfu64/j/gUHvGJEgand5fRsWBkqZAya9VzuKWkYyaR2L0c0KLbYKG2KFPUAdDMNrNq2j9w/b9x1xFC7QQA++0a/dNxvl8bIfdIaWgf/7qprfBv+3nUzwTpLoJ0e3uKxgLIKWpuqQHg5pkANzoAuo38yRAgoyMSH8bw24V2GAB09jDFHxYt/Anpcxsk4f3nd+dRP4/6WQYcKAOPbhbbCkhnq8/Z8RQbAYKR8tzoAGgm+ReWVeCAVftOCM4TOEo36/OgtQ9hQlLKCRxogFOn2GEAbDBQ0IgVbd8sE9/axfv53T5K5Pq5d1bjs7uGIgXlEtENo1dcY7kB4LaZALc5AJpN/qfueNpy8iejovvc7UJ9xd/P2lltAHSVfbJfr7a5SMqDycG95MBt6422Fd0JQNHr9DqFyXreXKLphEQ0ssoaKR83OQCa2yYVP7eJWaP8SPm2Hr5I1AD4fwBAs/GWXbTfX2qkPzpG9M/7hjP5O3DKl0ndG6Sup53H9ikUUmolHXtbQpLhCNRcwrHGCHCLA6C5bfEL+ZMsRCJqs34r7DBIqK/YcQzwRpHpveC0wyrzkQKI6FEw/CyTDsuAujJw3szWQkotKTUd5+98kY0AAT8ANzgAWkn+dhkAKZli22YBYLtlQ38AoGhD/wgmcaP/U1Q/M0f+L1/dD08f2xzblTbAjNQEIaVktI6cTmw9mPHzJn7j1u6y1QAgQjCXgMybCZi97QmEOLGIjHZHADQX+xNH/tpMkFmj/HD59lq4UwYn1VlpAOyRpZArWmbh53uHmTLypxmFhaOaCYcllVVXzsebJMbtbrzdu49baLsB4FQjQIoD4PYnbcPfDvK3Ywag9dDTZBgAja0yAHoBwH9lKLX87GR8d/dgU8j/L/fV4JCuwtMqMhqG85C8RVSG7HEexknZSuwoiI42MrP7fupVz2BRqwpT+vOA2eul19PpDoCEiRmyRm1IbRlOnsKN1M36Pq9VD9F6HreK/Ok9R2U0SmJCHD5+cS9TyJ/WhZeObS4KKqdn4mYZsFkG4uLjcdYVB8Iq63BK3KzvzRiVVtbON6V+bnAApJ0gMvhGy4P2+UfbgWEW0YfKd8Dq+2Xs/7/TKgNgmAak6P2SeW1NI/9Xr+0vvAdZtH6c3hkjTG4n9dtp0KnnmUKQRo0EmUaAWeRPdXODAyDVQ5YREAv50/tCEbVZ33WadK4MA2eeVQbAMzIU5uDOefjdQ+Z5Ly+qbSYDVM7D5tGfDFnjPNQn+Ght1LzrQKUMACIJGUaAmeTvBgdAwln7EzUCYiV/qw2Aok5DRHmGluOLrTAAekTrqLH8npWeiO/ebG6Uv04tMkVB5fRM/iwDishAYlJK1GlbjSisvIsYAWaSP2HgdAfAUO1o1AjQQ/70XrNG+8H5Dlq7H5PShLnqTSvIn95xfywEH+2Z687oZNrUv7YnPJ23+jF5KUJe0foD/x7bDMXguef/PBoMRQ52fWfECDCb/AkLpzsAhmtPvUaAXvKn9wYTtVn/V9SdL0NPX2SFAUCn/f1HVFn1bJtj6tS/ZgBkpifKAJbzYBJlGVBEBko7VSlpABBh6DECrCB/KpOoA6DVxzGHI/xQ38dqBBgh/wXXW2cAFLQfIEO/VFlhAJwvSv50MMhzl/cxffRPRkBpQZoMYDkPRZS/qOxx+thG2SrjFJ+QiKdc9qijjQCryJ9IMzOvWEh/9Z58hrJYU/2iGQFGyJ/ynXfdEUtmAPqvvBfjE5OF2ggA/goACWYbAHEA8JGocqgb0NgS8icDoH/HhqLAcnomf5YBxWSg58SlSpNSpJkAK8nfbQ6AoWYBIhkBRsmf8jz12sOWGABtRy2XoV92m03+lP8AUfJPiI/D39440DIDYGZ1Exngch6KEYCoHHJ6Z88EZBeW4mnXH3GcEWAl+ROJudEBMFYjQIT86R2zr3rBEgMgq3G5DH6hbfmmX2RlCBV28oBiy8ifZgDWTxc7hES0vpxeTF4YP8YvnAzUrrpOaQOASCRwJsBq8qf3izsAliqPcaBBoC0HiJI/5Tlt2yHTDYDuc3cI8am/b3xpxfQ/rS98Ha4zxvr94e1VlhoA1y83J1xnrPXl55jAWAbMkQFybgtU/qp+plCzA2efY0tZW3QVO1pWZQfAcO1NWEcK7xsuXfD3E7c8Y7oBUNx5uAwD4GrTh/4AQB6GQoUd3KWRpeRPMwAUYli03JxerN0ZP8bPDBmg0MDTL3nAFmINJgtV/+87bSXSron07DxDerDXpGWexbd285OmGgD9V+zFhKRUQ+0S1J8s8f6/OOilugt+y+oulhsAb98kZgGL1pnTM/mxDJgnAxXDpnuWoPQaHTO3PIzDl16G3WrnxWwU2H0EsN46ynv+CA497zFTDYCWA2fp5tAQuuQTACDnfNMvijJkuMDZGUn45/uGW24AfPPgCKTDhkTKPnXqNFyw4DT+YwxYBiTKQHV1tVC/pD6dnN4A59h4TK08wvkl1K2VeUY0CuLiPIvt7KtfNJX8B655AJMzcoTlHwDOMZ35/fGFhY79nVdTYjn50xIA/YnGAhg9upYVv0TFz8YUG5MkA/Pmzcf09HRhJdh93EKeBQiIlS9qQGhGQZ8pZ3oW17rLnjXVAGgzYqmw3APAPwGgyAoDYLLICJrSPnxhT9sMANFYAAMGDGQDgA0AlgETZKBr127CijA1I1uK05cocXJ6e2YxzMB9xAUHTDMAKO5/ak6hsNwDwD1WkD+9Y4uIAUDx+L+6v8Y2A0A0FkC3bt1Y+Zug/HkmgGcCpk+fgXFxYkt0pJt6TTzds6NVMwjQy3nOucbc6X9Jo38yIAZaZQA8LWIA1PYutI38fbEAprUSsrbatGnDBgAbACwDJslAs2biR3anNsj27Hq1l8najLpPuPRp00b/A89+EFOyGgnxkZ+L37PK+Y88DCnOsOFCb1/SwVYD4IYzxWIBFBcXs/I3SfnzLADPAowePdqwbgnUS11GzuZZAIm+AGaQq+p5zt95BKvPNc/7v/XQ06TIOgAstmr03yKwkxn5fHRHP1sNANFYAJmZmWwAsAHAMmCiDBQUFAgrxsTkVJyx5SE2AtgIMCwDk7aaF/yH9v0npWUKyzkA/Kl+WT7VKgOgxgjpa2nSkhPwrw+OsNUAEI0FEB8f7/NY5tEqj1ZZBsyRgaFDh8lQjFjet9aw8ld9dMrlM9fJcN51h00d/Zf0GCdFxgHgbKvIn96zUCNzI/eebXNsJX/yAeBYAOYobSZDxlWmDOTm5goryLi4eBy3dhcbATwLoFsGxl70lGlr/70X70I6xtoIhwal+RYAsq00AC4KKoCuSswfUWq7AcCxAJioZBIV52WOPNF2WxFdo6XNb9YWF1x/WDcB8Ajb3BG2yviesuMFHHzOo6YZAHlllVJkGwAoIq+l1x1axzJy3zi7XAkDgGMBmKO0mQwZV1kyQIGBsrKypCjKfjPWsAHAswAxyQA5/g3b8Lhp5N9h/FopMg0APwBAgaXsDwDPGyF+Lc0tq6yP/08j/uA/jgXARCWLqDgf82Rp8OAhUpRlSnomztz6SEwEoPLIlMtm/qxE7eaDppF//5X3YHKDhlJkun7b3yaryZ/e95ZG5kbuT23pfRIZB5OzFf+vn95aqBE4FoB5Sp8JlbHVZGD+/AWYl2fs5Lpg/dSsc382AHgWIKIMTDY55G+TriOFeCdApv8CAJl2GAAfBxRCd2V+e+NAJQwAjgXAJKORDN/VloWamhG69Uw4HTV43gURCYBH2OaPsFXFeNq253DwevP2/HeediECiEe59Mv2GXaQP72T9hwa7pAf3jZECQOAYwGorfSZlLl9AmWgqKjYsM4J1FcUIXD2tifYCOCZgP/f3rXGxnFd58O3+JJIig9RD0qkJEqyRFIkJZKSKFKURD1CiXo/KIqiRUmOE8OxDTt2lDiOYTutY8DxQ7ZVOE3TtKndNg83NmrUjQOjsVMgKVoEDQKkBZq0rv+0TZu0KdqgCXKrs+ZIw9Xu7MyeO4878wkQdrkzs3vvueec77uv787xgTNPvaV2+rjoj/f8l1XrGckiIu6El4ZFAH5qDyiv7997eTQSBABaAAAYO8DgfbT94fDhI1rOCOB8BYXA5PbyM40+nH7SX/AfufyaalqvZ0fLLN5OhAX+/Lt85GDebPwnXw3vECD72gJoAUQ74QOQ0T7pPrBu3bq88449Z5WUlauZK2/N6QFmAgZ8FnOicPXbKjXn72PPn8F/3djdWvx21od5ET7L8Yf2T1QZOwiH/b6lsVxUl7GxA5CD9VEONh0A8HeyScHU1JQqK5snilmLCBx64HMgAAmeBrhw9R118NE3fFvtz8DP//suvaCKSvT4LBH9HxGtDw35Z39YFIBhg77996EFkGxAAaEwr/0HB7eL8o9FAIamLoMAJJQAsMjPHh/3+VvgP3TfV1Rlg/xkS8tnieiJsMGff18UgHYADvs9tADMAwCAdrLbjLcF8mFc0jw0cv4hEICEEQDW9k/J+/o85G8RAM3z/u8SURUIQAZRn3yJBLQAkg0mIBPmtf+xY8e1LAbc/5HPggAkhADMvPC24lP9/DzW1wJ963XlyHkxSU0juceiAP6xGgG4+pFOUSM1NzdjDQDWAMAHAvSBtrY2UcxyUi0um6fOP/MmCEDMCcD0lW+pI7/xDbXr4/7t7bcA3/7adfpRxYdQpQG45O+vRQX8Y0UAoAVgXg8Qvfbktpmu3v+qvj0A/1iC/zvq3LPfUiee+Kba96nXfV/gZwd9633fxSuquKxSAvbpz7LuzkIQAI1D/9aUAbQAkgsmIBLmtb2O3j8VFKijD34RBMBUAnD1HcWH9Zx/7m019exfKN7Df/TxN9WBR99Qux8Mtqdvgb71uvXOL6p58xvSAVz691iUwD9WIwDQAjAPBHIB95kzk2rXrt2qu7tHrVixQjU0NKiKigpVVlaWCsTCwsLUe15IVl9fr1auXKl6e3tTz0xOnsVwfoDD+bna0n5dV++/Yc3WUHqGFkjg1b8jdsO0LR/yU9W4Qgr26c+/GDXwjxUB4JEAaAGYTwLGxw+pjo4OVVNTmx5Anv+ura1Nfdfhw4dBBiJEBrT0/qlAbb5wBQRgdo96mIAZp9/m7X41y9Z7zjU51giw3G8oh/3kIh2iilrD71F5hRaAmQTg3Llp1d8/oO28+EzByISiv79fTU/fCjIQIhk4flzPyn/0/uPZ+w6TTAzf/4pauLJXhIkZcs8viKg3FxCHdV1U2agAv1UOaAGYRQAY+Lu7u1VJSYnIDzMEXdbv4+mDnp4eNTV1DkQgBCKA3j+AO0yQz/bbDP71q/uy5g0vOSbt3g+GBe5ufldUYQt4o/J6+fQqUX3a29sBCgGAAgvAbNs2eH0uPy1gRG3o9rvmzZunhoaG0d4BtLc1/6+t9792G4b+MfSvzQeG7/+aqm8f8CPvvOQGhMO8R1TpqAC/VQ5oAUR/BODkyVOqsbFJ5HduQd7NfU1NTYrLZIEUXv3zIX29/2e1Jf9sPUJ8noyRCp7zr2vd6Ec++mFU5/3thENUcQt4o/IKLQD/krcOYBwe3hHocL8bAsD3lJaWql27doEE+DgaoG3lP3r/ID+aRj+23/OHasHSW0QYmCXH/IyI1tqBNqrvRZWPCvBb5YAWQDQJAA/5b9jQIfK1LIGm9Tt59wGXVQfZwXfM9UV9vX+s/MfohHx0gvf5VzW2as0fsznql0Q0GlXATy+XyAAW8EblFVoAc5NuFEDo/PkZtXy59j21Ir91IhMrV65SMzMXQAI0jgbomvtvXDuI3q+m3m+SSUTfxedU2fx6v3LIh9JBNsp/i4wQFeC3lwNaANEhAQz+S5cuE/mYE1j7dW3ZshaQAI0EQEfvv6CgQLE0a5KBC3WX9/w7Tzykissq/MpJkTji1wvhEBnCDrxReQ8tgGgQAB5Kb231ZYhN5LNuSQOrCmI6QO5L2nr/69D7BwGQEYDVuy/pPtjHnoteI6IiL+AbhXvtFfD8Piqgby8HtADkSVvH1MH69Rs8+5NbcA7qvo6OTkwFCEcC9PX+n0PvH8P/efnA0H1fVk3rd/iZj94iovIoALrXMoiMYgfeqLyHFkD4BGBkZKfIr4ICeDe/w3XRQYiS+B3o/ct6rOjxy+3Xf9tVVdng6xqk75iw3S8bMRAl6qiAvr0c0AIIlwAcP35CFRcXi/zKDTAHdQ9vETx16jRIQB4jAej9ywEMJCB/G64du0sVlbx/cJhP+eJ7RFSbDVxN+FyUqO3AG5X30AIIjwDwnDkL6/gUbKF976JFi0AAPBIAXfv+GwOc+99215dUz9QTasOxj6uNE48p/hsAnD8Ah2W7wbtfUrxjxOc8xEI/jSaAvFMZRUaKCujbywEtgPAIwNat20T+5HPAiso2PAzZYC/TGNp6/5ee9wWEGdw7Tz6sWofOpmRgs20LY6GYzpOf8qUMYQFknH+X26q0qk4U6y7y0N8R0VInYDXlmshQduCNyntoAYRDAPhgH9bXdxE8nu/hw4J4a15fX7/as2efOnr0uDpz5qw6ceKUOnbshBod3Zu6xvcUFRV5/n43ZS4vL1dcRy8gmNR7o9b7dwv2Tn6wcNVmteXDnwcRiOhCRO71N3fuVkQFvsS/zTd42L/JFIDPVU6RsaIC+unlgBZA8CRg40b9etrV1dVq8+Y+derUhJqcnHL1n+9lolBRUSnybVvAX/+e3t5eEAAXUwHaev957Ptnedeeqc8o3vK1aMOIqqxnHQo9oFBYXKpWDE4oPjwmzr1o0+q2/sgDqrRiwfU4zRS7mj77LhEtzAWqJl0XGS0deKPyN7QAgiUA09PTKT19TUGW6sV3dnapiYlJV6CfiRycPn1GbdzYrQoLC0U+bq8THyU8PX0rSIADCdDX+9+eE2QH7/qS6jr1sGobnlIN7Vv8VHeb40MVC5ep7snfzFk+04DUtPL2XXpe1a7Q3/Gwx7zt/ZtEVGUSuLsp6xzHtlXW1edRAfz0ckALIFgCMDCg7yjNyspKNTZ2MG/gTycD+/ePqaqqalf+7Mb/+/sHQAAcCIC23v+lF+YAbDrYz5vfoK1N3bT7zfcUqEUdOxVrypsGnKaXl4f7l/SOqYJCf6b7bm5r+goRlbkBVNPuEQVROvBG5e/LE6tF9Wpvb0eSd0jy6XPbNTU1IntbAVdTU5ua308HcenfvGZgwQI9Q4S1tbXwjSy+oav3z8ez2nv24YM9ZfVvnhZY1n9EMUExHVijXn4+unflyK2qpFwfobdyj8Pr40RUaBqwuy1vVsd2MMj1Z6IC+OnlgBZAcCMA4+OHrvuDG5/Jdg/3/BmopWCf7XleLMi/ke33vXx+5MhRkIAMJEBH799LO0Tp3qKSeapl4Ljafs/LIAKaFwrueOAVtWb/HarM/9X99vzAp/rd7hZITb3PXmHP79OBNyp/QwsgOALAcrnSRMwr93UO+2cjAfv2fUDLLgFIBN/sX7p6/1JfCvv54nlVqTUJQ/f+MYiAkAiwhO+q3RcDW9th851/J6IdpoK6l3KLkndUAD+9HNACuDlBpw/b6/qbh+1tgZPXe17wlw20dX/OCwOl5a2rW4gRgLQRgCT3/jP5U3FZpVq2+ZAauP1FEAGPRICnU1q3T6qS8vniWM3UNjk++z4RtXsBUZPvFRk4HXij8je0AIIhABMTZ0T+w4HIW/0kq/29EgTeHVBZWSUqNx9Ne/bsFEjALAnQpfmfIzGL2iys72Zf4ZXqvFVtx8e+DjLgQAY2nX9KLd64T/G6ipDa6/eIqNJkQPdadpGhowL4mcoBLQD/ScDu3aMi/+Eg533+XkFcej/rBEgTDNdd1yiK6d+D3n/2RYJ2P6tYuEStHr0NCwZtJIBX9LfvuV1VL1oljkm7rT2+/x8imvEKnnG4X2T0TMAblc+gBeA/AZCK/7DCnxeRHynwW8+fPHlafGARRIHe9y/M/bsDfzsg8fa1utZuxYfVJHHR4PBHv6o6jn8ypddfWFQiwiC7XfN8z7K+nXEA83zqIDJ+VMA+UzmgBeA/AWhtbRP5D0v3WqAc9GtLy3JR2VetWoURgIuXFHr/3gmAHagYAOtX96lbxu9TcV44yAv6Nhy9rJpuGVLFZRWi2LPbT/D+19ckfa/GUdzHCxEQNUQm4I3KZ9AC8J8A1NfXi/yHh+KDBn7r93p7N4vK3tDQkHgCcOLEScVz3IIkjGfpBoEoKCxWfPgQyw13n31cDd//itFrBvouPqdW7pxRtSu6VAR6+nZfe5eI9ngByrjeazeK5/dRAftM5YAWgP8EQLqvng/2sQA56Ne9e/d79nc70PHiRdPn7qXl17Gjwm5TvL9BBtgWrC1Q19abAlE+pnjo3i9HlhAwWemdflKt2nUxJcsckDZ/PjH8BSJaEFdA91qvfAx4/ZlMwBuVz6AF4D8BKC4uvu4L+SRvP4V/chEKFvPJp8zWM3zyoRRATX9+4cKFIhtatsTrXODPZg8ebSmvbVYNa7eljjHmefStd3whYFLwqtpyx++ojROPqdV7PqiaO0dVVVOb4tGLbOWOyOf/SEQHvQJk3O8XNVpUwD5TOaAF4D8BkA7/8pa8XEDt13VefChJTCxeZDqAS8vv1/HPknbx+mzrogp1dLBZPTK9Rn39kT71mYvrVE1V6AvTPPkmb5tjYlDTsiF1AuLyLSdSK+s7jj+Ymkrg7XV9l15QAx/6nOKjkXnh4Y6PvZoiDrwgj//m/0wm+i5eST3D5GLdgbtV69CkWtK9X/FxyFWNK8LcoufJJjY/+AURPUZEFXEH83zql69RU89lAt6ofAYtAP8JgPSkvTB2AFiEgsmHLUl4fs91lwKo6c/z6YgSGwb9rB3sX32kT/3zS7tVpnz149/fpS7sa1FFhVjfEHQbaf6914lodT7AmJRnRAGcKXii9Bm0APwlAdIpANbntwA56Ff+bUmyKS0tTTwBkC4Cldjf6dmCAlJtzTd69k5g75Svvv30oJJuJ3YqJ665m/rIw05/T0SHkwLiknqKkqBT8EThmjR4h4aGE5/knXqp8kWAe0MjANJFgFx3J9sk4VpXV5cof+SR2G/6PQvsjw02q0dvXateezR7zz7fnPQHl3vU+uWBnkB3Uz112CoB3/EeEd12bci/WAKKSXpW5Gj5BlRQz0ELwN8RAGkPMMxtgFI1wMbGxsQTgKC3AQYB9tly08/+ZJ/63Y9uVGuXyWSkEwDCIkzJ0z4/IaL7iKg8SeCto66ixsoWLFH5/PJpmbxke3t74pO8U0+2tbVV5D8mCwGxCJKTbZJyratro8gHsiV8BvuViyvV8e3N6rHZnv17L49mnLMPMt8wEfj8vV1q9RI9R0tnqz8+dzU98K9E9BC29eVPBUTBG2Tg5fNb0ALwdwSgu7tH5D+8kp5leYOe/+fFh9L1C5ACft+3ZmYuqJaWFpEfZAK75+/sCB3snXLOT1/Zp73OmeyAzzISgX8gog9jZX/+wG89KXJipwCJwjVoAfhLAHQcBhTGNEB//4DI7zkpj47uwQjA7GmATAI6OjqVdFeIHexe/3R/pAkA5zd7efE+I1DrttFfEdFJIiqyAAyvMguIGigKIO9UBmgB+EsAJicnRf7DSbOiolIFqQfARw9XVcnncScnz4IAzBIAa7rj1KnTiqcEeH2EFBA5dp1iOwrXpHXE865Iw38T0W8TUZ8M6vB0JguIAzXuTsxJzUpweL2ZUCxYsEDsQywpG9Q0gA752rq6OvhEGvjbY0MHMYx7XkH9coL/D4joASKqywRc+EyPBcTJO+6OPDZ2AMneIdnz0K/UB3joeP/+Md9JAJ89UFhYJC6YHRJpAAALFElEQVQv19kOeHg/lxiOjx8S21jqU3g+J8BGsY14bv9xIurWA2/4llwWiKITRKpM0AKYm9zTwe7gwXEt7VVVVa38PBuAtf/Ly8u1lPXw4SMgAA6kcGRkpxY7A8SNBHGvbf9PRPQMEQ0SUUEuwMJ1vRbw2liJu7+npwfJ3iHZMyHQMQ3AyZ6/xw91QAb/mpoaLb7L35NOgvD3XJK4eXOfFlsngADcTUR/em0PO89zJ8VmrM3/TSK6n4i69MIZvs2rBZLidHnXE1oAc5N7JrDr7+/P277piY8V9vbv/4C26YC9e/dp6/lzWbds2QoCkIMQrlu3Tps/pPtHzP628nUpEQ3PHlrzHSL6ZYzq+atrsrzfuzaX/ywRHSCiSqvSeA3fAgjUHMy7ubkZCT9Hwj93blqxNr6upMX6ALxYT7I7gFf783fomPO36sV1nJ6+Ff6Qwx+WLl2mzRcs28f0NRsC8Ml124joHiJ6mYh+ZFD9WZzntWsk5hNENEJEVdkqic/DtwACNQcBqK6uRsLPkfB5VEDH6vr0JMejAawT4EUsiEV+eJ+/jq1+6eWB+E/u0SD2BV3TLen2j+HfXhCgfhZQbyeip4noz4jox9eU8H4dkl3+jYjeJqLfIqI7r73fde39Ii8Vwr3hWwAEIAcB4BXqLHSSaegbn90AhKmpc8qv8+FZta+lZbnq7d2s+BAfntNnoOdePq8Z4M+YKCxfvlys8JctmXLd0Pu/0d5Ovs8jONnsiM/nzPXrQADWv18zO4UwOauJ/xQRvUREf05E7xDR3xARr7D/FyL6D4f/vCDvb2eBndcm8Hc8T0SfvDYKcW4W5Pm3oLmvo+Ui8B0I1BwEgBMWtADcJf5t27bF1p+GhoZAAl2MBJ05IxeHShBJiAAEoAhJtkBsE7bOJAItAHcE4MKFi6qpqSl2PrVo0SKAvwvw51GB8XE920J1xm+EvyvJ2IO6R8ACsUvWfgQ7tADcEQAGAB4tKSkpiY1fcV342FunIW9cu+Ef0ACYM8SfKw4iAAEoQpItkMtBcZ1IQQvgRoJ3A3Y7dozExm8Y0NzUGfe87yObNm2OTdv70ZlI+84kYw/qHgELIFhdrAGAFoA3AsBguGFDh/G+xQfbANi9tf3atWuNb/c0kPazPhGAABQhyRbw07lj893QAvAGAgyavB6gtbXNWB9oa2tL1QEEwFvbL1my1Ng2DxD4LRslGXtQ9whYwHJEvDqMBEALwBsIWKDJ2yeXLTNPFIa3E2LrZ35trksWOgQwDiMHRgACUIQkWyAMpzfuN6EFkB8YMBFgIDVpJIB7/ufPz2Do3+Wqf4vsWa/QAMAiwCQDqml1F4Hx/77718qE/z//0XdVcbFMnARaAPmTAJ4O6OiI/poAPuaXy2qBGV69tfnExBlRPuEY5Vg1IadwGTWMUpiGFyhvzCwgcmJTApXLuXzpYlFdoQXgDQwygefIyEgktwjyVr+dO3cB+PPs9VttLT0ammPUpJwCAhAzNExgdUSgaFKwDm3pFdUVWgByAsBAwSMpLKyjIXlq+Q5e4Hny5CmAvxD8uW2l2z85Rk3KKRp8OIGQgypHyQKiJGpSsE6dOCiqK7QA9BAABgoeZh8c3O7b2QFuEnN5eXmqDFbvFa/y9t20aZMoxjhGTcopbvwsxz1RwgKUJYEWEAWsScH6iXtuE9UVWgBygEgHWT5GuLu7R+tRwjkSriorK0v9Jg720d+ea9bINAA4Rk3KKbl8zcX1BEIOqhwlC4hA0aRgffHJh0V1hRaAfsCwCMH09LQaGNiiampqRW3klHD5iNqBgQGc6KdhqN9qt/TXJUuWiNqPY9SknOLkby6vRQkLUJYEWkAUsCYF6xt/9KKortAC8I8A2IFkfPyQ6urq0kIG6urqVGdnlzp06DDm+H0Efqv95s+fL4oxjlGTcopLkHeySQIhB1WOkgWcnDPnNZOC9Yd/+VrO+jgFNLQAgiEAFpjw6+TkWbV792jqLAben9/Y2KiqqqpSw/jcHtxepaWlqc8aGhoU38NTCqOje9Tk5CRAPwDQt9qL13VINQA4Rk3KKU75wuW1KGEBypJAC4hA0aRghRZA8ABugQNe42/7pGkAcO5zCfJO9yUQclDlKFnAyTlzXjOJAHBZoQUQfyAC2QinjQ8ckO2yMU0DAAQgSjCGsuRrgZwg78RyTSMA0AIIBxwAyvG3e9I0AEAA8oUcPBclCySKAEALIP5ABLIRThv39sqEtkzTAAABiBKMoSz5WiBRBABaAOGAA0A5/nZfs2aNKJeYpgEAApAv5OC5KFlAFLSmTQFACyD+QASyEU4bL16cLA0AEIAowRjKkq8FEkUAoAUQDjgAlONv96RpAIAA5As5eC5KFkgUAYAWQPyBCGQj+DZmDQBLl8Fp0bDTNdM0AEAAogRjKEu+FkgUAYAWQPDgAECOv81Pn54Q5ZHi4iLFsWnalKIToXF5Ld+8jedgAS0WEAWuaQHL5YUWQPwBCaQj2DY+cOCAKI+YqAGAEQAt+IMvCdkCosA1kQBACyBYcAAYx9/ew8M7RHmEY9LEXOKyl+9km5DTP34+6RZwcs6c10wMWmgBxB+QQDqCbeMkagBgBCDp0BmP+ucEeSeWayIBgBZAsOAAMI6/vdvbk6cBAAIQDwBMei0SRwCgBRB/QALpCLaNm5sXi/IIx6SJnQmnzpHLa0nHH9Q/ZAuIAtfEoIUWQLDgADCOv72rq6tFeYRj0sRc4hLknWwTcvrHzyfdAk7OmfOaiUELLYD4AxJIR3BtnFQNAM59IABJh0/z6y9yYhMJALQAggMHAHH8bZ1UDQAQAPPBDzUgShwB4MCFFkD8gQnkI5g2HhtLpgYACADgMw4WSCQBgBZAMOAAEI6/nYeHh0U5xFQNABCAOMAf6iAKXg4CE/9DCyD+wATyEUwb9/T0iHIIx6KJOQQEAOAZBwuIgtfUwIUWQDDgABCOv53b29tFOYRj0dQ8gkWAcYDAZNdBFLymBi60AOIPTCAfwbRxc3OzKIeYqgGAEYBkA2dcai8KXlMJALQAggEHgHD87ZxUDQAQgLhAYLLrkUgCAC2A+AMTyIf/bTwzc0EVFhaKcgjHoqkdCUwBJBs841B7UfBqCAD8vnArJtpAtpUV9oP9QvSBOGAI6mCwBQDAAGD4AHwAPhCODxgMHSh6HCyAwA8n8GF32B0+AB+IA4agDgZbAEkISQg+AB+AD4TjAwZDB4oeBwsg8MMJfNgddocPwAfigCGog8EWQBJCEoIPwAfgA+H4gMHQgaLHwQII/HACH3aH3eED8IE4YAjqYLAFkISQhOAD8AH4QDg+YDB0oOhxsMB/hbgHFkknnKQDu8Pu8IHwfeA/4wAgqIPZFvgBCACEUOAD8AH4QOA+8H2zoQOlj4MFnkbgBx746H2F3/tCG6ANwvaBJ+MAIKiD2RbYQES/AgkACYAPwAfgA4H5AOfcW8yGDpQ+LhZ4DoEfWOCH3evA76PnCx8I3weeiQt4oB7mW6CUiN4ECQAJgA/AB+ADvvvAN4ioxHzYQA3iZAEmAVcwHeB78KP3FX7vC22ANgjDB3jYn3v+AP84IWfM6rKeiD5LRLxC9efoDYAQwAfgA/CBvH2AcyjnUl7whzn/mIElqgMLwAKwACwAC8ACsAAsAAvAArAALAALwAKwACwAC8ACsAAsAAvAArAALAALwAKwACwAC8ACsAAsAAvAArAALAALwAKwACwAC8ACsAAsAAvAArAALAALwAKwACwAC8ACsAAsAAvAArAALAALwAKwgFsL/D+2TZY+RmO2fgAAAABJRU5ErkJggg==;" vertex="1" parent="dSJ8OUNx_WeW59Pk2hs--6">
          <mxGeometry x="820" y="20" width="142" height="142" as="geometry" />
        </mxCell>
        <mxCell id="j9S2OprrJZgNHprjxA65-4" value="&amp;nbsp; &amp;nbsp; Provisionning&lt;br&gt;&lt;br&gt;&amp;nbsp; &amp;nbsp; - Installation&lt;br&gt;&amp;nbsp; &amp;nbsp; - Configuration" style="rounded=1;whiteSpace=wrap;html=1;strokeWidth=3;fontSize=18;verticalAlign=top;align=left;" vertex="1" parent="dSJ8OUNx_WeW59Pk2hs--6">
          <mxGeometry x="760" y="350" width="230" height="110" as="geometry" />
        </mxCell>
        <mxCell id="j9S2OprrJZgNHprjxA65-5" value="&lt;font style=&quot;font-size: 23px;&quot;&gt;&amp;nbsp; Conf projets&lt;/font&gt;" style="rounded=1;whiteSpace=wrap;html=1;strokeWidth=3;fontSize=18;verticalAlign=top;align=left;" vertex="1" parent="dSJ8OUNx_WeW59Pk2hs--6">
          <mxGeometry x="760" y="480" width="230" height="40" as="geometry" />
        </mxCell>
        <mxCell id="j9S2OprrJZgNHprjxA65-6" value="Utilise" style="edgeStyle=orthogonalEdgeStyle;rounded=0;orthogonalLoop=1;jettySize=auto;html=1;entryX=1;entryY=0.409;entryDx=0;entryDy=0;entryPerimeter=0;strokeWidth=4;sketch=1;curveFitting=1;jiggle=2;curved=1;fontSize=25;exitX=0;exitY=0.5;exitDx=0;exitDy=0;" edge="1" parent="dSJ8OUNx_WeW59Pk2hs--6" source="j9S2OprrJZgNHprjxA65-7" target="dSJ8OUNx_WeW59Pk2hs--11">
          <mxGeometry x="-0.1111" y="-50" relative="1" as="geometry">
            <mxPoint y="-5" as="offset" />
          </mxGeometry>
        </mxCell>
        <mxCell id="j9S2OprrJZgNHprjxA65-7" value="&amp;nbsp; &amp;nbsp; Infra&lt;br&gt;&lt;br&gt;&amp;nbsp; &amp;nbsp; - S&#39;appuie sur le catalog&lt;br&gt;&amp;nbsp; &amp;nbsp; - Configuration" style="rounded=1;whiteSpace=wrap;html=1;strokeWidth=3;fontSize=18;verticalAlign=top;align=left;" vertex="1" parent="dSJ8OUNx_WeW59Pk2hs--6">
          <mxGeometry x="760" y="220" width="230" height="110" as="geometry" />
        </mxCell>
      </root>
    </mxGraphModel>
  </diagram>
</mxfile>
